SplineFontDB: 3.0
FontName: parufont
FullName: parufont
FamilyName: parufont
Weight: Medium
Copyright: paru
Version: 001.000
ItalicAngle: 0
UnderlinePosition: -153
UnderlineWidth: 51
Ascent: 768
Descent: 256
InvalidEm: 0
sfntRevision: 0x00010000
LayerCount: 2
Layer: 0 1 "Back" 1
Layer: 1 1 "Fore" 0
XUID: [1021 668 -1508745919 7642818]
StyleMap: 0x0000
FSType: 0
OS2Version: 1
OS2_WeightWidthSlopeOnly: 0
OS2_UseTypoMetrics: 0
CreationTime: 1280473793
ModificationTime: 1456236575
PfmFamily: 17
TTFWeight: 500
TTFWidth: 5
LineGap: 92
VLineGap: 0
Panose: 2 0 6 3 0 0 0 0 0 0
OS2TypoAscent: 768
OS2TypoAOffset: 0
OS2TypoDescent: -256
OS2TypoDOffset: 0
OS2TypoLinegap: 92
OS2WinAscent: 768
OS2WinAOffset: 0
OS2WinDescent: 192
OS2WinDOffset: 0
HheadAscent: 768
HheadAOffset: 0
HheadDescent: -192
HheadDOffset: 0
OS2SubXSize: 665
OS2SubYSize: 716
OS2SubXOff: 0
OS2SubYOff: 143
OS2SupXSize: 665
OS2SupYSize: 716
OS2SupXOff: 0
OS2SupYOff: 491
OS2StrikeYSize: 51
OS2StrikeYPos: 265
OS2Vendor: '2ttf'
OS2CodePages: 00000001.00000000
OS2UnicodeRanges: 00000007.00010002.00000000.00000000
Lookup: 257 0 0 "Undefined substitution in Latin lookup 0" { } ['    ' ('DFLT' <'dflt' > 'latn' <'dflt' > ) ]
MarkAttachClasses: 1
DEI: 91125
ShortTable: cvt  2
  34
  648
EndShort
ShortTable: maxp 16
  1
  0
  321
  138
  15
  0
  0
  2
  0
  1
  1
  0
  64
  46
  0
  0
EndShort
LangName: 1033 "" "" "" "paru:parufont"
GaspTable: 1 65535 2 0
Encoding: UnicodeBmp
UnicodeInterp: none
NameList: AGL For New Fonts
DisplaySize: 16
AntiAlias: 0
FitToEm: 0
WinInfo: 208 26 15
BeginChars: 65539 322

StartChar: .notdef
Encoding: 65536 -1 0
Width: 374
Flags: W
LayerCount: 2
Fore
SplineSet
34 0 m 1,0,-1
 34 682 l 1,1,-1
 306 682 l 1,2,-1
 306 0 l 1,3,-1
 34 0 l 1,0,-1
68 34 m 1,4,-1
 272 34 l 1,5,-1
 272 648 l 1,6,-1
 68 648 l 1,7,-1
 68 34 l 1,4,-1
EndSplineSet
Validated: 1
EndChar

StartChar: exclam
Encoding: 33 33 4
Width: 192
Flags: W
LayerCount: 2
Fore
SplineSet
64 0 m 1,0,-1
 64 64 l 1,1,-1
 64 128 l 1,2,-1
 128 128 l 1,3,-1
 128 64 l 1,4,-1
 128 0 l 1,5,-1
 64 0 l 1,0,-1
64 192 m 1,6,-1
 64 256 l 1,7,-1
 64 320 l 1,8,-1
 64 384 l 1,9,-1
 64 448 l 1,10,-1
 64 512 l 1,11,-1
 64 576 l 1,12,-1
 64 640 l 1,13,-1
 64 704 l 1,14,-1
 128 704 l 1,15,-1
 128 640 l 1,16,-1
 128 576 l 1,17,-1
 128 512 l 1,18,-1
 128 448 l 1,19,-1
 128 384 l 1,20,-1
 128 320 l 1,21,-1
 128 256 l 1,22,-1
 128 192 l 1,23,-1
 64 192 l 1,6,-1
EndSplineSet
Validated: 1
EndChar

StartChar: quotedbl
Encoding: 34 34 5
Width: 384
Flags: W
LayerCount: 2
Fore
SplineSet
192 512 m 1,0,-1
 192 576 l 1,1,-1
 192 640 l 1,2,-1
 128 640 l 1,3,-1
 128 576 l 1,4,-1
 128 512 l 1,5,-1
 64 512 l 1,6,-1
 64 576 l 1,7,-1
 64 640 l 1,8,-1
 64 704 l 1,9,-1
 128 704 l 1,10,-1
 192 704 l 1,11,-1
 256 704 l 1,12,-1
 320 704 l 1,13,-1
 320 640 l 1,14,-1
 256 640 l 1,15,-1
 256 576 l 1,16,-1
 256 512 l 1,17,-1
 192 512 l 1,0,-1
EndSplineSet
Validated: 1
EndChar

StartChar: numbersign
Encoding: 35 35 6
Width: 576
Flags: W
LayerCount: 2
Fore
SplineSet
320 0 m 1,0,-1
 320 64 l 1,1,-1
 320 128 l 1,2,-1
 320 192 l 1,3,-1
 256 192 l 1,4,-1
 192 192 l 1,5,-1
 128 192 l 1,6,-1
 128 128 l 1,7,-1
 128 64 l 1,8,-1
 128 0 l 1,9,-1
 64 0 l 1,10,-1
 64 64 l 1,11,-1
 64 128 l 1,12,-1
 64 192 l 1,13,-1
 0 192 l 1,14,-1
 0 256 l 1,15,-1
 64 256 l 1,16,-1
 64 320 l 1,17,-1
 64 384 l 1,18,-1
 0 384 l 1,19,-1
 0 448 l 1,20,-1
 64 448 l 1,21,-1
 64 512 l 1,22,-1
 64 576 l 1,23,-1
 64 640 l 1,24,-1
 64 704 l 1,25,-1
 128 704 l 1,26,-1
 192 704 l 1,27,-1
 192 640 l 1,28,-1
 128 640 l 1,29,-1
 128 576 l 1,30,-1
 128 512 l 1,31,-1
 128 448 l 1,32,-1
 192 448 l 1,33,-1
 256 448 l 1,34,-1
 320 448 l 1,35,-1
 320 512 l 1,36,-1
 320 576 l 1,37,-1
 320 640 l 1,38,-1
 320 704 l 1,39,-1
 384 704 l 1,40,-1
 448 704 l 1,41,-1
 448 640 l 1,42,-1
 384 640 l 1,43,-1
 384 576 l 1,44,-1
 384 512 l 1,45,-1
 384 448 l 1,46,-1
 448 448 l 1,47,-1
 512 448 l 1,48,-1
 512 384 l 1,49,-1
 448 384 l 1,50,-1
 384 384 l 1,51,-1
 384 320 l 1,52,-1
 384 256 l 1,53,-1
 448 256 l 1,54,-1
 512 256 l 1,55,-1
 512 192 l 1,56,-1
 448 192 l 1,57,-1
 384 192 l 1,58,-1
 384 128 l 1,59,-1
 384 64 l 1,60,-1
 384 0 l 1,61,-1
 320 0 l 1,0,-1
256 256 m 1,62,-1
 320 256 l 1,63,-1
 320 320 l 1,64,-1
 320 384 l 1,65,-1
 256 384 l 1,66,-1
 192 384 l 1,67,-1
 128 384 l 1,68,-1
 128 320 l 1,69,-1
 128 256 l 1,70,-1
 192 256 l 1,71,-1
 256 256 l 1,62,-1
EndSplineSet
Validated: 1
EndChar

StartChar: dollar
Encoding: 36 36 7
Width: 576
Flags: W
LayerCount: 2
Fore
SplineSet
448 448 m 1,0,-1
 448 512 l 1,1,-1
 384 512 l 1,2,-1
 384 448 l 1,3,-1
 384 384 l 1,4,-1
 448 384 l 1,5,-1
 448 320 l 1,6,-1
 512 320 l 1,7,-1
 512 256 l 1,8,-1
 512 192 l 1,9,-1
 512 128 l 1,10,-1
 512 64 l 1,11,-1
 448 64 l 1,12,-1
 448 128 l 1,13,-1
 448 192 l 1,14,-1
 448 256 l 1,15,-1
 448 320 l 1,16,-1
 384 320 l 1,17,-1
 384 256 l 1,18,-1
 384 192 l 1,19,-1
 384 128 l 1,20,-1
 384 64 l 1,21,-1
 448 64 l 1,22,-1
 448 0 l 1,23,-1
 384 0 l 1,24,-1
 320 0 l 1,25,-1
 256 0 l 1,26,-1
 192 0 l 1,27,-1
 128 0 l 1,28,-1
 128 64 l 1,29,-1
 192 64 l 1,30,-1
 192 128 l 1,31,-1
 192 192 l 1,32,-1
 192 256 l 1,33,-1
 192 320 l 1,34,-1
 128 320 l 1,35,-1
 128 384 l 1,36,-1
 64 384 l 1,37,-1
 64 448 l 1,38,-1
 64 512 l 1,39,-1
 64 576 l 1,40,-1
 128 576 l 1,41,-1
 128 640 l 1,42,-1
 192 640 l 1,43,-1
 192 704 l 1,44,-1
 256 704 l 1,45,-1
 256 640 l 1,46,-1
 320 640 l 1,47,-1
 320 704 l 1,48,-1
 384 704 l 1,49,-1
 384 640 l 1,50,-1
 448 640 l 1,51,-1
 448 576 l 1,52,-1
 512 576 l 1,53,-1
 512 512 l 1,54,-1
 512 448 l 1,55,-1
 448 448 l 1,0,-1
320 64 m 1,56,-1
 320 128 l 1,57,-1
 320 192 l 1,58,-1
 320 256 l 1,59,-1
 320 320 l 1,60,-1
 256 320 l 1,61,-1
 256 256 l 1,62,-1
 256 192 l 1,63,-1
 256 128 l 1,64,-1
 256 64 l 1,65,-1
 320 64 l 1,56,-1
128 64 m 1,66,-1
 64 64 l 1,67,-1
 64 128 l 1,68,-1
 128 128 l 1,69,-1
 128 64 l 1,66,-1
320 384 m 1,70,-1
 320 448 l 1,71,-1
 320 512 l 1,72,-1
 320 576 l 1,73,-1
 256 576 l 1,74,-1
 256 512 l 1,75,-1
 256 448 l 1,76,-1
 256 384 l 1,77,-1
 320 384 l 1,70,-1
192 384 m 1,78,-1
 192 448 l 1,79,-1
 192 512 l 1,80,-1
 192 576 l 1,81,-1
 128 576 l 1,82,-1
 128 512 l 1,83,-1
 128 448 l 1,84,-1
 128 384 l 1,85,-1
 192 384 l 1,78,-1
EndSplineSet
Validated: 5
EndChar

StartChar: percent
Encoding: 37 37 8
Width: 704
Flags: W
LayerCount: 2
Fore
SplineSet
192 0 m 1,0,-1
 192 64 l 1,1,-1
 192 128 l 1,2,-1
 256 128 l 1,3,-1
 256 64 l 1,4,-1
 256 0 l 1,5,-1
 192 0 l 1,0,-1
512 192 m 1,6,-1
 576 192 l 1,7,-1
 576 128 l 1,8,-1
 512 128 l 1,9,-1
 448 128 l 1,10,-1
 448 192 l 1,11,-1
 512 192 l 1,6,-1
256 128 m 1,12,-1
 256 192 l 1,13,-1
 256 256 l 1,14,-1
 320 256 l 1,15,-1
 320 192 l 1,16,-1
 320 128 l 1,17,-1
 256 128 l 1,12,-1
576 192 m 1,18,-1
 576 256 l 1,19,-1
 576 320 l 1,20,-1
 640 320 l 1,21,-1
 640 256 l 1,22,-1
 640 192 l 1,23,-1
 576 192 l 1,18,-1
448 192 m 1,24,-1
 384 192 l 1,25,-1
 384 256 l 1,26,-1
 320 256 l 1,27,-1
 320 320 l 1,28,-1
 320 384 l 1,29,-1
 256 384 l 1,30,-1
 256 320 l 1,31,-1
 192 320 l 1,32,-1
 128 320 l 1,33,-1
 128 384 l 1,34,-1
 192 384 l 1,35,-1
 256 384 l 1,36,-1
 256 448 l 1,37,-1
 256 512 l 1,38,-1
 320 512 l 1,39,-1
 320 448 l 1,40,-1
 384 448 l 1,41,-1
 384 384 l 1,42,-1
 384 320 l 1,43,-1
 448 320 l 1,44,-1
 448 256 l 1,45,-1
 448 192 l 1,24,-1
576 320 m 1,46,-1
 512 320 l 1,47,-1
 448 320 l 1,48,-1
 448 384 l 1,49,-1
 512 384 l 1,50,-1
 576 384 l 1,51,-1
 576 320 l 1,46,-1
128 384 m 1,52,-1
 64 384 l 1,53,-1
 64 448 l 1,54,-1
 64 512 l 1,55,-1
 128 512 l 1,56,-1
 128 448 l 1,57,-1
 128 384 l 1,52,-1
384 448 m 1,58,-1
 384 512 l 1,59,-1
 384 576 l 1,60,-1
 384 640 l 1,61,-1
 448 640 l 1,62,-1
 448 704 l 1,63,-1
 512 704 l 1,64,-1
 512 640 l 1,65,-1
 512 576 l 1,66,-1
 448 576 l 1,67,-1
 448 512 l 1,68,-1
 448 448 l 1,69,-1
 384 448 l 1,58,-1
256 512 m 1,70,-1
 192 512 l 1,71,-1
 128 512 l 1,72,-1
 128 576 l 1,73,-1
 192 576 l 1,74,-1
 256 576 l 1,75,-1
 256 512 l 1,70,-1
EndSplineSet
Validated: 5
EndChar

StartChar: ampersand
Encoding: 38 38 9
Width: 384
Flags: W
LayerCount: 2
Fore
SplineSet
192 0 m 1,0,-1
 192 64 l 1,1,-1
 128 64 l 1,2,-1
 128 128 l 1,3,-1
 192 128 l 1,4,-1
 256 128 l 1,5,-1
 320 128 l 1,6,-1
 320 64 l 1,7,-1
 256 64 l 1,8,-1
 256 0 l 1,9,-1
 192 0 l 1,0,-1
192 192 m 1,10,-1
 192 256 l 1,11,-1
 256 256 l 1,12,-1
 256 192 l 1,13,-1
 192 192 l 1,10,-1
128 128 m 1,14,-1
 64 128 l 1,15,-1
 64 192 l 1,16,-1
 64 256 l 1,17,-1
 128 256 l 1,18,-1
 128 192 l 1,19,-1
 128 128 l 1,14,-1
256 256 m 1,20,-1
 256 320 l 1,21,-1
 256 384 l 1,22,-1
 320 384 l 1,23,-1
 320 320 l 1,24,-1
 320 256 l 1,25,-1
 256 256 l 1,20,-1
192 256 m 1,26,-1
 128 256 l 1,27,-1
 128 320 l 1,28,-1
 128 384 l 1,29,-1
 192 384 l 1,30,-1
 192 320 l 1,31,-1
 192 256 l 1,26,-1
256 384 m 1,32,-1
 192 384 l 1,33,-1
 192 448 l 1,34,-1
 256 448 l 1,35,-1
 256 384 l 1,32,-1
128 384 m 1,36,-1
 64 384 l 1,37,-1
 64 448 l 1,38,-1
 64 512 l 1,39,-1
 128 512 l 1,40,-1
 128 448 l 1,41,-1
 128 384 l 1,36,-1
256 512 m 1,42,-1
 192 512 l 1,43,-1
 128 512 l 1,44,-1
 128 576 l 1,45,-1
 192 576 l 1,46,-1
 192 640 l 1,47,-1
 256 640 l 1,48,-1
 256 576 l 1,49,-1
 320 576 l 1,50,-1
 320 512 l 1,51,-1
 256 512 l 1,42,-1
EndSplineSet
Validated: 5
EndChar

StartChar: quotesingle
Encoding: 39 39 10
Width: 256
Flags: W
LayerCount: 2
Fore
SplineSet
64 512 m 1,0,-1
 64 576 l 1,1,-1
 64 640 l 1,2,-1
 64 704 l 1,3,-1
 128 704 l 1,4,-1
 192 704 l 1,5,-1
 192 640 l 1,6,-1
 128 640 l 1,7,-1
 128 576 l 1,8,-1
 128 512 l 1,9,-1
 64 512 l 1,0,-1
EndSplineSet
Validated: 1
EndChar

StartChar: parenleft
Encoding: 40 40 11
Width: 256
Flags: W
LayerCount: 2
Fore
SplineSet
128 -192 m 1,0,-1
 128 -128 l 1,1,-1
 192 -128 l 1,2,-1
 192 -192 l 1,3,-1
 128 -192 l 1,0,-1
128 -128 m 1,4,-1
 64 -128 l 1,5,-1
 64 -64 l 1,6,-1
 64 0 l 1,7,-1
 128 0 l 1,8,-1
 128 -64 l 1,9,-1
 128 -128 l 1,4,-1
64 0 m 1,10,-1
 0 0 l 1,11,-1
 0 64 l 1,12,-1
 0 128 l 1,13,-1
 0 192 l 1,14,-1
 0 256 l 1,15,-1
 0 320 l 1,16,-1
 0 384 l 1,17,-1
 0 448 l 1,18,-1
 0 512 l 1,19,-1
 0 576 l 1,20,-1
 64 576 l 1,21,-1
 64 512 l 1,22,-1
 64 448 l 1,23,-1
 64 384 l 1,24,-1
 64 320 l 1,25,-1
 64 256 l 1,26,-1
 64 192 l 1,27,-1
 64 128 l 1,28,-1
 64 64 l 1,29,-1
 64 0 l 1,10,-1
64 576 m 1,30,-1
 64 640 l 1,31,-1
 64 704 l 1,32,-1
 128 704 l 1,33,-1
 128 640 l 1,34,-1
 128 576 l 1,35,-1
 64 576 l 1,30,-1
128 704 m 1,36,-1
 128 768 l 1,37,-1
 192 768 l 1,38,-1
 192 704 l 1,39,-1
 128 704 l 1,36,-1
EndSplineSet
Validated: 5
EndChar

StartChar: parenright
Encoding: 41 41 12
Width: 256
Flags: W
LayerCount: 2
Fore
SplineSet
0 -192 m 1,0,-1
 0 -128 l 1,1,-1
 64 -128 l 1,2,-1
 64 -192 l 1,3,-1
 0 -192 l 1,0,-1
64 -128 m 1,4,-1
 64 -64 l 1,5,-1
 64 0 l 1,6,-1
 128 0 l 1,7,-1
 128 -64 l 1,8,-1
 128 -128 l 1,9,-1
 64 -128 l 1,4,-1
128 0 m 1,10,-1
 128 64 l 1,11,-1
 128 128 l 1,12,-1
 128 192 l 1,13,-1
 128 256 l 1,14,-1
 128 320 l 1,15,-1
 128 384 l 1,16,-1
 128 448 l 1,17,-1
 128 512 l 1,18,-1
 128 576 l 1,19,-1
 192 576 l 1,20,-1
 192 512 l 1,21,-1
 192 448 l 1,22,-1
 192 384 l 1,23,-1
 192 320 l 1,24,-1
 192 256 l 1,25,-1
 192 192 l 1,26,-1
 192 128 l 1,27,-1
 192 64 l 1,28,-1
 192 0 l 1,29,-1
 128 0 l 1,10,-1
128 576 m 1,30,-1
 64 576 l 1,31,-1
 64 640 l 1,32,-1
 64 704 l 1,33,-1
 128 704 l 1,34,-1
 128 640 l 1,35,-1
 128 576 l 1,30,-1
64 704 m 1,36,-1
 0 704 l 1,37,-1
 0 768 l 1,38,-1
 64 768 l 1,39,-1
 64 704 l 1,36,-1
EndSplineSet
Validated: 5
EndChar

StartChar: asterisk
Encoding: 42 42 13
Width: 256
Flags: W
LayerCount: 2
Fore
SplineSet
128 512 m 1,0,-1
 128 576 l 1,1,-1
 192 576 l 1,2,-1
 192 512 l 1,3,-1
 128 512 l 1,0,-1
0 512 m 1,4,-1
 0 576 l 1,5,-1
 64 576 l 1,6,-1
 64 512 l 1,7,-1
 0 512 l 1,4,-1
128 576 m 1,8,-1
 64 576 l 1,9,-1
 64 640 l 1,10,-1
 128 640 l 1,11,-1
 128 576 l 1,8,-1
128 640 m 1,12,-1
 128 704 l 1,13,-1
 192 704 l 1,14,-1
 192 640 l 1,15,-1
 128 640 l 1,12,-1
64 640 m 1,16,-1
 0 640 l 1,17,-1
 0 704 l 1,18,-1
 64 704 l 1,19,-1
 64 640 l 1,16,-1
EndSplineSet
Validated: 5
EndChar

StartChar: plus
Encoding: 43 43 14
Width: 448
Flags: W
LayerCount: 2
Fore
SplineSet
192 192 m 1,0,-1
 192 256 l 1,1,-1
 192 320 l 1,2,-1
 128 320 l 1,3,-1
 64 320 l 1,4,-1
 64 384 l 1,5,-1
 128 384 l 1,6,-1
 192 384 l 1,7,-1
 192 448 l 1,8,-1
 192 512 l 1,9,-1
 256 512 l 1,10,-1
 256 448 l 1,11,-1
 256 384 l 1,12,-1
 320 384 l 1,13,-1
 384 384 l 1,14,-1
 384 320 l 1,15,-1
 320 320 l 1,16,-1
 256 320 l 1,17,-1
 256 256 l 1,18,-1
 256 192 l 1,19,-1
 192 192 l 1,0,-1
EndSplineSet
Validated: 1
EndChar

StartChar: comma
Encoding: 44 44 15
Width: 256
Flags: W
LayerCount: 2
Fore
SplineSet
64 -128 m 1,0,-1
 64 -64 l 1,1,-1
 128 -64 l 1,2,-1
 128 -128 l 1,3,-1
 64 -128 l 1,0,-1
128 -64 m 1,4,-1
 128 0 l 1,5,-1
 64 0 l 1,6,-1
 64 64 l 1,7,-1
 64 128 l 1,8,-1
 128 128 l 1,9,-1
 192 128 l 1,10,-1
 192 64 l 1,11,-1
 192 0 l 1,12,-1
 192 -64 l 1,13,-1
 128 -64 l 1,4,-1
EndSplineSet
Validated: 5
EndChar

StartChar: hyphen
Encoding: 45 45 16
Width: 384
Flags: W
LayerCount: 2
Fore
SplineSet
256 384 m 1,0,-1
 320 384 l 1,1,-1
 320 320 l 1,2,-1
 256 320 l 1,3,-1
 192 320 l 1,4,-1
 128 320 l 1,5,-1
 64 320 l 1,6,-1
 64 384 l 1,7,-1
 128 384 l 1,8,-1
 192 384 l 1,9,-1
 256 384 l 1,0,-1
EndSplineSet
Validated: 1
EndChar

StartChar: period
Encoding: 46 46 17
Width: 256
Flags: W
LayerCount: 2
Fore
SplineSet
128 0 m 1,0,-1
 64 0 l 1,1,-1
 64 64 l 1,2,-1
 64 128 l 1,3,-1
 128 128 l 1,4,-1
 192 128 l 1,5,-1
 192 64 l 1,6,-1
 192 0 l 1,7,-1
 128 0 l 1,0,-1
EndSplineSet
Validated: 1
EndChar

StartChar: slash
Encoding: 47 47 18
Width: 384
Flags: W
LayerCount: 2
Fore
SplineSet
0 0 m 1,0,-1
 0 64 l 1,1,-1
 0 128 l 1,2,-1
 64 128 l 1,3,-1
 64 64 l 1,4,-1
 64 0 l 1,5,-1
 0 0 l 1,0,-1
64 128 m 1,6,-1
 64 192 l 1,7,-1
 64 256 l 1,8,-1
 128 256 l 1,9,-1
 128 192 l 1,10,-1
 128 128 l 1,11,-1
 64 128 l 1,6,-1
128 256 m 1,12,-1
 128 320 l 1,13,-1
 128 384 l 1,14,-1
 128 448 l 1,15,-1
 192 448 l 1,16,-1
 192 384 l 1,17,-1
 192 320 l 1,18,-1
 192 256 l 1,19,-1
 128 256 l 1,12,-1
192 448 m 1,20,-1
 192 512 l 1,21,-1
 192 576 l 1,22,-1
 192 640 l 1,23,-1
 256 640 l 1,24,-1
 256 704 l 1,25,-1
 320 704 l 1,26,-1
 320 640 l 1,27,-1
 320 576 l 1,28,-1
 256 576 l 1,29,-1
 256 512 l 1,30,-1
 256 448 l 1,31,-1
 192 448 l 1,20,-1
EndSplineSet
Validated: 5
EndChar

StartChar: zero
Encoding: 48 48 19
Width: 576
Flags: W
LayerCount: 2
Fore
SplineSet
320 64 m 1,0,-1
 384 64 l 1,1,-1
 384 0 l 1,2,-1
 320 0 l 1,3,-1
 256 0 l 1,4,-1
 192 0 l 1,5,-1
 192 64 l 1,6,-1
 256 64 l 1,7,-1
 320 64 l 1,0,-1
384 64 m 1,8,-1
 384 128 l 1,9,-1
 448 128 l 1,10,-1
 448 64 l 1,11,-1
 384 64 l 1,8,-1
192 64 m 1,12,-1
 128 64 l 1,13,-1
 128 128 l 1,14,-1
 64 128 l 1,15,-1
 64 192 l 1,16,-1
 64 256 l 1,17,-1
 64 320 l 1,18,-1
 64 384 l 1,19,-1
 64 448 l 1,20,-1
 64 512 l 1,21,-1
 64 576 l 1,22,-1
 128 576 l 1,23,-1
 128 640 l 1,24,-1
 192 640 l 1,25,-1
 192 576 l 1,26,-1
 192 512 l 1,27,-1
 192 448 l 1,28,-1
 192 384 l 1,29,-1
 192 320 l 1,30,-1
 192 256 l 1,31,-1
 192 192 l 1,32,-1
 192 128 l 1,33,-1
 192 64 l 1,12,-1
448 128 m 1,34,-1
 448 192 l 1,35,-1
 448 256 l 1,36,-1
 448 320 l 1,37,-1
 448 384 l 1,38,-1
 448 448 l 1,39,-1
 448 512 l 1,40,-1
 448 576 l 1,41,-1
 512 576 l 1,42,-1
 512 512 l 1,43,-1
 512 448 l 1,44,-1
 512 384 l 1,45,-1
 512 320 l 1,46,-1
 512 256 l 1,47,-1
 512 192 l 1,48,-1
 512 128 l 1,49,-1
 448 128 l 1,34,-1
448 576 m 1,50,-1
 384 576 l 1,51,-1
 384 640 l 1,52,-1
 448 640 l 1,53,-1
 448 576 l 1,50,-1
384 640 m 1,54,-1
 320 640 l 1,55,-1
 256 640 l 1,56,-1
 192 640 l 1,57,-1
 192 704 l 1,58,-1
 256 704 l 1,59,-1
 320 704 l 1,60,-1
 384 704 l 1,61,-1
 384 640 l 1,54,-1
EndSplineSet
Validated: 5
EndChar

StartChar: one
Encoding: 49 49 20
Width: 320
Flags: W
LayerCount: 2
Fore
SplineSet
192 0 m 1,0,-1
 128 0 l 1,1,-1
 128 64 l 1,2,-1
 192 64 l 1,3,-1
 192 128 l 1,4,-1
 192 192 l 1,5,-1
 192 256 l 1,6,-1
 192 320 l 1,7,-1
 192 384 l 1,8,-1
 192 448 l 1,9,-1
 192 512 l 1,10,-1
 192 576 l 1,11,-1
 128 576 l 1,12,-1
 64 576 l 1,13,-1
 64 640 l 1,14,-1
 128 640 l 1,15,-1
 192 640 l 1,16,-1
 192 704 l 1,17,-1
 256 704 l 1,18,-1
 256 640 l 1,19,-1
 256 576 l 1,20,-1
 256 512 l 1,21,-1
 256 448 l 1,22,-1
 256 384 l 1,23,-1
 256 320 l 1,24,-1
 256 256 l 1,25,-1
 256 192 l 1,26,-1
 256 128 l 1,27,-1
 256 64 l 1,28,-1
 256 0 l 1,29,-1
 192 0 l 1,0,-1
EndSplineSet
Validated: 1
EndChar

StartChar: two
Encoding: 50 50 21
Width: 576
Flags: W
LayerCount: 2
Fore
SplineSet
448 0 m 1,0,-1
 384 0 l 1,1,-1
 320 0 l 1,2,-1
 256 0 l 1,3,-1
 192 0 l 1,4,-1
 128 0 l 1,5,-1
 64 0 l 1,6,-1
 64 64 l 1,7,-1
 64 128 l 1,8,-1
 128 128 l 1,9,-1
 128 64 l 1,10,-1
 192 64 l 1,11,-1
 256 64 l 1,12,-1
 320 64 l 1,13,-1
 384 64 l 1,14,-1
 448 64 l 1,15,-1
 448 128 l 1,16,-1
 512 128 l 1,17,-1
 512 64 l 1,18,-1
 512 0 l 1,19,-1
 448 0 l 1,0,-1
128 128 m 1,20,-1
 128 192 l 1,21,-1
 192 192 l 1,22,-1
 192 128 l 1,23,-1
 128 128 l 1,20,-1
192 192 m 1,24,-1
 192 256 l 1,25,-1
 256 256 l 1,26,-1
 256 192 l 1,27,-1
 192 192 l 1,24,-1
256 256 m 1,28,-1
 256 320 l 1,29,-1
 320 320 l 1,30,-1
 320 256 l 1,31,-1
 256 256 l 1,28,-1
320 320 m 1,32,-1
 320 384 l 1,33,-1
 384 384 l 1,34,-1
 384 320 l 1,35,-1
 320 320 l 1,32,-1
384 384 m 1,36,-1
 384 448 l 1,37,-1
 384 512 l 1,38,-1
 384 576 l 1,39,-1
 384 640 l 1,40,-1
 320 640 l 1,41,-1
 256 640 l 1,42,-1
 192 640 l 1,43,-1
 192 576 l 1,44,-1
 128 576 l 1,45,-1
 64 576 l 1,46,-1
 64 640 l 1,47,-1
 128 640 l 1,48,-1
 128 704 l 1,49,-1
 192 704 l 1,50,-1
 256 704 l 1,51,-1
 320 704 l 1,52,-1
 384 704 l 1,53,-1
 448 704 l 1,54,-1
 448 640 l 1,55,-1
 448 576 l 1,56,-1
 512 576 l 1,57,-1
 512 512 l 1,58,-1
 512 448 l 1,59,-1
 448 448 l 1,60,-1
 448 384 l 1,61,-1
 384 384 l 1,36,-1
EndSplineSet
Validated: 5
EndChar

StartChar: three
Encoding: 51 51 22
Width: 512
Flags: W
LayerCount: 2
Fore
SplineSet
64 512 m 1,0,-1
 64 576 l 1,1,-1
 64 640 l 1,2,-1
 128 640 l 1,3,-1
 128 576 l 1,4,-1
 128 512 l 1,5,-1
 64 512 l 1,0,-1
320 64 m 1,6,-1
 384 64 l 1,7,-1
 384 0 l 1,8,-1
 320 0 l 1,9,-1
 256 0 l 1,10,-1
 192 0 l 1,11,-1
 128 0 l 1,12,-1
 64 0 l 1,13,-1
 64 64 l 1,14,-1
 64 128 l 1,15,-1
 128 128 l 1,16,-1
 128 64 l 1,17,-1
 192 64 l 1,18,-1
 256 64 l 1,19,-1
 320 64 l 1,6,-1
384 64 m 1,20,-1
 384 128 l 1,21,-1
 384 192 l 1,22,-1
 384 256 l 1,23,-1
 448 256 l 1,24,-1
 448 192 l 1,25,-1
 448 128 l 1,26,-1
 448 64 l 1,27,-1
 384 64 l 1,20,-1
384 256 m 1,28,-1
 320 256 l 1,29,-1
 320 320 l 1,30,-1
 256 320 l 1,31,-1
 192 320 l 1,32,-1
 192 384 l 1,33,-1
 256 384 l 1,34,-1
 320 384 l 1,35,-1
 320 448 l 1,36,-1
 384 448 l 1,37,-1
 384 384 l 1,38,-1
 384 320 l 1,39,-1
 384 256 l 1,28,-1
384 448 m 1,40,-1
 384 512 l 1,41,-1
 384 576 l 1,42,-1
 320 576 l 1,43,-1
 320 640 l 1,44,-1
 256 640 l 1,45,-1
 192 640 l 1,46,-1
 128 640 l 1,47,-1
 128 704 l 1,48,-1
 192 704 l 1,49,-1
 256 704 l 1,50,-1
 320 704 l 1,51,-1
 384 704 l 1,52,-1
 384 640 l 1,53,-1
 448 640 l 1,54,-1
 448 576 l 1,55,-1
 448 512 l 1,56,-1
 448 448 l 1,57,-1
 384 448 l 1,40,-1
EndSplineSet
Validated: 5
EndChar

StartChar: four
Encoding: 52 52 23
Width: 576
Flags: W
LayerCount: 2
Fore
SplineSet
384 0 m 1,0,-1
 384 64 l 1,1,-1
 384 128 l 1,2,-1
 384 192 l 1,3,-1
 384 256 l 1,4,-1
 384 320 l 1,5,-1
 320 320 l 1,6,-1
 256 320 l 1,7,-1
 192 320 l 1,8,-1
 128 320 l 1,9,-1
 64 320 l 1,10,-1
 64 384 l 1,11,-1
 64 448 l 1,12,-1
 64 512 l 1,13,-1
 64 576 l 1,14,-1
 64 640 l 1,15,-1
 64 704 l 1,16,-1
 128 704 l 1,17,-1
 192 704 l 1,18,-1
 192 640 l 1,19,-1
 192 576 l 1,20,-1
 192 512 l 1,21,-1
 192 448 l 1,22,-1
 192 384 l 1,23,-1
 256 384 l 1,24,-1
 320 384 l 1,25,-1
 384 384 l 1,26,-1
 384 448 l 1,27,-1
 384 512 l 1,28,-1
 384 576 l 1,29,-1
 384 640 l 1,30,-1
 384 704 l 1,31,-1
 448 704 l 1,32,-1
 448 640 l 1,33,-1
 448 576 l 1,34,-1
 448 512 l 1,35,-1
 448 448 l 1,36,-1
 448 384 l 1,37,-1
 448 320 l 1,38,-1
 512 320 l 1,39,-1
 512 256 l 1,40,-1
 448 256 l 1,41,-1
 448 192 l 1,42,-1
 448 128 l 1,43,-1
 448 64 l 1,44,-1
 448 0 l 1,45,-1
 384 0 l 1,0,-1
EndSplineSet
Validated: 1
EndChar

StartChar: five
Encoding: 53 53 24
Width: 576
Flags: W
LayerCount: 2
Fore
SplineSet
384 64 m 1,0,-1
 448 64 l 1,1,-1
 448 0 l 1,2,-1
 384 0 l 1,3,-1
 320 0 l 1,4,-1
 256 0 l 1,5,-1
 192 0 l 1,6,-1
 128 0 l 1,7,-1
 128 64 l 1,8,-1
 192 64 l 1,9,-1
 256 64 l 1,10,-1
 320 64 l 1,11,-1
 384 64 l 1,0,-1
448 64 m 1,12,-1
 448 128 l 1,13,-1
 448 192 l 1,14,-1
 448 256 l 1,15,-1
 448 320 l 1,16,-1
 512 320 l 1,17,-1
 512 256 l 1,18,-1
 512 192 l 1,19,-1
 512 128 l 1,20,-1
 512 64 l 1,21,-1
 448 64 l 1,12,-1
128 64 m 1,22,-1
 64 64 l 1,23,-1
 64 128 l 1,24,-1
 64 192 l 1,25,-1
 128 192 l 1,26,-1
 128 128 l 1,27,-1
 128 64 l 1,22,-1
448 320 m 1,28,-1
 384 320 l 1,29,-1
 320 320 l 1,30,-1
 256 320 l 1,31,-1
 192 320 l 1,32,-1
 128 320 l 1,33,-1
 64 320 l 1,34,-1
 64 384 l 1,35,-1
 64 448 l 1,36,-1
 64 512 l 1,37,-1
 64 576 l 1,38,-1
 64 640 l 1,39,-1
 64 704 l 1,40,-1
 128 704 l 1,41,-1
 192 704 l 1,42,-1
 256 704 l 1,43,-1
 320 704 l 1,44,-1
 384 704 l 1,45,-1
 448 704 l 1,46,-1
 448 640 l 1,47,-1
 384 640 l 1,48,-1
 320 640 l 1,49,-1
 256 640 l 1,50,-1
 192 640 l 1,51,-1
 192 576 l 1,52,-1
 192 512 l 1,53,-1
 192 448 l 1,54,-1
 192 384 l 1,55,-1
 256 384 l 1,56,-1
 320 384 l 1,57,-1
 384 384 l 1,58,-1
 448 384 l 1,59,-1
 448 320 l 1,28,-1
EndSplineSet
Validated: 5
EndChar

StartChar: six
Encoding: 54 54 25
Width: 576
Flags: W
LayerCount: 2
Fore
SplineSet
384 64 m 1,0,-1
 448 64 l 1,1,-1
 448 0 l 1,2,-1
 384 0 l 1,3,-1
 320 0 l 1,4,-1
 256 0 l 1,5,-1
 192 0 l 1,6,-1
 128 0 l 1,7,-1
 128 64 l 1,8,-1
 192 64 l 1,9,-1
 256 64 l 1,10,-1
 320 64 l 1,11,-1
 384 64 l 1,0,-1
448 64 m 1,12,-1
 448 128 l 1,13,-1
 448 192 l 1,14,-1
 448 256 l 1,15,-1
 448 320 l 1,16,-1
 512 320 l 1,17,-1
 512 256 l 1,18,-1
 512 192 l 1,19,-1
 512 128 l 1,20,-1
 512 64 l 1,21,-1
 448 64 l 1,12,-1
128 64 m 1,22,-1
 64 64 l 1,23,-1
 64 128 l 1,24,-1
 64 192 l 1,25,-1
 64 256 l 1,26,-1
 64 320 l 1,27,-1
 64 384 l 1,28,-1
 64 448 l 1,29,-1
 64 512 l 1,30,-1
 64 576 l 1,31,-1
 64 640 l 1,32,-1
 128 640 l 1,33,-1
 128 704 l 1,34,-1
 192 704 l 1,35,-1
 256 704 l 1,36,-1
 320 704 l 1,37,-1
 384 704 l 1,38,-1
 448 704 l 1,39,-1
 448 640 l 1,40,-1
 384 640 l 1,41,-1
 320 640 l 1,42,-1
 256 640 l 1,43,-1
 192 640 l 1,44,-1
 192 576 l 1,45,-1
 128 576 l 1,46,-1
 128 512 l 1,47,-1
 128 448 l 1,48,-1
 128 384 l 1,49,-1
 192 384 l 1,50,-1
 256 384 l 1,51,-1
 320 384 l 1,52,-1
 384 384 l 1,53,-1
 448 384 l 1,54,-1
 448 320 l 1,55,-1
 384 320 l 1,56,-1
 320 320 l 1,57,-1
 256 320 l 1,58,-1
 192 320 l 1,59,-1
 192 256 l 1,60,-1
 128 256 l 1,61,-1
 128 192 l 1,62,-1
 128 128 l 1,63,-1
 128 64 l 1,22,-1
EndSplineSet
Validated: 5
EndChar

StartChar: seven
Encoding: 55 55 26
Width: 576
Flags: W
LayerCount: 2
Fore
SplineSet
256 0 m 1,0,-1
 256 64 l 1,1,-1
 256 128 l 1,2,-1
 320 128 l 1,3,-1
 320 64 l 1,4,-1
 320 0 l 1,5,-1
 256 0 l 1,0,-1
320 128 m 1,6,-1
 320 192 l 1,7,-1
 320 256 l 1,8,-1
 320 320 l 1,9,-1
 320 384 l 1,10,-1
 320 448 l 1,11,-1
 384 448 l 1,12,-1
 384 384 l 1,13,-1
 384 320 l 1,14,-1
 384 256 l 1,15,-1
 384 192 l 1,16,-1
 384 128 l 1,17,-1
 320 128 l 1,6,-1
384 448 m 1,18,-1
 384 512 l 1,19,-1
 384 576 l 1,20,-1
 384 640 l 1,21,-1
 320 640 l 1,22,-1
 256 640 l 1,23,-1
 192 640 l 1,24,-1
 128 640 l 1,25,-1
 64 640 l 1,26,-1
 64 704 l 1,27,-1
 128 704 l 1,28,-1
 192 704 l 1,29,-1
 256 704 l 1,30,-1
 320 704 l 1,31,-1
 384 704 l 1,32,-1
 448 704 l 1,33,-1
 512 704 l 1,34,-1
 512 640 l 1,35,-1
 448 640 l 1,36,-1
 448 576 l 1,37,-1
 448 512 l 1,38,-1
 448 448 l 1,39,-1
 384 448 l 1,18,-1
EndSplineSet
Validated: 5
EndChar

StartChar: eight
Encoding: 56 56 27
Width: 576
Flags: W
LayerCount: 2
Fore
SplineSet
384 64 m 1,0,-1
 448 64 l 1,1,-1
 448 0 l 1,2,-1
 384 0 l 1,3,-1
 320 0 l 1,4,-1
 256 0 l 1,5,-1
 192 0 l 1,6,-1
 128 0 l 1,7,-1
 128 64 l 1,8,-1
 192 64 l 1,9,-1
 256 64 l 1,10,-1
 320 64 l 1,11,-1
 384 64 l 1,0,-1
448 64 m 1,12,-1
 448 128 l 1,13,-1
 448 192 l 1,14,-1
 448 256 l 1,15,-1
 384 256 l 1,16,-1
 384 320 l 1,17,-1
 320 320 l 1,18,-1
 256 320 l 1,19,-1
 192 320 l 1,20,-1
 192 256 l 1,21,-1
 128 256 l 1,22,-1
 128 192 l 1,23,-1
 128 128 l 1,24,-1
 128 64 l 1,25,-1
 64 64 l 1,26,-1
 64 128 l 1,27,-1
 64 192 l 1,28,-1
 64 256 l 1,29,-1
 64 320 l 1,30,-1
 128 320 l 1,31,-1
 128 384 l 1,32,-1
 64 384 l 1,33,-1
 64 448 l 1,34,-1
 64 512 l 1,35,-1
 64 576 l 1,36,-1
 64 640 l 1,37,-1
 128 640 l 1,38,-1
 128 576 l 1,39,-1
 128 512 l 1,40,-1
 128 448 l 1,41,-1
 192 448 l 1,42,-1
 192 384 l 1,43,-1
 256 384 l 1,44,-1
 320 384 l 1,45,-1
 384 384 l 1,46,-1
 384 448 l 1,47,-1
 448 448 l 1,48,-1
 448 512 l 1,49,-1
 448 576 l 1,50,-1
 448 640 l 1,51,-1
 512 640 l 1,52,-1
 512 576 l 1,53,-1
 512 512 l 1,54,-1
 512 448 l 1,55,-1
 512 384 l 1,56,-1
 448 384 l 1,57,-1
 448 320 l 1,58,-1
 512 320 l 1,59,-1
 512 256 l 1,60,-1
 512 192 l 1,61,-1
 512 128 l 1,62,-1
 512 64 l 1,63,-1
 448 64 l 1,12,-1
448 640 m 1,64,-1
 384 640 l 1,65,-1
 320 640 l 1,66,-1
 256 640 l 1,67,-1
 192 640 l 1,68,-1
 128 640 l 1,69,-1
 128 704 l 1,70,-1
 192 704 l 1,71,-1
 256 704 l 1,72,-1
 320 704 l 1,73,-1
 384 704 l 1,74,-1
 448 704 l 1,75,-1
 448 640 l 1,64,-1
EndSplineSet
Validated: 5
EndChar

StartChar: nine
Encoding: 57 57 28
Width: 576
Flags: W
LayerCount: 2
Fore
SplineSet
384 64 m 1,0,-1
 448 64 l 1,1,-1
 448 0 l 1,2,-1
 384 0 l 1,3,-1
 320 0 l 1,4,-1
 256 0 l 1,5,-1
 192 0 l 1,6,-1
 128 0 l 1,7,-1
 128 64 l 1,8,-1
 192 64 l 1,9,-1
 256 64 l 1,10,-1
 320 64 l 1,11,-1
 384 64 l 1,0,-1
448 64 m 1,12,-1
 448 128 l 1,13,-1
 448 192 l 1,14,-1
 448 256 l 1,15,-1
 384 256 l 1,16,-1
 384 320 l 1,17,-1
 320 320 l 1,18,-1
 256 320 l 1,19,-1
 192 320 l 1,20,-1
 128 320 l 1,21,-1
 128 384 l 1,22,-1
 64 384 l 1,23,-1
 64 448 l 1,24,-1
 64 512 l 1,25,-1
 64 576 l 1,26,-1
 64 640 l 1,27,-1
 128 640 l 1,28,-1
 128 576 l 1,29,-1
 128 512 l 1,30,-1
 128 448 l 1,31,-1
 192 448 l 1,32,-1
 192 384 l 1,33,-1
 256 384 l 1,34,-1
 320 384 l 1,35,-1
 384 384 l 1,36,-1
 384 448 l 1,37,-1
 448 448 l 1,38,-1
 448 512 l 1,39,-1
 448 576 l 1,40,-1
 448 640 l 1,41,-1
 512 640 l 1,42,-1
 512 576 l 1,43,-1
 512 512 l 1,44,-1
 512 448 l 1,45,-1
 512 384 l 1,46,-1
 448 384 l 1,47,-1
 448 320 l 1,48,-1
 512 320 l 1,49,-1
 512 256 l 1,50,-1
 512 192 l 1,51,-1
 512 128 l 1,52,-1
 512 64 l 1,53,-1
 448 64 l 1,12,-1
128 64 m 1,54,-1
 64 64 l 1,55,-1
 64 128 l 1,56,-1
 128 128 l 1,57,-1
 128 64 l 1,54,-1
448 640 m 1,58,-1
 384 640 l 1,59,-1
 320 640 l 1,60,-1
 256 640 l 1,61,-1
 192 640 l 1,62,-1
 128 640 l 1,63,-1
 128 704 l 1,64,-1
 192 704 l 1,65,-1
 256 704 l 1,66,-1
 320 704 l 1,67,-1
 384 704 l 1,68,-1
 448 704 l 1,69,-1
 448 640 l 1,58,-1
EndSplineSet
Validated: 5
EndChar

StartChar: colon
Encoding: 58 58 29
Width: 192
Flags: W
LayerCount: 2
Fore
SplineSet
64 0 m 1,0,-1
 64 64 l 1,1,-1
 64 128 l 1,2,-1
 128 128 l 1,3,-1
 128 64 l 1,4,-1
 128 0 l 1,5,-1
 64 0 l 1,0,-1
64 320 m 1,6,-1
 64 384 l 1,7,-1
 64 448 l 1,8,-1
 128 448 l 1,9,-1
 128 384 l 1,10,-1
 128 320 l 1,11,-1
 64 320 l 1,6,-1
EndSplineSet
Validated: 1
EndChar

StartChar: semicolon
Encoding: 59 59 30
Width: 192
Flags: W
LayerCount: 2
Fore
SplineSet
0 -128 m 1,0,-1
 0 -64 l 1,1,-1
 64 -64 l 1,2,-1
 64 -128 l 1,3,-1
 0 -128 l 1,0,-1
64 320 m 1,4,-1
 64 384 l 1,5,-1
 64 448 l 1,6,-1
 128 448 l 1,7,-1
 128 384 l 1,8,-1
 128 320 l 1,9,-1
 64 320 l 1,4,-1
64 -64 m 1,10,-1
 64 0 l 1,11,-1
 64 64 l 1,12,-1
 64 128 l 1,13,-1
 128 128 l 1,14,-1
 128 64 l 1,15,-1
 128 0 l 1,16,-1
 128 -64 l 1,17,-1
 64 -64 l 1,10,-1
EndSplineSet
Validated: 5
EndChar

StartChar: less
Encoding: 60 60 31
Width: 448
Flags: W
LayerCount: 2
Fore
SplineSet
320 192 m 1,0,-1
 384 192 l 1,1,-1
 384 128 l 1,2,-1
 320 128 l 1,3,-1
 256 128 l 1,4,-1
 256 192 l 1,5,-1
 320 192 l 1,0,-1
256 192 m 1,6,-1
 192 192 l 1,7,-1
 192 256 l 1,8,-1
 256 256 l 1,9,-1
 256 192 l 1,6,-1
192 256 m 1,10,-1
 128 256 l 1,11,-1
 128 320 l 1,12,-1
 192 320 l 1,13,-1
 192 256 l 1,10,-1
128 320 m 1,14,-1
 64 320 l 1,15,-1
 64 384 l 1,16,-1
 128 384 l 1,17,-1
 128 320 l 1,14,-1
128 384 m 1,18,-1
 128 448 l 1,19,-1
 192 448 l 1,20,-1
 192 384 l 1,21,-1
 128 384 l 1,18,-1
192 448 m 1,22,-1
 192 512 l 1,23,-1
 256 512 l 1,24,-1
 256 448 l 1,25,-1
 192 448 l 1,22,-1
320 576 m 1,26,-1
 384 576 l 1,27,-1
 384 512 l 1,28,-1
 320 512 l 1,29,-1
 256 512 l 1,30,-1
 256 576 l 1,31,-1
 320 576 l 1,26,-1
EndSplineSet
Validated: 5
EndChar

StartChar: equal
Encoding: 61 61 32
Width: 512
Flags: W
LayerCount: 2
Fore
SplineSet
384 256 m 1,0,-1
 448 256 l 1,1,-1
 448 192 l 1,2,-1
 384 192 l 1,3,-1
 320 192 l 1,4,-1
 256 192 l 1,5,-1
 192 192 l 1,6,-1
 128 192 l 1,7,-1
 64 192 l 1,8,-1
 64 256 l 1,9,-1
 128 256 l 1,10,-1
 192 256 l 1,11,-1
 256 256 l 1,12,-1
 320 256 l 1,13,-1
 384 256 l 1,0,-1
384 512 m 1,14,-1
 448 512 l 1,15,-1
 448 448 l 1,16,-1
 384 448 l 1,17,-1
 320 448 l 1,18,-1
 256 448 l 1,19,-1
 192 448 l 1,20,-1
 128 448 l 1,21,-1
 64 448 l 1,22,-1
 64 512 l 1,23,-1
 128 512 l 1,24,-1
 192 512 l 1,25,-1
 256 512 l 1,26,-1
 320 512 l 1,27,-1
 384 512 l 1,14,-1
EndSplineSet
Validated: 1
EndChar

StartChar: greater
Encoding: 62 62 33
Width: 448
Flags: W
LayerCount: 2
Fore
SplineSet
128 192 m 1,0,-1
 192 192 l 1,1,-1
 192 128 l 1,2,-1
 128 128 l 1,3,-1
 64 128 l 1,4,-1
 64 192 l 1,5,-1
 128 192 l 1,0,-1
192 192 m 1,6,-1
 192 256 l 1,7,-1
 256 256 l 1,8,-1
 256 192 l 1,9,-1
 192 192 l 1,6,-1
256 256 m 1,10,-1
 256 320 l 1,11,-1
 320 320 l 1,12,-1
 320 256 l 1,13,-1
 256 256 l 1,10,-1
320 320 m 1,14,-1
 320 384 l 1,15,-1
 384 384 l 1,16,-1
 384 320 l 1,17,-1
 320 320 l 1,14,-1
320 384 m 1,18,-1
 256 384 l 1,19,-1
 256 448 l 1,20,-1
 320 448 l 1,21,-1
 320 384 l 1,18,-1
256 448 m 1,22,-1
 192 448 l 1,23,-1
 192 512 l 1,24,-1
 256 512 l 1,25,-1
 256 448 l 1,22,-1
192 512 m 1,26,-1
 128 512 l 1,27,-1
 64 512 l 1,28,-1
 64 576 l 1,29,-1
 128 576 l 1,30,-1
 192 576 l 1,31,-1
 192 512 l 1,26,-1
EndSplineSet
Validated: 5
EndChar

StartChar: question
Encoding: 63 63 34
Width: 512
Flags: W
LayerCount: 2
Fore
SplineSet
256 0 m 1,0,-1
 256 64 l 1,1,-1
 256 128 l 1,2,-1
 320 128 l 1,3,-1
 320 64 l 1,4,-1
 320 0 l 1,5,-1
 256 0 l 1,0,-1
256 192 m 1,6,-1
 256 256 l 1,7,-1
 256 320 l 1,8,-1
 256 384 l 1,9,-1
 320 384 l 1,10,-1
 384 384 l 1,11,-1
 384 320 l 1,12,-1
 320 320 l 1,13,-1
 320 256 l 1,14,-1
 320 192 l 1,15,-1
 256 192 l 1,6,-1
64 512 m 1,16,-1
 64 576 l 1,17,-1
 64 640 l 1,18,-1
 128 640 l 1,19,-1
 128 576 l 1,20,-1
 128 512 l 1,21,-1
 64 512 l 1,16,-1
384 384 m 1,22,-1
 384 448 l 1,23,-1
 384 512 l 1,24,-1
 384 576 l 1,25,-1
 448 576 l 1,26,-1
 448 512 l 1,27,-1
 448 448 l 1,28,-1
 448 384 l 1,29,-1
 384 384 l 1,22,-1
384 576 m 1,30,-1
 320 576 l 1,31,-1
 320 640 l 1,32,-1
 384 640 l 1,33,-1
 384 576 l 1,30,-1
320 640 m 1,34,-1
 256 640 l 1,35,-1
 192 640 l 1,36,-1
 128 640 l 1,37,-1
 128 704 l 1,38,-1
 192 704 l 1,39,-1
 256 704 l 1,40,-1
 320 704 l 1,41,-1
 320 640 l 1,34,-1
EndSplineSet
Validated: 5
EndChar

StartChar: at
Encoding: 64 64 35
Width: 896
Flags: W
LayerCount: 2
Fore
SplineSet
704 -64 m 1,0,-1
 768 -64 l 1,1,-1
 768 -128 l 1,2,-1
 704 -128 l 1,3,-1
 640 -128 l 1,4,-1
 576 -128 l 1,5,-1
 512 -128 l 1,6,-1
 448 -128 l 1,7,-1
 384 -128 l 1,8,-1
 320 -128 l 1,9,-1
 256 -128 l 1,10,-1
 192 -128 l 1,11,-1
 192 -64 l 1,12,-1
 256 -64 l 1,13,-1
 320 -64 l 1,14,-1
 384 -64 l 1,15,-1
 448 -64 l 1,16,-1
 512 -64 l 1,17,-1
 576 -64 l 1,18,-1
 640 -64 l 1,19,-1
 704 -64 l 1,0,-1
768 -64 m 1,20,-1
 768 0 l 1,21,-1
 832 0 l 1,22,-1
 832 -64 l 1,23,-1
 768 -64 l 1,20,-1
192 -64 m 1,24,-1
 128 -64 l 1,25,-1
 128 0 l 1,26,-1
 192 0 l 1,27,-1
 192 -64 l 1,24,-1
640 0 m 1,28,-1
 576 0 l 1,29,-1
 576 64 l 1,30,-1
 640 64 l 1,31,-1
 640 128 l 1,32,-1
 704 128 l 1,33,-1
 704 64 l 1,34,-1
 704 0 l 1,35,-1
 640 0 l 1,28,-1
448 0 m 1,36,-1
 384 0 l 1,37,-1
 320 0 l 1,38,-1
 256 0 l 1,39,-1
 256 64 l 1,40,-1
 192 64 l 1,41,-1
 192 128 l 1,42,-1
 192 192 l 1,43,-1
 192 256 l 1,44,-1
 192 320 l 1,45,-1
 192 384 l 1,46,-1
 256 384 l 1,47,-1
 256 448 l 1,48,-1
 320 448 l 1,49,-1
 384 448 l 1,50,-1
 448 448 l 1,51,-1
 512 448 l 1,52,-1
 576 448 l 1,53,-1
 576 384 l 1,54,-1
 640 384 l 1,55,-1
 640 320 l 1,56,-1
 576 320 l 1,57,-1
 576 256 l 1,58,-1
 576 192 l 1,59,-1
 576 128 l 1,60,-1
 576 64 l 1,61,-1
 512 64 l 1,62,-1
 512 0 l 1,63,-1
 448 0 l 1,36,-1
384 64 m 1,64,-1
 448 64 l 1,65,-1
 448 128 l 1,66,-1
 512 128 l 1,67,-1
 512 192 l 1,68,-1
 512 256 l 1,69,-1
 512 320 l 1,70,-1
 512 384 l 1,71,-1
 448 384 l 1,72,-1
 384 384 l 1,73,-1
 320 384 l 1,74,-1
 320 320 l 1,75,-1
 256 320 l 1,76,-1
 256 256 l 1,77,-1
 256 192 l 1,78,-1
 256 128 l 1,79,-1
 256 64 l 1,80,-1
 320 64 l 1,81,-1
 384 64 l 1,64,-1
128 0 m 1,82,-1
 64 0 l 1,83,-1
 64 64 l 1,84,-1
 64 128 l 1,85,-1
 64 192 l 1,86,-1
 64 256 l 1,87,-1
 64 320 l 1,88,-1
 64 384 l 1,89,-1
 64 448 l 1,90,-1
 64 512 l 1,91,-1
 128 512 l 1,92,-1
 128 448 l 1,93,-1
 128 384 l 1,94,-1
 128 320 l 1,95,-1
 128 256 l 1,96,-1
 128 192 l 1,97,-1
 128 128 l 1,98,-1
 128 64 l 1,99,-1
 128 0 l 1,82,-1
704 128 m 1,100,-1
 704 192 l 1,101,-1
 704 256 l 1,102,-1
 704 320 l 1,103,-1
 704 384 l 1,104,-1
 704 448 l 1,105,-1
 704 512 l 1,106,-1
 768 512 l 1,107,-1
 768 448 l 1,108,-1
 768 384 l 1,109,-1
 768 320 l 1,110,-1
 768 256 l 1,111,-1
 768 192 l 1,112,-1
 768 128 l 1,113,-1
 704 128 l 1,100,-1
704 512 m 1,114,-1
 640 512 l 1,115,-1
 640 576 l 1,116,-1
 704 576 l 1,117,-1
 704 512 l 1,114,-1
128 512 m 1,118,-1
 128 576 l 1,119,-1
 192 576 l 1,120,-1
 192 512 l 1,121,-1
 128 512 l 1,118,-1
640 576 m 1,122,-1
 576 576 l 1,123,-1
 512 576 l 1,124,-1
 448 576 l 1,125,-1
 384 576 l 1,126,-1
 320 576 l 1,127,-1
 256 576 l 1,128,-1
 192 576 l 1,129,-1
 192 640 l 1,130,-1
 256 640 l 1,131,-1
 320 640 l 1,132,-1
 384 640 l 1,133,-1
 448 640 l 1,134,-1
 512 640 l 1,135,-1
 576 640 l 1,136,-1
 640 640 l 1,137,-1
 640 576 l 1,122,-1
EndSplineSet
Validated: 5
EndChar

StartChar: A
Encoding: 65 65 36
Width: 640
Flags: W
LayerCount: 2
Fore
SplineSet
512 0 m 1,0,-1
 512 64 l 1,1,-1
 512 128 l 1,2,-1
 512 192 l 1,3,-1
 512 256 l 1,4,-1
 448 256 l 1,5,-1
 384 256 l 1,6,-1
 384 320 l 1,7,-1
 448 320 l 1,8,-1
 512 320 l 1,9,-1
 512 384 l 1,10,-1
 512 448 l 1,11,-1
 512 512 l 1,12,-1
 576 512 l 1,13,-1
 576 448 l 1,14,-1
 576 384 l 1,15,-1
 576 320 l 1,16,-1
 576 256 l 1,17,-1
 576 192 l 1,18,-1
 576 128 l 1,19,-1
 576 64 l 1,20,-1
 576 0 l 1,21,-1
 512 0 l 1,0,-1
128 0 m 1,22,-1
 64 0 l 1,23,-1
 64 64 l 1,24,-1
 64 128 l 1,25,-1
 64 192 l 1,26,-1
 64 256 l 1,27,-1
 64 320 l 1,28,-1
 64 384 l 1,29,-1
 64 448 l 1,30,-1
 64 512 l 1,31,-1
 128 512 l 1,32,-1
 128 576 l 1,33,-1
 128 640 l 1,34,-1
 192 640 l 1,35,-1
 256 640 l 1,36,-1
 256 576 l 1,37,-1
 192 576 l 1,38,-1
 192 512 l 1,39,-1
 192 448 l 1,40,-1
 192 384 l 1,41,-1
 192 320 l 1,42,-1
 256 320 l 1,43,-1
 256 256 l 1,44,-1
 192 256 l 1,45,-1
 192 192 l 1,46,-1
 128 192 l 1,47,-1
 128 128 l 1,48,-1
 128 64 l 1,49,-1
 192 64 l 1,50,-1
 192 0 l 1,51,-1
 128 0 l 1,22,-1
512 512 m 1,52,-1
 448 512 l 1,53,-1
 448 576 l 1,54,-1
 384 576 l 1,55,-1
 384 640 l 1,56,-1
 448 640 l 1,57,-1
 512 640 l 1,58,-1
 512 576 l 1,59,-1
 512 512 l 1,52,-1
384 640 m 1,60,-1
 320 640 l 1,61,-1
 256 640 l 1,62,-1
 256 704 l 1,63,-1
 320 704 l 1,64,-1
 384 704 l 1,65,-1
 384 640 l 1,60,-1
EndSplineSet
Validated: 5
EndChar

StartChar: B
Encoding: 66 66 37
Width: 640
Flags: W
LayerCount: 2
Fore
SplineSet
448 64 m 1,0,-1
 512 64 l 1,1,-1
 512 128 l 1,2,-1
 512 192 l 1,3,-1
 512 256 l 1,4,-1
 448 256 l 1,5,-1
 448 320 l 1,6,-1
 384 320 l 1,7,-1
 320 320 l 1,8,-1
 320 384 l 1,9,-1
 384 384 l 1,10,-1
 448 384 l 1,11,-1
 448 448 l 1,12,-1
 512 448 l 1,13,-1
 512 512 l 1,14,-1
 512 576 l 1,15,-1
 448 576 l 1,16,-1
 448 640 l 1,17,-1
 384 640 l 1,18,-1
 320 640 l 1,19,-1
 256 640 l 1,20,-1
 192 640 l 1,21,-1
 192 576 l 1,22,-1
 192 512 l 1,23,-1
 192 448 l 1,24,-1
 192 384 l 1,25,-1
 192 320 l 1,26,-1
 192 256 l 1,27,-1
 128 256 l 1,28,-1
 128 192 l 1,29,-1
 128 128 l 1,30,-1
 192 128 l 1,31,-1
 192 64 l 1,32,-1
 256 64 l 1,33,-1
 320 64 l 1,34,-1
 384 64 l 1,35,-1
 448 64 l 1,0,-1
448 0 m 1,36,-1
 384 0 l 1,37,-1
 320 0 l 1,38,-1
 256 0 l 1,39,-1
 192 0 l 1,40,-1
 128 0 l 1,41,-1
 128 64 l 1,42,-1
 64 64 l 1,43,-1
 64 128 l 1,44,-1
 64 192 l 1,45,-1
 64 256 l 1,46,-1
 64 320 l 1,47,-1
 64 384 l 1,48,-1
 64 448 l 1,49,-1
 64 512 l 1,50,-1
 64 576 l 1,51,-1
 64 640 l 1,52,-1
 64 704 l 1,53,-1
 128 704 l 1,54,-1
 192 704 l 1,55,-1
 256 704 l 1,56,-1
 320 704 l 1,57,-1
 384 704 l 1,58,-1
 448 704 l 1,59,-1
 512 704 l 1,60,-1
 512 640 l 1,61,-1
 576 640 l 1,62,-1
 576 576 l 1,63,-1
 576 512 l 1,64,-1
 576 448 l 1,65,-1
 512 448 l 1,66,-1
 512 384 l 1,67,-1
 512 320 l 1,68,-1
 512 256 l 1,69,-1
 576 256 l 1,70,-1
 576 192 l 1,71,-1
 576 128 l 1,72,-1
 576 64 l 1,73,-1
 512 64 l 1,74,-1
 512 0 l 1,75,-1
 448 0 l 1,36,-1
EndSplineSet
Validated: 5
EndChar

StartChar: C
Encoding: 67 67 38
Width: 640
Flags: W
LayerCount: 2
Fore
SplineSet
512 512 m 1,0,-1
 512 576 l 1,1,-1
 448 576 l 1,2,-1
 448 640 l 1,3,-1
 512 640 l 1,4,-1
 576 640 l 1,5,-1
 576 576 l 1,6,-1
 576 512 l 1,7,-1
 512 512 l 1,0,-1
384 64 m 1,8,-1
 448 64 l 1,9,-1
 448 0 l 1,10,-1
 384 0 l 1,11,-1
 320 0 l 1,12,-1
 256 0 l 1,13,-1
 192 0 l 1,14,-1
 128 0 l 1,15,-1
 128 64 l 1,16,-1
 64 64 l 1,17,-1
 64 128 l 1,18,-1
 64 192 l 1,19,-1
 64 256 l 1,20,-1
 64 320 l 1,21,-1
 64 384 l 1,22,-1
 64 448 l 1,23,-1
 64 512 l 1,24,-1
 64 576 l 1,25,-1
 128 576 l 1,26,-1
 128 640 l 1,27,-1
 192 640 l 1,28,-1
 192 576 l 1,29,-1
 192 512 l 1,30,-1
 192 448 l 1,31,-1
 192 384 l 1,32,-1
 192 320 l 1,33,-1
 192 256 l 1,34,-1
 128 256 l 1,35,-1
 128 192 l 1,36,-1
 128 128 l 1,37,-1
 192 128 l 1,38,-1
 192 64 l 1,39,-1
 256 64 l 1,40,-1
 320 64 l 1,41,-1
 384 64 l 1,8,-1
448 64 m 1,42,-1
 448 128 l 1,43,-1
 512 128 l 1,44,-1
 512 192 l 1,45,-1
 576 192 l 1,46,-1
 576 128 l 1,47,-1
 576 64 l 1,48,-1
 512 64 l 1,49,-1
 448 64 l 1,42,-1
448 640 m 1,50,-1
 384 640 l 1,51,-1
 320 640 l 1,52,-1
 256 640 l 1,53,-1
 192 640 l 1,54,-1
 192 704 l 1,55,-1
 256 704 l 1,56,-1
 320 704 l 1,57,-1
 384 704 l 1,58,-1
 448 704 l 1,59,-1
 448 640 l 1,50,-1
EndSplineSet
Validated: 5
EndChar

StartChar: D
Encoding: 68 68 39
Width: 640
Flags: W
LayerCount: 2
Fore
SplineSet
384 64 m 1,0,-1
 448 64 l 1,1,-1
 448 128 l 1,2,-1
 512 128 l 1,3,-1
 512 192 l 1,4,-1
 512 256 l 1,5,-1
 512 320 l 1,6,-1
 512 384 l 1,7,-1
 512 448 l 1,8,-1
 512 512 l 1,9,-1
 512 576 l 1,10,-1
 448 576 l 1,11,-1
 448 640 l 1,12,-1
 384 640 l 1,13,-1
 320 640 l 1,14,-1
 256 640 l 1,15,-1
 192 640 l 1,16,-1
 192 576 l 1,17,-1
 192 512 l 1,18,-1
 192 448 l 1,19,-1
 192 384 l 1,20,-1
 192 320 l 1,21,-1
 192 256 l 1,22,-1
 192 192 l 1,23,-1
 192 128 l 1,24,-1
 192 64 l 1,25,-1
 256 64 l 1,26,-1
 320 64 l 1,27,-1
 384 64 l 1,0,-1
384 0 m 1,28,-1
 320 0 l 1,29,-1
 256 0 l 1,30,-1
 192 0 l 1,31,-1
 128 0 l 1,32,-1
 128 64 l 1,33,-1
 64 64 l 1,34,-1
 64 128 l 1,35,-1
 64 192 l 1,36,-1
 64 256 l 1,37,-1
 64 320 l 1,38,-1
 64 384 l 1,39,-1
 64 448 l 1,40,-1
 64 512 l 1,41,-1
 64 576 l 1,42,-1
 64 640 l 1,43,-1
 64 704 l 1,44,-1
 128 704 l 1,45,-1
 192 704 l 1,46,-1
 256 704 l 1,47,-1
 320 704 l 1,48,-1
 384 704 l 1,49,-1
 448 704 l 1,50,-1
 448 640 l 1,51,-1
 512 640 l 1,52,-1
 576 640 l 1,53,-1
 576 576 l 1,54,-1
 576 512 l 1,55,-1
 576 448 l 1,56,-1
 576 384 l 1,57,-1
 576 320 l 1,58,-1
 576 256 l 1,59,-1
 576 192 l 1,60,-1
 576 128 l 1,61,-1
 576 64 l 1,62,-1
 512 64 l 1,63,-1
 448 64 l 1,64,-1
 448 0 l 1,65,-1
 384 0 l 1,28,-1
EndSplineSet
Validated: 5
EndChar

StartChar: E
Encoding: 69 69 40
Width: 640
Flags: W
LayerCount: 2
Fore
SplineSet
512 64 m 1,0,-1
 576 64 l 1,1,-1
 576 0 l 1,2,-1
 512 0 l 1,3,-1
 448 0 l 1,4,-1
 384 0 l 1,5,-1
 320 0 l 1,6,-1
 256 0 l 1,7,-1
 192 0 l 1,8,-1
 128 0 l 1,9,-1
 128 64 l 1,10,-1
 64 64 l 1,11,-1
 64 128 l 1,12,-1
 64 192 l 1,13,-1
 64 256 l 1,14,-1
 64 320 l 1,15,-1
 64 384 l 1,16,-1
 64 448 l 1,17,-1
 64 512 l 1,18,-1
 64 576 l 1,19,-1
 64 640 l 1,20,-1
 64 704 l 1,21,-1
 128 704 l 1,22,-1
 192 704 l 1,23,-1
 256 704 l 1,24,-1
 320 704 l 1,25,-1
 384 704 l 1,26,-1
 448 704 l 1,27,-1
 512 704 l 1,28,-1
 576 704 l 1,29,-1
 576 640 l 1,30,-1
 512 640 l 1,31,-1
 448 640 l 1,32,-1
 384 640 l 1,33,-1
 320 640 l 1,34,-1
 256 640 l 1,35,-1
 192 640 l 1,36,-1
 192 576 l 1,37,-1
 192 512 l 1,38,-1
 192 448 l 1,39,-1
 192 384 l 1,40,-1
 256 384 l 1,41,-1
 320 384 l 1,42,-1
 384 384 l 1,43,-1
 448 384 l 1,44,-1
 448 320 l 1,45,-1
 384 320 l 1,46,-1
 320 320 l 1,47,-1
 256 320 l 1,48,-1
 192 320 l 1,49,-1
 192 256 l 1,50,-1
 128 256 l 1,51,-1
 128 192 l 1,52,-1
 128 128 l 1,53,-1
 192 128 l 1,54,-1
 192 64 l 1,55,-1
 256 64 l 1,56,-1
 320 64 l 1,57,-1
 384 64 l 1,58,-1
 448 64 l 1,59,-1
 512 64 l 1,0,-1
EndSplineSet
Validated: 1
EndChar

StartChar: F
Encoding: 70 70 41
Width: 640
Flags: W
LayerCount: 2
Fore
SplineSet
128 0 m 1,0,-1
 64 0 l 1,1,-1
 64 64 l 1,2,-1
 64 128 l 1,3,-1
 64 192 l 1,4,-1
 64 256 l 1,5,-1
 64 320 l 1,6,-1
 64 384 l 1,7,-1
 64 448 l 1,8,-1
 64 512 l 1,9,-1
 64 576 l 1,10,-1
 64 640 l 1,11,-1
 64 704 l 1,12,-1
 128 704 l 1,13,-1
 192 704 l 1,14,-1
 256 704 l 1,15,-1
 320 704 l 1,16,-1
 384 704 l 1,17,-1
 448 704 l 1,18,-1
 512 704 l 1,19,-1
 576 704 l 1,20,-1
 576 640 l 1,21,-1
 512 640 l 1,22,-1
 448 640 l 1,23,-1
 384 640 l 1,24,-1
 320 640 l 1,25,-1
 256 640 l 1,26,-1
 192 640 l 1,27,-1
 192 576 l 1,28,-1
 192 512 l 1,29,-1
 192 448 l 1,30,-1
 192 384 l 1,31,-1
 256 384 l 1,32,-1
 320 384 l 1,33,-1
 384 384 l 1,34,-1
 448 384 l 1,35,-1
 448 320 l 1,36,-1
 384 320 l 1,37,-1
 320 320 l 1,38,-1
 256 320 l 1,39,-1
 192 320 l 1,40,-1
 192 256 l 1,41,-1
 192 192 l 1,42,-1
 128 192 l 1,43,-1
 128 128 l 1,44,-1
 128 64 l 1,45,-1
 192 64 l 1,46,-1
 192 0 l 1,47,-1
 128 0 l 1,0,-1
EndSplineSet
Validated: 1
EndChar

StartChar: G
Encoding: 71 71 42
Width: 640
Flags: W
LayerCount: 2
Fore
SplineSet
384 64 m 1,0,-1
 448 64 l 1,1,-1
 448 0 l 1,2,-1
 384 0 l 1,3,-1
 320 0 l 1,4,-1
 256 0 l 1,5,-1
 192 0 l 1,6,-1
 128 0 l 1,7,-1
 128 64 l 1,8,-1
 64 64 l 1,9,-1
 64 128 l 1,10,-1
 64 192 l 1,11,-1
 64 256 l 1,12,-1
 64 320 l 1,13,-1
 64 384 l 1,14,-1
 64 448 l 1,15,-1
 64 512 l 1,16,-1
 64 576 l 1,17,-1
 128 576 l 1,18,-1
 128 640 l 1,19,-1
 192 640 l 1,20,-1
 192 576 l 1,21,-1
 192 512 l 1,22,-1
 192 448 l 1,23,-1
 192 384 l 1,24,-1
 192 320 l 1,25,-1
 192 256 l 1,26,-1
 192 192 l 1,27,-1
 192 128 l 1,28,-1
 192 64 l 1,29,-1
 256 64 l 1,30,-1
 320 64 l 1,31,-1
 384 64 l 1,0,-1
448 64 m 1,32,-1
 448 128 l 1,33,-1
 512 128 l 1,34,-1
 512 192 l 1,35,-1
 512 256 l 1,36,-1
 448 256 l 1,37,-1
 384 256 l 1,38,-1
 320 256 l 1,39,-1
 320 320 l 1,40,-1
 384 320 l 1,41,-1
 448 320 l 1,42,-1
 512 320 l 1,43,-1
 576 320 l 1,44,-1
 576 256 l 1,45,-1
 576 192 l 1,46,-1
 576 128 l 1,47,-1
 576 64 l 1,48,-1
 512 64 l 1,49,-1
 448 64 l 1,32,-1
512 640 m 1,50,-1
 576 640 l 1,51,-1
 576 576 l 1,52,-1
 512 576 l 1,53,-1
 448 576 l 1,54,-1
 448 640 l 1,55,-1
 512 640 l 1,50,-1
448 640 m 1,56,-1
 384 640 l 1,57,-1
 320 640 l 1,58,-1
 256 640 l 1,59,-1
 192 640 l 1,60,-1
 192 704 l 1,61,-1
 256 704 l 1,62,-1
 320 704 l 1,63,-1
 384 704 l 1,64,-1
 448 704 l 1,65,-1
 448 640 l 1,56,-1
EndSplineSet
Validated: 5
EndChar

StartChar: H
Encoding: 72 72 43
Width: 640
Flags: W
LayerCount: 2
Fore
SplineSet
512 0 m 1,0,-1
 512 64 l 1,1,-1
 512 128 l 1,2,-1
 512 192 l 1,3,-1
 512 256 l 1,4,-1
 512 320 l 1,5,-1
 448 320 l 1,6,-1
 384 320 l 1,7,-1
 320 320 l 1,8,-1
 256 320 l 1,9,-1
 192 320 l 1,10,-1
 192 256 l 1,11,-1
 192 192 l 1,12,-1
 128 192 l 1,13,-1
 128 128 l 1,14,-1
 128 64 l 1,15,-1
 192 64 l 1,16,-1
 192 0 l 1,17,-1
 128 0 l 1,18,-1
 64 0 l 1,19,-1
 64 64 l 1,20,-1
 64 128 l 1,21,-1
 64 192 l 1,22,-1
 64 256 l 1,23,-1
 64 320 l 1,24,-1
 64 384 l 1,25,-1
 64 448 l 1,26,-1
 64 512 l 1,27,-1
 64 576 l 1,28,-1
 64 640 l 1,29,-1
 64 704 l 1,30,-1
 128 704 l 1,31,-1
 192 704 l 1,32,-1
 192 640 l 1,33,-1
 192 576 l 1,34,-1
 192 512 l 1,35,-1
 192 448 l 1,36,-1
 192 384 l 1,37,-1
 256 384 l 1,38,-1
 320 384 l 1,39,-1
 384 384 l 1,40,-1
 448 384 l 1,41,-1
 512 384 l 1,42,-1
 512 448 l 1,43,-1
 512 512 l 1,44,-1
 512 576 l 1,45,-1
 512 640 l 1,46,-1
 512 704 l 1,47,-1
 576 704 l 1,48,-1
 576 640 l 1,49,-1
 576 576 l 1,50,-1
 576 512 l 1,51,-1
 576 448 l 1,52,-1
 576 384 l 1,53,-1
 576 320 l 1,54,-1
 576 256 l 1,55,-1
 576 192 l 1,56,-1
 576 128 l 1,57,-1
 576 64 l 1,58,-1
 576 0 l 1,59,-1
 512 0 l 1,0,-1
EndSplineSet
Validated: 1
EndChar

StartChar: I
Encoding: 73 73 44
Width: 256
Flags: W
LayerCount: 2
Fore
SplineSet
128 0 m 1,0,-1
 64 0 l 1,1,-1
 64 64 l 1,2,-1
 64 128 l 1,3,-1
 64 192 l 1,4,-1
 64 256 l 1,5,-1
 64 320 l 1,6,-1
 64 384 l 1,7,-1
 64 448 l 1,8,-1
 64 512 l 1,9,-1
 64 576 l 1,10,-1
 128 576 l 1,11,-1
 128 512 l 1,12,-1
 192 512 l 1,13,-1
 192 448 l 1,14,-1
 192 384 l 1,15,-1
 192 320 l 1,16,-1
 192 256 l 1,17,-1
 192 192 l 1,18,-1
 192 128 l 1,19,-1
 192 64 l 1,20,-1
 192 0 l 1,21,-1
 128 0 l 1,0,-1
128 704 m 1,22,-1
 192 704 l 1,23,-1
 192 640 l 1,24,-1
 128 640 l 1,25,-1
 64 640 l 1,26,-1
 64 704 l 1,27,-1
 128 704 l 1,22,-1
EndSplineSet
Validated: 1
EndChar

StartChar: J
Encoding: 74 74 45
Width: 448
Flags: W
LayerCount: 2
Fore
SplineSet
256 0 m 1,0,-1
 192 0 l 1,1,-1
 128 0 l 1,2,-1
 128 64 l 1,3,-1
 64 64 l 1,4,-1
 64 128 l 1,5,-1
 64 192 l 1,6,-1
 64 256 l 1,7,-1
 128 256 l 1,8,-1
 128 192 l 1,9,-1
 128 128 l 1,10,-1
 192 128 l 1,11,-1
 192 64 l 1,12,-1
 256 64 l 1,13,-1
 256 128 l 1,14,-1
 320 128 l 1,15,-1
 320 192 l 1,16,-1
 256 192 l 1,17,-1
 256 256 l 1,18,-1
 256 320 l 1,19,-1
 256 384 l 1,20,-1
 256 448 l 1,21,-1
 256 512 l 1,22,-1
 256 576 l 1,23,-1
 256 640 l 1,24,-1
 256 704 l 1,25,-1
 320 704 l 1,26,-1
 384 704 l 1,27,-1
 384 640 l 1,28,-1
 384 576 l 1,29,-1
 384 512 l 1,30,-1
 384 448 l 1,31,-1
 384 384 l 1,32,-1
 384 320 l 1,33,-1
 384 256 l 1,34,-1
 384 192 l 1,35,-1
 384 128 l 1,36,-1
 384 64 l 1,37,-1
 320 64 l 1,38,-1
 320 0 l 1,39,-1
 256 0 l 1,0,-1
EndSplineSet
Validated: 1
EndChar

StartChar: K
Encoding: 75 75 46
Width: 640
Flags: W
LayerCount: 2
Fore
SplineSet
512 0 m 1,0,-1
 448 0 l 1,1,-1
 448 64 l 1,2,-1
 384 64 l 1,3,-1
 384 128 l 1,4,-1
 320 128 l 1,5,-1
 320 192 l 1,6,-1
 320 256 l 1,7,-1
 384 256 l 1,8,-1
 384 192 l 1,9,-1
 448 192 l 1,10,-1
 448 128 l 1,11,-1
 512 128 l 1,12,-1
 512 64 l 1,13,-1
 576 64 l 1,14,-1
 576 0 l 1,15,-1
 512 0 l 1,0,-1
128 0 m 1,16,-1
 64 0 l 1,17,-1
 64 64 l 1,18,-1
 64 128 l 1,19,-1
 64 192 l 1,20,-1
 64 256 l 1,21,-1
 64 320 l 1,22,-1
 64 384 l 1,23,-1
 64 448 l 1,24,-1
 64 512 l 1,25,-1
 64 576 l 1,26,-1
 64 640 l 1,27,-1
 64 704 l 1,28,-1
 128 704 l 1,29,-1
 128 640 l 1,30,-1
 192 640 l 1,31,-1
 192 576 l 1,32,-1
 192 512 l 1,33,-1
 192 448 l 1,34,-1
 128 448 l 1,35,-1
 128 384 l 1,36,-1
 192 384 l 1,37,-1
 192 448 l 1,38,-1
 256 448 l 1,39,-1
 256 384 l 1,40,-1
 256 320 l 1,41,-1
 320 320 l 1,42,-1
 320 256 l 1,43,-1
 256 256 l 1,44,-1
 256 320 l 1,45,-1
 192 320 l 1,46,-1
 192 256 l 1,47,-1
 192 192 l 1,48,-1
 128 192 l 1,49,-1
 128 128 l 1,50,-1
 128 64 l 1,51,-1
 192 64 l 1,52,-1
 192 0 l 1,53,-1
 128 0 l 1,16,-1
256 448 m 1,54,-1
 256 512 l 1,55,-1
 320 512 l 1,56,-1
 320 448 l 1,57,-1
 256 448 l 1,54,-1
320 512 m 1,58,-1
 320 576 l 1,59,-1
 384 576 l 1,60,-1
 384 640 l 1,61,-1
 448 640 l 1,62,-1
 448 576 l 1,63,-1
 448 512 l 1,64,-1
 384 512 l 1,65,-1
 320 512 l 1,58,-1
512 704 m 1,66,-1
 576 704 l 1,67,-1
 576 640 l 1,68,-1
 512 640 l 1,69,-1
 448 640 l 1,70,-1
 448 704 l 1,71,-1
 512 704 l 1,66,-1
EndSplineSet
Validated: 5
EndChar

StartChar: L
Encoding: 76 76 47
Width: 576
Flags: W
LayerCount: 2
Fore
SplineSet
448 64 m 1,0,-1
 512 64 l 1,1,-1
 512 0 l 1,2,-1
 448 0 l 1,3,-1
 384 0 l 1,4,-1
 320 0 l 1,5,-1
 256 0 l 1,6,-1
 192 0 l 1,7,-1
 128 0 l 1,8,-1
 128 64 l 1,9,-1
 64 64 l 1,10,-1
 64 128 l 1,11,-1
 64 192 l 1,12,-1
 64 256 l 1,13,-1
 64 320 l 1,14,-1
 64 384 l 1,15,-1
 64 448 l 1,16,-1
 64 512 l 1,17,-1
 64 576 l 1,18,-1
 64 640 l 1,19,-1
 64 704 l 1,20,-1
 128 704 l 1,21,-1
 128 640 l 1,22,-1
 128 576 l 1,23,-1
 192 576 l 1,24,-1
 192 512 l 1,25,-1
 192 448 l 1,26,-1
 192 384 l 1,27,-1
 192 320 l 1,28,-1
 192 256 l 1,29,-1
 128 256 l 1,30,-1
 128 192 l 1,31,-1
 128 128 l 1,32,-1
 192 128 l 1,33,-1
 192 64 l 1,34,-1
 256 64 l 1,35,-1
 320 64 l 1,36,-1
 384 64 l 1,37,-1
 448 64 l 1,0,-1
EndSplineSet
Validated: 1
EndChar

StartChar: M
Encoding: 77 77 48
Width: 832
Flags: W
LayerCount: 2
Fore
SplineSet
640 0 m 1,0,-1
 576 0 l 1,1,-1
 512 0 l 1,2,-1
 448 0 l 1,3,-1
 448 64 l 1,4,-1
 448 128 l 1,5,-1
 512 128 l 1,6,-1
 512 64 l 1,7,-1
 576 64 l 1,8,-1
 640 64 l 1,9,-1
 640 128 l 1,10,-1
 640 192 l 1,11,-1
 704 192 l 1,12,-1
 704 256 l 1,13,-1
 704 320 l 1,14,-1
 704 384 l 1,15,-1
 704 448 l 1,16,-1
 704 512 l 1,17,-1
 704 576 l 1,18,-1
 704 640 l 1,19,-1
 704 704 l 1,20,-1
 768 704 l 1,21,-1
 768 640 l 1,22,-1
 768 576 l 1,23,-1
 768 512 l 1,24,-1
 768 448 l 1,25,-1
 768 384 l 1,26,-1
 768 320 l 1,27,-1
 768 256 l 1,28,-1
 768 192 l 1,29,-1
 768 128 l 1,30,-1
 704 128 l 1,31,-1
 704 64 l 1,32,-1
 704 0 l 1,33,-1
 640 0 l 1,0,-1
320 0 m 1,34,-1
 256 0 l 1,35,-1
 192 0 l 1,36,-1
 128 0 l 1,37,-1
 128 64 l 1,38,-1
 128 128 l 1,39,-1
 64 128 l 1,40,-1
 64 192 l 1,41,-1
 64 256 l 1,42,-1
 64 320 l 1,43,-1
 64 384 l 1,44,-1
 64 448 l 1,45,-1
 64 512 l 1,46,-1
 64 576 l 1,47,-1
 64 640 l 1,48,-1
 64 704 l 1,49,-1
 128 704 l 1,50,-1
 192 704 l 1,51,-1
 192 640 l 1,52,-1
 192 576 l 1,53,-1
 192 512 l 1,54,-1
 192 448 l 1,55,-1
 192 384 l 1,56,-1
 192 320 l 1,57,-1
 192 256 l 1,58,-1
 192 192 l 1,59,-1
 192 128 l 1,60,-1
 192 64 l 1,61,-1
 256 64 l 1,62,-1
 320 64 l 1,63,-1
 320 128 l 1,64,-1
 384 128 l 1,65,-1
 384 64 l 1,66,-1
 384 0 l 1,67,-1
 320 0 l 1,34,-1
448 128 m 1,68,-1
 384 128 l 1,69,-1
 384 192 l 1,70,-1
 384 256 l 1,71,-1
 384 320 l 1,72,-1
 384 384 l 1,73,-1
 448 384 l 1,74,-1
 448 320 l 1,75,-1
 448 256 l 1,76,-1
 448 192 l 1,77,-1
 448 128 l 1,68,-1
EndSplineSet
Validated: 5
EndChar

StartChar: N
Encoding: 78 78 49
Width: 640
Flags: W
LayerCount: 2
Fore
SplineSet
512 0 m 1,0,-1
 512 64 l 1,1,-1
 512 128 l 1,2,-1
 512 192 l 1,3,-1
 512 256 l 1,4,-1
 448 256 l 1,5,-1
 448 320 l 1,6,-1
 384 320 l 1,7,-1
 384 384 l 1,8,-1
 448 384 l 1,9,-1
 512 384 l 1,10,-1
 512 448 l 1,11,-1
 512 512 l 1,12,-1
 512 576 l 1,13,-1
 512 640 l 1,14,-1
 512 704 l 1,15,-1
 576 704 l 1,16,-1
 576 640 l 1,17,-1
 576 576 l 1,18,-1
 576 512 l 1,19,-1
 576 448 l 1,20,-1
 576 384 l 1,21,-1
 576 320 l 1,22,-1
 576 256 l 1,23,-1
 576 192 l 1,24,-1
 576 128 l 1,25,-1
 576 64 l 1,26,-1
 576 0 l 1,27,-1
 512 0 l 1,0,-1
128 0 m 1,28,-1
 64 0 l 1,29,-1
 64 64 l 1,30,-1
 64 128 l 1,31,-1
 64 192 l 1,32,-1
 64 256 l 1,33,-1
 64 320 l 1,34,-1
 64 384 l 1,35,-1
 64 448 l 1,36,-1
 64 512 l 1,37,-1
 64 576 l 1,38,-1
 64 640 l 1,39,-1
 64 704 l 1,40,-1
 128 704 l 1,41,-1
 192 704 l 1,42,-1
 192 640 l 1,43,-1
 128 640 l 1,44,-1
 128 576 l 1,45,-1
 192 576 l 1,46,-1
 192 640 l 1,47,-1
 256 640 l 1,48,-1
 256 576 l 1,49,-1
 256 512 l 1,50,-1
 320 512 l 1,51,-1
 320 448 l 1,52,-1
 384 448 l 1,53,-1
 384 384 l 1,54,-1
 320 384 l 1,55,-1
 320 448 l 1,56,-1
 256 448 l 1,57,-1
 256 512 l 1,58,-1
 192 512 l 1,59,-1
 192 448 l 1,60,-1
 192 384 l 1,61,-1
 192 320 l 1,62,-1
 192 256 l 1,63,-1
 192 192 l 1,64,-1
 128 192 l 1,65,-1
 128 128 l 1,66,-1
 128 64 l 1,67,-1
 192 64 l 1,68,-1
 192 0 l 1,69,-1
 128 0 l 1,28,-1
EndSplineSet
Validated: 5
EndChar

StartChar: O
Encoding: 79 79 50
Width: 704
Flags: W
LayerCount: 2
Fore
SplineSet
448 64 m 1,0,-1
 512 64 l 1,1,-1
 512 0 l 1,2,-1
 448 0 l 1,3,-1
 384 0 l 1,4,-1
 320 0 l 1,5,-1
 256 0 l 1,6,-1
 192 0 l 1,7,-1
 192 64 l 1,8,-1
 256 64 l 1,9,-1
 320 64 l 1,10,-1
 384 64 l 1,11,-1
 448 64 l 1,0,-1
512 64 m 1,12,-1
 512 128 l 1,13,-1
 576 128 l 1,14,-1
 576 64 l 1,15,-1
 512 64 l 1,12,-1
192 64 m 1,16,-1
 128 64 l 1,17,-1
 128 128 l 1,18,-1
 64 128 l 1,19,-1
 64 192 l 1,20,-1
 64 256 l 1,21,-1
 64 320 l 1,22,-1
 64 384 l 1,23,-1
 64 448 l 1,24,-1
 64 512 l 1,25,-1
 64 576 l 1,26,-1
 128 576 l 1,27,-1
 128 640 l 1,28,-1
 192 640 l 1,29,-1
 192 576 l 1,30,-1
 192 512 l 1,31,-1
 192 448 l 1,32,-1
 192 384 l 1,33,-1
 192 320 l 1,34,-1
 192 256 l 1,35,-1
 192 192 l 1,36,-1
 192 128 l 1,37,-1
 192 64 l 1,16,-1
576 128 m 1,38,-1
 576 192 l 1,39,-1
 576 256 l 1,40,-1
 576 320 l 1,41,-1
 576 384 l 1,42,-1
 576 448 l 1,43,-1
 576 512 l 1,44,-1
 576 576 l 1,45,-1
 640 576 l 1,46,-1
 640 512 l 1,47,-1
 640 448 l 1,48,-1
 640 384 l 1,49,-1
 640 320 l 1,50,-1
 640 256 l 1,51,-1
 640 192 l 1,52,-1
 640 128 l 1,53,-1
 576 128 l 1,38,-1
576 576 m 1,54,-1
 512 576 l 1,55,-1
 512 640 l 1,56,-1
 576 640 l 1,57,-1
 576 576 l 1,54,-1
512 640 m 1,58,-1
 448 640 l 1,59,-1
 384 640 l 1,60,-1
 320 640 l 1,61,-1
 256 640 l 1,62,-1
 192 640 l 1,63,-1
 192 704 l 1,64,-1
 256 704 l 1,65,-1
 320 704 l 1,66,-1
 384 704 l 1,67,-1
 448 704 l 1,68,-1
 512 704 l 1,69,-1
 512 640 l 1,58,-1
EndSplineSet
Validated: 5
EndChar

StartChar: P
Encoding: 80 80 51
Width: 640
Flags: W
LayerCount: 2
Fore
SplineSet
128 0 m 1,0,-1
 64 0 l 1,1,-1
 64 64 l 1,2,-1
 64 128 l 1,3,-1
 64 192 l 1,4,-1
 64 256 l 1,5,-1
 64 320 l 1,6,-1
 64 384 l 1,7,-1
 64 448 l 1,8,-1
 64 512 l 1,9,-1
 64 576 l 1,10,-1
 64 640 l 1,11,-1
 64 704 l 1,12,-1
 128 704 l 1,13,-1
 192 704 l 1,14,-1
 256 704 l 1,15,-1
 320 704 l 1,16,-1
 384 704 l 1,17,-1
 448 704 l 1,18,-1
 512 704 l 1,19,-1
 512 640 l 1,20,-1
 576 640 l 1,21,-1
 576 576 l 1,22,-1
 576 512 l 1,23,-1
 576 448 l 1,24,-1
 576 384 l 1,25,-1
 512 384 l 1,26,-1
 512 448 l 1,27,-1
 512 512 l 1,28,-1
 512 576 l 1,29,-1
 512 640 l 1,30,-1
 448 640 l 1,31,-1
 384 640 l 1,32,-1
 320 640 l 1,33,-1
 256 640 l 1,34,-1
 192 640 l 1,35,-1
 192 576 l 1,36,-1
 192 512 l 1,37,-1
 192 448 l 1,38,-1
 192 384 l 1,39,-1
 256 384 l 1,40,-1
 320 384 l 1,41,-1
 384 384 l 1,42,-1
 448 384 l 1,43,-1
 512 384 l 1,44,-1
 512 320 l 1,45,-1
 448 320 l 1,46,-1
 384 320 l 1,47,-1
 320 320 l 1,48,-1
 256 320 l 1,49,-1
 192 320 l 1,50,-1
 128 320 l 1,51,-1
 128 256 l 1,52,-1
 128 192 l 1,53,-1
 128 128 l 1,54,-1
 128 64 l 1,55,-1
 192 64 l 1,56,-1
 192 0 l 1,57,-1
 128 0 l 1,0,-1
EndSplineSet
Validated: 5
EndChar

StartChar: Q
Encoding: 81 81 52
Width: 768
Flags: W
LayerCount: 2
Fore
SplineSet
640 64 m 1,0,-1
 704 64 l 1,1,-1
 704 0 l 1,2,-1
 640 0 l 1,3,-1
 576 0 l 1,4,-1
 512 0 l 1,5,-1
 448 0 l 1,6,-1
 384 0 l 1,7,-1
 320 0 l 1,8,-1
 256 0 l 1,9,-1
 192 0 l 1,10,-1
 192 64 l 1,11,-1
 256 64 l 1,12,-1
 320 64 l 1,13,-1
 384 64 l 1,14,-1
 384 128 l 1,15,-1
 448 128 l 1,16,-1
 448 64 l 1,17,-1
 512 64 l 1,18,-1
 512 128 l 1,19,-1
 576 128 l 1,20,-1
 576 64 l 1,21,-1
 640 64 l 1,0,-1
192 64 m 1,22,-1
 128 64 l 1,23,-1
 128 128 l 1,24,-1
 64 128 l 1,25,-1
 64 192 l 1,26,-1
 64 256 l 1,27,-1
 64 320 l 1,28,-1
 64 384 l 1,29,-1
 64 448 l 1,30,-1
 64 512 l 1,31,-1
 64 576 l 1,32,-1
 128 576 l 1,33,-1
 128 640 l 1,34,-1
 192 640 l 1,35,-1
 192 576 l 1,36,-1
 192 512 l 1,37,-1
 192 448 l 1,38,-1
 192 384 l 1,39,-1
 192 320 l 1,40,-1
 192 256 l 1,41,-1
 192 192 l 1,42,-1
 192 128 l 1,43,-1
 192 64 l 1,22,-1
576 128 m 1,44,-1
 576 192 l 1,45,-1
 576 256 l 1,46,-1
 576 320 l 1,47,-1
 576 384 l 1,48,-1
 576 448 l 1,49,-1
 576 512 l 1,50,-1
 576 576 l 1,51,-1
 640 576 l 1,52,-1
 640 512 l 1,53,-1
 640 448 l 1,54,-1
 640 384 l 1,55,-1
 640 320 l 1,56,-1
 640 256 l 1,57,-1
 640 192 l 1,58,-1
 640 128 l 1,59,-1
 576 128 l 1,44,-1
576 576 m 1,60,-1
 512 576 l 1,61,-1
 512 640 l 1,62,-1
 576 640 l 1,63,-1
 576 576 l 1,60,-1
512 640 m 1,64,-1
 448 640 l 1,65,-1
 384 640 l 1,66,-1
 320 640 l 1,67,-1
 256 640 l 1,68,-1
 192 640 l 1,69,-1
 192 704 l 1,70,-1
 256 704 l 1,71,-1
 320 704 l 1,72,-1
 384 704 l 1,73,-1
 448 704 l 1,74,-1
 512 704 l 1,75,-1
 512 640 l 1,64,-1
EndSplineSet
Validated: 5
EndChar

StartChar: R
Encoding: 82 82 53
Width: 640
Flags: W
LayerCount: 2
Fore
SplineSet
512 0 m 1,0,-1
 448 0 l 1,1,-1
 448 64 l 1,2,-1
 448 128 l 1,3,-1
 448 192 l 1,4,-1
 384 192 l 1,5,-1
 384 256 l 1,6,-1
 384 320 l 1,7,-1
 320 320 l 1,8,-1
 256 320 l 1,9,-1
 192 320 l 1,10,-1
 128 320 l 1,11,-1
 128 256 l 1,12,-1
 128 192 l 1,13,-1
 128 128 l 1,14,-1
 128 64 l 1,15,-1
 192 64 l 1,16,-1
 192 0 l 1,17,-1
 128 0 l 1,18,-1
 64 0 l 1,19,-1
 64 64 l 1,20,-1
 64 128 l 1,21,-1
 64 192 l 1,22,-1
 64 256 l 1,23,-1
 64 320 l 1,24,-1
 64 384 l 1,25,-1
 64 448 l 1,26,-1
 64 512 l 1,27,-1
 64 576 l 1,28,-1
 64 640 l 1,29,-1
 64 704 l 1,30,-1
 128 704 l 1,31,-1
 192 704 l 1,32,-1
 256 704 l 1,33,-1
 320 704 l 1,34,-1
 384 704 l 1,35,-1
 448 704 l 1,36,-1
 512 704 l 1,37,-1
 512 640 l 1,38,-1
 576 640 l 1,39,-1
 576 576 l 1,40,-1
 576 512 l 1,41,-1
 576 448 l 1,42,-1
 576 384 l 1,43,-1
 512 384 l 1,44,-1
 512 448 l 1,45,-1
 512 512 l 1,46,-1
 512 576 l 1,47,-1
 512 640 l 1,48,-1
 448 640 l 1,49,-1
 384 640 l 1,50,-1
 320 640 l 1,51,-1
 256 640 l 1,52,-1
 192 640 l 1,53,-1
 192 576 l 1,54,-1
 192 512 l 1,55,-1
 192 448 l 1,56,-1
 192 384 l 1,57,-1
 256 384 l 1,58,-1
 320 384 l 1,59,-1
 384 384 l 1,60,-1
 448 384 l 1,61,-1
 512 384 l 1,62,-1
 512 320 l 1,63,-1
 448 320 l 1,64,-1
 448 256 l 1,65,-1
 512 256 l 1,66,-1
 512 192 l 1,67,-1
 576 192 l 1,68,-1
 576 128 l 1,69,-1
 576 64 l 1,70,-1
 576 0 l 1,71,-1
 512 0 l 1,0,-1
EndSplineSet
Validated: 5
EndChar

StartChar: S
Encoding: 83 83 54
Width: 640
Flags: W
LayerCount: 2
Fore
SplineSet
512 512 m 1,0,-1
 512 576 l 1,1,-1
 448 576 l 1,2,-1
 448 640 l 1,3,-1
 384 640 l 1,4,-1
 320 640 l 1,5,-1
 256 640 l 1,6,-1
 192 640 l 1,7,-1
 192 576 l 1,8,-1
 192 512 l 1,9,-1
 192 448 l 1,10,-1
 256 448 l 1,11,-1
 320 448 l 1,12,-1
 384 448 l 1,13,-1
 448 448 l 1,14,-1
 448 384 l 1,15,-1
 512 384 l 1,16,-1
 576 384 l 1,17,-1
 576 320 l 1,18,-1
 576 256 l 1,19,-1
 576 192 l 1,20,-1
 576 128 l 1,21,-1
 576 64 l 1,22,-1
 512 64 l 1,23,-1
 512 0 l 1,24,-1
 448 0 l 1,25,-1
 384 0 l 1,26,-1
 320 0 l 1,27,-1
 256 0 l 1,28,-1
 192 0 l 1,29,-1
 128 0 l 1,30,-1
 128 64 l 1,31,-1
 64 64 l 1,32,-1
 64 128 l 1,33,-1
 64 192 l 1,34,-1
 128 192 l 1,35,-1
 128 128 l 1,36,-1
 192 128 l 1,37,-1
 192 64 l 1,38,-1
 256 64 l 1,39,-1
 320 64 l 1,40,-1
 384 64 l 1,41,-1
 448 64 l 1,42,-1
 448 128 l 1,43,-1
 448 192 l 1,44,-1
 448 256 l 1,45,-1
 448 320 l 1,46,-1
 448 384 l 1,47,-1
 384 384 l 1,48,-1
 320 384 l 1,49,-1
 256 384 l 1,50,-1
 192 384 l 1,51,-1
 128 384 l 1,52,-1
 128 448 l 1,53,-1
 64 448 l 1,54,-1
 64 512 l 1,55,-1
 64 576 l 1,56,-1
 64 640 l 1,57,-1
 128 640 l 1,58,-1
 128 704 l 1,59,-1
 192 704 l 1,60,-1
 256 704 l 1,61,-1
 320 704 l 1,62,-1
 384 704 l 1,63,-1
 448 704 l 1,64,-1
 512 704 l 1,65,-1
 512 640 l 1,66,-1
 576 640 l 1,67,-1
 576 576 l 1,68,-1
 576 512 l 1,69,-1
 512 512 l 1,0,-1
EndSplineSet
Validated: 5
EndChar

StartChar: T
Encoding: 84 84 55
Width: 640
Flags: W
LayerCount: 2
Fore
SplineSet
320 0 m 1,0,-1
 256 0 l 1,1,-1
 256 64 l 1,2,-1
 256 128 l 1,3,-1
 256 192 l 1,4,-1
 256 256 l 1,5,-1
 256 320 l 1,6,-1
 256 384 l 1,7,-1
 256 448 l 1,8,-1
 256 512 l 1,9,-1
 256 576 l 1,10,-1
 256 640 l 1,11,-1
 192 640 l 1,12,-1
 128 640 l 1,13,-1
 64 640 l 1,14,-1
 64 704 l 1,15,-1
 128 704 l 1,16,-1
 192 704 l 1,17,-1
 256 704 l 1,18,-1
 320 704 l 1,19,-1
 384 704 l 1,20,-1
 448 704 l 1,21,-1
 512 704 l 1,22,-1
 576 704 l 1,23,-1
 576 640 l 1,24,-1
 512 640 l 1,25,-1
 448 640 l 1,26,-1
 384 640 l 1,27,-1
 384 576 l 1,28,-1
 384 512 l 1,29,-1
 384 448 l 1,30,-1
 384 384 l 1,31,-1
 384 320 l 1,32,-1
 384 256 l 1,33,-1
 384 192 l 1,34,-1
 384 128 l 1,35,-1
 384 64 l 1,36,-1
 384 0 l 1,37,-1
 320 0 l 1,0,-1
EndSplineSet
Validated: 1
EndChar

StartChar: U
Encoding: 85 85 56
Width: 704
Flags: W
LayerCount: 2
Fore
SplineSet
384 64 m 1,0,-1
 448 64 l 1,1,-1
 448 0 l 1,2,-1
 384 0 l 1,3,-1
 320 0 l 1,4,-1
 256 0 l 1,5,-1
 256 64 l 1,6,-1
 320 64 l 1,7,-1
 384 64 l 1,0,-1
448 64 m 1,8,-1
 448 128 l 1,9,-1
 512 128 l 1,10,-1
 512 192 l 1,11,-1
 576 192 l 1,12,-1
 576 128 l 1,13,-1
 576 64 l 1,14,-1
 512 64 l 1,15,-1
 448 64 l 1,8,-1
256 64 m 1,16,-1
 192 64 l 1,17,-1
 128 64 l 1,18,-1
 128 128 l 1,19,-1
 128 192 l 1,20,-1
 64 192 l 1,21,-1
 64 256 l 1,22,-1
 64 320 l 1,23,-1
 64 384 l 1,24,-1
 64 448 l 1,25,-1
 64 512 l 1,26,-1
 64 576 l 1,27,-1
 64 640 l 1,28,-1
 64 704 l 1,29,-1
 128 704 l 1,30,-1
 192 704 l 1,31,-1
 192 640 l 1,32,-1
 192 576 l 1,33,-1
 192 512 l 1,34,-1
 192 448 l 1,35,-1
 192 384 l 1,36,-1
 192 320 l 1,37,-1
 192 256 l 1,38,-1
 192 192 l 1,39,-1
 192 128 l 1,40,-1
 256 128 l 1,41,-1
 256 64 l 1,16,-1
576 192 m 1,42,-1
 576 256 l 1,43,-1
 576 320 l 1,44,-1
 576 384 l 1,45,-1
 576 448 l 1,46,-1
 576 512 l 1,47,-1
 576 576 l 1,48,-1
 576 640 l 1,49,-1
 576 704 l 1,50,-1
 640 704 l 1,51,-1
 640 640 l 1,52,-1
 640 576 l 1,53,-1
 640 512 l 1,54,-1
 640 448 l 1,55,-1
 640 384 l 1,56,-1
 640 320 l 1,57,-1
 640 256 l 1,58,-1
 640 192 l 1,59,-1
 576 192 l 1,42,-1
EndSplineSet
Validated: 5
EndChar

StartChar: V
Encoding: 86 86 57
Width: 704
Flags: W
LayerCount: 2
Fore
SplineSet
384 0 m 1,0,-1
 320 0 l 1,1,-1
 256 0 l 1,2,-1
 256 64 l 1,3,-1
 192 64 l 1,4,-1
 192 128 l 1,5,-1
 128 128 l 1,6,-1
 128 192 l 1,7,-1
 128 256 l 1,8,-1
 64 256 l 1,9,-1
 64 320 l 1,10,-1
 64 384 l 1,11,-1
 64 448 l 1,12,-1
 64 512 l 1,13,-1
 64 576 l 1,14,-1
 64 640 l 1,15,-1
 64 704 l 1,16,-1
 128 704 l 1,17,-1
 192 704 l 1,18,-1
 192 640 l 1,19,-1
 192 576 l 1,20,-1
 192 512 l 1,21,-1
 192 448 l 1,22,-1
 192 384 l 1,23,-1
 192 320 l 1,24,-1
 192 256 l 1,25,-1
 256 256 l 1,26,-1
 256 192 l 1,27,-1
 256 128 l 1,28,-1
 320 128 l 1,29,-1
 320 64 l 1,30,-1
 384 64 l 1,31,-1
 384 128 l 1,32,-1
 448 128 l 1,33,-1
 448 192 l 1,34,-1
 448 256 l 1,35,-1
 512 256 l 1,36,-1
 576 256 l 1,37,-1
 576 192 l 1,38,-1
 576 128 l 1,39,-1
 512 128 l 1,40,-1
 512 64 l 1,41,-1
 448 64 l 1,42,-1
 448 0 l 1,43,-1
 384 0 l 1,0,-1
576 256 m 1,44,-1
 576 320 l 1,45,-1
 576 384 l 1,46,-1
 576 448 l 1,47,-1
 576 512 l 1,48,-1
 576 576 l 1,49,-1
 576 640 l 1,50,-1
 576 704 l 1,51,-1
 640 704 l 1,52,-1
 640 640 l 1,53,-1
 640 576 l 1,54,-1
 640 512 l 1,55,-1
 640 448 l 1,56,-1
 640 384 l 1,57,-1
 640 320 l 1,58,-1
 640 256 l 1,59,-1
 576 256 l 1,44,-1
EndSplineSet
Validated: 5
EndChar

StartChar: W
Encoding: 87 87 58
Width: 832
Flags: W
LayerCount: 2
Fore
SplineSet
640 0 m 1,0,-1
 576 0 l 1,1,-1
 512 0 l 1,2,-1
 448 0 l 1,3,-1
 448 64 l 1,4,-1
 448 128 l 1,5,-1
 512 128 l 1,6,-1
 512 64 l 1,7,-1
 576 64 l 1,8,-1
 640 64 l 1,9,-1
 640 128 l 1,10,-1
 640 192 l 1,11,-1
 704 192 l 1,12,-1
 704 256 l 1,13,-1
 704 320 l 1,14,-1
 704 384 l 1,15,-1
 704 448 l 1,16,-1
 704 512 l 1,17,-1
 704 576 l 1,18,-1
 704 640 l 1,19,-1
 704 704 l 1,20,-1
 768 704 l 1,21,-1
 768 640 l 1,22,-1
 768 576 l 1,23,-1
 768 512 l 1,24,-1
 768 448 l 1,25,-1
 768 384 l 1,26,-1
 768 320 l 1,27,-1
 768 256 l 1,28,-1
 768 192 l 1,29,-1
 768 128 l 1,30,-1
 704 128 l 1,31,-1
 704 64 l 1,32,-1
 704 0 l 1,33,-1
 640 0 l 1,0,-1
320 0 m 1,34,-1
 256 0 l 1,35,-1
 192 0 l 1,36,-1
 128 0 l 1,37,-1
 128 64 l 1,38,-1
 128 128 l 1,39,-1
 64 128 l 1,40,-1
 64 192 l 1,41,-1
 64 256 l 1,42,-1
 64 320 l 1,43,-1
 64 384 l 1,44,-1
 64 448 l 1,45,-1
 64 512 l 1,46,-1
 64 576 l 1,47,-1
 64 640 l 1,48,-1
 64 704 l 1,49,-1
 128 704 l 1,50,-1
 192 704 l 1,51,-1
 192 640 l 1,52,-1
 192 576 l 1,53,-1
 192 512 l 1,54,-1
 192 448 l 1,55,-1
 192 384 l 1,56,-1
 192 320 l 1,57,-1
 192 256 l 1,58,-1
 192 192 l 1,59,-1
 192 128 l 1,60,-1
 192 64 l 1,61,-1
 256 64 l 1,62,-1
 320 64 l 1,63,-1
 320 128 l 1,64,-1
 384 128 l 1,65,-1
 384 64 l 1,66,-1
 384 0 l 1,67,-1
 320 0 l 1,34,-1
448 128 m 1,68,-1
 384 128 l 1,69,-1
 384 192 l 1,70,-1
 384 256 l 1,71,-1
 384 320 l 1,72,-1
 384 384 l 1,73,-1
 448 384 l 1,74,-1
 448 320 l 1,75,-1
 448 256 l 1,76,-1
 448 192 l 1,77,-1
 448 128 l 1,68,-1
EndSplineSet
Validated: 5
EndChar

StartChar: X
Encoding: 88 88 59
Width: 704
Flags: W
LayerCount: 2
Fore
SplineSet
576 0 m 1,0,-1
 512 0 l 1,1,-1
 512 64 l 1,2,-1
 512 128 l 1,3,-1
 512 192 l 1,4,-1
 576 192 l 1,5,-1
 576 128 l 1,6,-1
 640 128 l 1,7,-1
 640 64 l 1,8,-1
 640 0 l 1,9,-1
 576 0 l 1,0,-1
128 0 m 1,10,-1
 64 0 l 1,11,-1
 64 64 l 1,12,-1
 64 128 l 1,13,-1
 128 128 l 1,14,-1
 128 64 l 1,15,-1
 192 64 l 1,16,-1
 192 0 l 1,17,-1
 128 0 l 1,10,-1
128 128 m 1,18,-1
 128 192 l 1,19,-1
 128 256 l 1,20,-1
 128 320 l 1,21,-1
 192 320 l 1,22,-1
 256 320 l 1,23,-1
 256 256 l 1,24,-1
 256 192 l 1,25,-1
 192 192 l 1,26,-1
 192 128 l 1,27,-1
 128 128 l 1,18,-1
512 192 m 1,28,-1
 448 192 l 1,29,-1
 448 256 l 1,30,-1
 448 320 l 1,31,-1
 512 320 l 1,32,-1
 512 256 l 1,33,-1
 512 192 l 1,28,-1
448 320 m 1,34,-1
 384 320 l 1,35,-1
 384 384 l 1,36,-1
 320 384 l 1,37,-1
 320 320 l 1,38,-1
 256 320 l 1,39,-1
 256 384 l 1,40,-1
 256 448 l 1,41,-1
 320 448 l 1,42,-1
 384 448 l 1,43,-1
 448 448 l 1,44,-1
 448 384 l 1,45,-1
 448 320 l 1,34,-1
448 448 m 1,46,-1
 448 512 l 1,47,-1
 448 576 l 1,48,-1
 512 576 l 1,49,-1
 512 512 l 1,50,-1
 512 448 l 1,51,-1
 448 448 l 1,46,-1
256 448 m 1,52,-1
 192 448 l 1,53,-1
 128 448 l 1,54,-1
 128 512 l 1,55,-1
 128 576 l 1,56,-1
 64 576 l 1,57,-1
 64 640 l 1,58,-1
 64 704 l 1,59,-1
 128 704 l 1,60,-1
 192 704 l 1,61,-1
 192 640 l 1,62,-1
 192 576 l 1,63,-1
 256 576 l 1,64,-1
 256 512 l 1,65,-1
 256 448 l 1,52,-1
512 576 m 1,66,-1
 512 640 l 1,67,-1
 512 704 l 1,68,-1
 576 704 l 1,69,-1
 640 704 l 1,70,-1
 640 640 l 1,71,-1
 640 576 l 1,72,-1
 576 576 l 1,73,-1
 512 576 l 1,66,-1
EndSplineSet
Validated: 5
EndChar

StartChar: Y
Encoding: 89 89 60
Width: 704
Flags: W
LayerCount: 2
Fore
SplineSet
384 0 m 1,0,-1
 320 0 l 1,1,-1
 256 0 l 1,2,-1
 256 64 l 1,3,-1
 256 128 l 1,4,-1
 256 192 l 1,5,-1
 256 256 l 1,6,-1
 256 320 l 1,7,-1
 256 384 l 1,8,-1
 256 448 l 1,9,-1
 320 448 l 1,10,-1
 384 448 l 1,11,-1
 448 448 l 1,12,-1
 448 384 l 1,13,-1
 448 320 l 1,14,-1
 384 320 l 1,15,-1
 384 384 l 1,16,-1
 320 384 l 1,17,-1
 320 320 l 1,18,-1
 384 320 l 1,19,-1
 384 256 l 1,20,-1
 384 192 l 1,21,-1
 384 128 l 1,22,-1
 384 64 l 1,23,-1
 448 64 l 1,24,-1
 448 0 l 1,25,-1
 384 0 l 1,0,-1
448 448 m 1,26,-1
 448 512 l 1,27,-1
 448 576 l 1,28,-1
 512 576 l 1,29,-1
 512 512 l 1,30,-1
 512 448 l 1,31,-1
 448 448 l 1,26,-1
256 448 m 1,32,-1
 192 448 l 1,33,-1
 128 448 l 1,34,-1
 128 512 l 1,35,-1
 128 576 l 1,36,-1
 64 576 l 1,37,-1
 64 640 l 1,38,-1
 64 704 l 1,39,-1
 128 704 l 1,40,-1
 192 704 l 1,41,-1
 192 640 l 1,42,-1
 192 576 l 1,43,-1
 256 576 l 1,44,-1
 256 512 l 1,45,-1
 256 448 l 1,32,-1
512 576 m 1,46,-1
 512 640 l 1,47,-1
 512 704 l 1,48,-1
 576 704 l 1,49,-1
 640 704 l 1,50,-1
 640 640 l 1,51,-1
 640 576 l 1,52,-1
 576 576 l 1,53,-1
 512 576 l 1,46,-1
EndSplineSet
Validated: 5
EndChar

StartChar: Z
Encoding: 90 90 61
Width: 640
Flags: W
LayerCount: 2
Fore
SplineSet
512 0 m 1,0,-1
 448 0 l 1,1,-1
 384 0 l 1,2,-1
 320 0 l 1,3,-1
 256 0 l 1,4,-1
 192 0 l 1,5,-1
 128 0 l 1,6,-1
 64 0 l 1,7,-1
 64 64 l 1,8,-1
 64 128 l 1,9,-1
 128 128 l 1,10,-1
 128 192 l 1,11,-1
 192 192 l 1,12,-1
 192 128 l 1,13,-1
 192 64 l 1,14,-1
 256 64 l 1,15,-1
 320 64 l 1,16,-1
 384 64 l 1,17,-1
 448 64 l 1,18,-1
 512 64 l 1,19,-1
 512 128 l 1,20,-1
 576 128 l 1,21,-1
 576 64 l 1,22,-1
 576 0 l 1,23,-1
 512 0 l 1,0,-1
192 192 m 1,24,-1
 192 256 l 1,25,-1
 192 320 l 1,26,-1
 128 320 l 1,27,-1
 128 384 l 1,28,-1
 192 384 l 1,29,-1
 256 384 l 1,30,-1
 320 384 l 1,31,-1
 320 448 l 1,32,-1
 384 448 l 1,33,-1
 384 384 l 1,34,-1
 448 384 l 1,35,-1
 512 384 l 1,36,-1
 512 320 l 1,37,-1
 448 320 l 1,38,-1
 384 320 l 1,39,-1
 320 320 l 1,40,-1
 320 256 l 1,41,-1
 256 256 l 1,42,-1
 256 192 l 1,43,-1
 192 192 l 1,24,-1
384 448 m 1,44,-1
 384 512 l 1,45,-1
 448 512 l 1,46,-1
 448 448 l 1,47,-1
 384 448 l 1,44,-1
448 512 m 1,48,-1
 448 576 l 1,49,-1
 512 576 l 1,50,-1
 512 512 l 1,51,-1
 448 512 l 1,48,-1
128 512 m 1,52,-1
 64 512 l 1,53,-1
 64 576 l 1,54,-1
 64 640 l 1,55,-1
 128 640 l 1,56,-1
 128 704 l 1,57,-1
 192 704 l 1,58,-1
 256 704 l 1,59,-1
 320 704 l 1,60,-1
 384 704 l 1,61,-1
 448 704 l 1,62,-1
 512 704 l 1,63,-1
 576 704 l 1,64,-1
 576 640 l 1,65,-1
 576 576 l 1,66,-1
 512 576 l 1,67,-1
 512 640 l 1,68,-1
 448 640 l 1,69,-1
 384 640 l 1,70,-1
 320 640 l 1,71,-1
 256 640 l 1,72,-1
 192 640 l 1,73,-1
 192 576 l 1,74,-1
 192 512 l 1,75,-1
 128 512 l 1,52,-1
EndSplineSet
Validated: 5
EndChar

StartChar: bracketleft
Encoding: 91 91 62
Width: 256
Flags: W
LayerCount: 2
Fore
SplineSet
128 -64 m 1,0,-1
 192 -64 l 1,1,-1
 192 -128 l 1,2,-1
 128 -128 l 1,3,-1
 64 -128 l 1,4,-1
 64 -64 l 1,5,-1
 128 -64 l 1,0,-1
64 -64 m 1,6,-1
 0 -64 l 1,7,-1
 0 0 l 1,8,-1
 0 64 l 1,9,-1
 0 128 l 1,10,-1
 0 192 l 1,11,-1
 0 256 l 1,12,-1
 0 320 l 1,13,-1
 0 384 l 1,14,-1
 0 448 l 1,15,-1
 0 512 l 1,16,-1
 0 576 l 1,17,-1
 0 640 l 1,18,-1
 64 640 l 1,19,-1
 64 576 l 1,20,-1
 64 512 l 1,21,-1
 64 448 l 1,22,-1
 64 384 l 1,23,-1
 64 320 l 1,24,-1
 64 256 l 1,25,-1
 64 192 l 1,26,-1
 64 128 l 1,27,-1
 64 64 l 1,28,-1
 64 0 l 1,29,-1
 64 -64 l 1,6,-1
128 704 m 1,30,-1
 192 704 l 1,31,-1
 192 640 l 1,32,-1
 128 640 l 1,33,-1
 64 640 l 1,34,-1
 64 704 l 1,35,-1
 128 704 l 1,30,-1
EndSplineSet
Validated: 5
EndChar

StartChar: bracketright
Encoding: 93 93 63
Width: 320
Flags: W
LayerCount: 2
Fore
SplineSet
128 -64 m 1,0,-1
 192 -64 l 1,1,-1
 192 -128 l 1,2,-1
 128 -128 l 1,3,-1
 64 -128 l 1,4,-1
 64 -64 l 1,5,-1
 128 -64 l 1,0,-1
192 -64 m 1,6,-1
 192 0 l 1,7,-1
 192 64 l 1,8,-1
 192 128 l 1,9,-1
 192 192 l 1,10,-1
 192 256 l 1,11,-1
 192 320 l 1,12,-1
 192 384 l 1,13,-1
 192 448 l 1,14,-1
 192 512 l 1,15,-1
 192 576 l 1,16,-1
 192 640 l 1,17,-1
 256 640 l 1,18,-1
 256 576 l 1,19,-1
 256 512 l 1,20,-1
 256 448 l 1,21,-1
 256 384 l 1,22,-1
 256 320 l 1,23,-1
 256 256 l 1,24,-1
 256 192 l 1,25,-1
 256 128 l 1,26,-1
 256 64 l 1,27,-1
 256 0 l 1,28,-1
 256 -64 l 1,29,-1
 192 -64 l 1,6,-1
192 640 m 1,30,-1
 128 640 l 1,31,-1
 64 640 l 1,32,-1
 64 704 l 1,33,-1
 128 704 l 1,34,-1
 192 704 l 1,35,-1
 192 640 l 1,30,-1
EndSplineSet
Validated: 5
EndChar

StartChar: underscore
Encoding: 95 95 65
Width: 576
Flags: W
LayerCount: 2
Fore
SplineSet
0 -128 m 1,0,-1
 0 -64 l 1,1,-1
 0 0 l 1,2,-1
 64 0 l 1,3,-1
 128 0 l 1,4,-1
 192 0 l 1,5,-1
 256 0 l 1,6,-1
 320 0 l 1,7,-1
 384 0 l 1,8,-1
 448 0 l 1,9,-1
 512 0 l 1,10,-1
 512 -64 l 1,11,-1
 448 -64 l 1,12,-1
 384 -64 l 1,13,-1
 320 -64 l 1,14,-1
 256 -64 l 1,15,-1
 192 -64 l 1,16,-1
 128 -64 l 1,17,-1
 64 -64 l 1,18,-1
 64 -128 l 1,19,-1
 0 -128 l 1,0,-1
EndSplineSet
Validated: 1
EndChar

StartChar: grave
Encoding: 96 96 66
Width: 256
Flags: W
LayerCount: 2
Fore
SplineSet
128 576 m 1,0,-1
 128 640 l 1,1,-1
 192 640 l 1,2,-1
 192 576 l 1,3,-1
 128 576 l 1,0,-1
128 640 m 1,4,-1
 64 640 l 1,5,-1
 64 704 l 1,6,-1
 128 704 l 1,7,-1
 128 640 l 1,4,-1
EndSplineSet
Validated: 5
EndChar

StartChar: a
Encoding: 97 97 67
Width: 640
Flags: W
LayerCount: 2
Fore
SplineSet
512 64 m 1,0,-1
 576 64 l 1,1,-1
 576 0 l 1,2,-1
 512 0 l 1,3,-1
 448 0 l 1,4,-1
 448 64 l 1,5,-1
 512 64 l 1,0,-1
320 0 m 1,6,-1
 256 0 l 1,7,-1
 192 0 l 1,8,-1
 128 0 l 1,9,-1
 128 64 l 1,10,-1
 64 64 l 1,11,-1
 64 128 l 1,12,-1
 64 192 l 1,13,-1
 64 256 l 1,14,-1
 64 320 l 1,15,-1
 64 384 l 1,16,-1
 128 384 l 1,17,-1
 128 448 l 1,18,-1
 192 448 l 1,19,-1
 256 448 l 1,20,-1
 320 448 l 1,21,-1
 384 448 l 1,22,-1
 448 448 l 1,23,-1
 448 384 l 1,24,-1
 512 384 l 1,25,-1
 512 320 l 1,26,-1
 448 320 l 1,27,-1
 448 256 l 1,28,-1
 448 192 l 1,29,-1
 448 128 l 1,30,-1
 448 64 l 1,31,-1
 384 64 l 1,32,-1
 384 0 l 1,33,-1
 320 0 l 1,6,-1
256 64 m 1,34,-1
 320 64 l 1,35,-1
 320 128 l 1,36,-1
 384 128 l 1,37,-1
 384 192 l 1,38,-1
 384 256 l 1,39,-1
 384 320 l 1,40,-1
 384 384 l 1,41,-1
 320 384 l 1,42,-1
 256 384 l 1,43,-1
 192 384 l 1,44,-1
 192 320 l 1,45,-1
 128 320 l 1,46,-1
 128 256 l 1,47,-1
 128 192 l 1,48,-1
 128 128 l 1,49,-1
 128 64 l 1,50,-1
 192 64 l 1,51,-1
 256 64 l 1,34,-1
EndSplineSet
Validated: 5
EndChar

StartChar: b
Encoding: 98 98 68
Width: 512
Flags: W
LayerCount: 2
Fore
SplineSet
64 0 m 1,0,-1
 64 64 l 1,1,-1
 64 128 l 1,2,-1
 64 192 l 1,3,-1
 64 256 l 1,4,-1
 64 320 l 1,5,-1
 64 384 l 1,6,-1
 64 448 l 1,7,-1
 64 512 l 1,8,-1
 64 576 l 1,9,-1
 64 640 l 1,10,-1
 64 704 l 1,11,-1
 128 704 l 1,12,-1
 128 640 l 1,13,-1
 128 576 l 1,14,-1
 128 512 l 1,15,-1
 128 448 l 1,16,-1
 192 448 l 1,17,-1
 256 448 l 1,18,-1
 320 448 l 1,19,-1
 384 448 l 1,20,-1
 384 384 l 1,21,-1
 384 320 l 1,22,-1
 320 320 l 1,23,-1
 320 384 l 1,24,-1
 256 384 l 1,25,-1
 192 384 l 1,26,-1
 128 384 l 1,27,-1
 128 320 l 1,28,-1
 128 256 l 1,29,-1
 128 192 l 1,30,-1
 128 128 l 1,31,-1
 192 128 l 1,32,-1
 192 64 l 1,33,-1
 256 64 l 1,34,-1
 320 64 l 1,35,-1
 384 64 l 1,36,-1
 384 128 l 1,37,-1
 384 192 l 1,38,-1
 384 256 l 1,39,-1
 384 320 l 1,40,-1
 448 320 l 1,41,-1
 448 256 l 1,42,-1
 448 192 l 1,43,-1
 448 128 l 1,44,-1
 448 64 l 1,45,-1
 448 0 l 1,46,-1
 384 0 l 1,47,-1
 320 0 l 1,48,-1
 256 0 l 1,49,-1
 192 0 l 1,50,-1
 192 64 l 1,51,-1
 128 64 l 1,52,-1
 128 0 l 1,53,-1
 64 0 l 1,0,-1
EndSplineSet
Validated: 5
EndChar

StartChar: c
Encoding: 99 99 69
Width: 512
Flags: W
LayerCount: 2
Fore
SplineSet
384 320 m 1,0,-1
 384 384 l 1,1,-1
 448 384 l 1,2,-1
 448 320 l 1,3,-1
 384 320 l 1,0,-1
320 64 m 1,4,-1
 384 64 l 1,5,-1
 384 0 l 1,6,-1
 320 0 l 1,7,-1
 256 0 l 1,8,-1
 192 0 l 1,9,-1
 128 0 l 1,10,-1
 128 64 l 1,11,-1
 64 64 l 1,12,-1
 64 128 l 1,13,-1
 64 192 l 1,14,-1
 64 256 l 1,15,-1
 64 320 l 1,16,-1
 64 384 l 1,17,-1
 128 384 l 1,18,-1
 128 448 l 1,19,-1
 192 448 l 1,20,-1
 256 448 l 1,21,-1
 320 448 l 1,22,-1
 384 448 l 1,23,-1
 384 384 l 1,24,-1
 320 384 l 1,25,-1
 256 384 l 1,26,-1
 192 384 l 1,27,-1
 192 320 l 1,28,-1
 128 320 l 1,29,-1
 128 256 l 1,30,-1
 128 192 l 1,31,-1
 128 128 l 1,32,-1
 192 128 l 1,33,-1
 192 64 l 1,34,-1
 256 64 l 1,35,-1
 320 64 l 1,4,-1
384 64 m 1,36,-1
 384 128 l 1,37,-1
 448 128 l 1,38,-1
 448 64 l 1,39,-1
 384 64 l 1,36,-1
EndSplineSet
Validated: 5
EndChar

StartChar: d
Encoding: 100 100 70
Width: 576
Flags: W
LayerCount: 2
Fore
SplineSet
448 0 m 1,0,-1
 384 0 l 1,1,-1
 384 64 l 1,2,-1
 320 64 l 1,3,-1
 320 128 l 1,4,-1
 384 128 l 1,5,-1
 384 192 l 1,6,-1
 384 256 l 1,7,-1
 384 320 l 1,8,-1
 384 384 l 1,9,-1
 320 384 l 1,10,-1
 256 384 l 1,11,-1
 192 384 l 1,12,-1
 192 320 l 1,13,-1
 128 320 l 1,14,-1
 128 256 l 1,15,-1
 128 192 l 1,16,-1
 128 128 l 1,17,-1
 128 64 l 1,18,-1
 192 64 l 1,19,-1
 256 64 l 1,20,-1
 320 64 l 1,21,-1
 320 0 l 1,22,-1
 256 0 l 1,23,-1
 192 0 l 1,24,-1
 128 0 l 1,25,-1
 128 64 l 1,26,-1
 64 64 l 1,27,-1
 64 128 l 1,28,-1
 64 192 l 1,29,-1
 64 256 l 1,30,-1
 64 320 l 1,31,-1
 128 320 l 1,32,-1
 128 384 l 1,33,-1
 128 448 l 1,34,-1
 192 448 l 1,35,-1
 256 448 l 1,36,-1
 320 448 l 1,37,-1
 384 448 l 1,38,-1
 384 512 l 1,39,-1
 384 576 l 1,40,-1
 384 640 l 1,41,-1
 384 704 l 1,42,-1
 448 704 l 1,43,-1
 448 640 l 1,44,-1
 448 576 l 1,45,-1
 448 512 l 1,46,-1
 448 448 l 1,47,-1
 448 384 l 1,48,-1
 448 320 l 1,49,-1
 448 256 l 1,50,-1
 448 192 l 1,51,-1
 448 128 l 1,52,-1
 448 64 l 1,53,-1
 512 64 l 1,54,-1
 512 0 l 1,55,-1
 448 0 l 1,0,-1
EndSplineSet
Validated: 5
EndChar

StartChar: e
Encoding: 101 101 71
Width: 512
Flags: W
LayerCount: 2
Fore
SplineSet
320 64 m 1,0,-1
 384 64 l 1,1,-1
 384 0 l 1,2,-1
 320 0 l 1,3,-1
 256 0 l 1,4,-1
 192 0 l 1,5,-1
 128 0 l 1,6,-1
 128 64 l 1,7,-1
 64 64 l 1,8,-1
 64 128 l 1,9,-1
 64 192 l 1,10,-1
 64 256 l 1,11,-1
 64 320 l 1,12,-1
 64 384 l 1,13,-1
 128 384 l 1,14,-1
 128 448 l 1,15,-1
 192 448 l 1,16,-1
 256 448 l 1,17,-1
 320 448 l 1,18,-1
 384 448 l 1,19,-1
 384 384 l 1,20,-1
 320 384 l 1,21,-1
 256 384 l 1,22,-1
 192 384 l 1,23,-1
 192 320 l 1,24,-1
 128 320 l 1,25,-1
 128 256 l 1,26,-1
 192 256 l 1,27,-1
 256 256 l 1,28,-1
 320 256 l 1,29,-1
 384 256 l 1,30,-1
 384 320 l 1,31,-1
 384 384 l 1,32,-1
 448 384 l 1,33,-1
 448 320 l 1,34,-1
 448 256 l 1,35,-1
 448 192 l 1,36,-1
 384 192 l 1,37,-1
 320 192 l 1,38,-1
 256 192 l 1,39,-1
 192 192 l 1,40,-1
 128 192 l 1,41,-1
 128 128 l 1,42,-1
 192 128 l 1,43,-1
 192 64 l 1,44,-1
 256 64 l 1,45,-1
 320 64 l 1,0,-1
384 64 m 1,46,-1
 384 128 l 1,47,-1
 448 128 l 1,48,-1
 448 64 l 1,49,-1
 384 64 l 1,46,-1
EndSplineSet
Validated: 5
EndChar

StartChar: f
Encoding: 102 102 72
Width: 384
Flags: W
LayerCount: 2
Fore
SplineSet
128 0 m 1,0,-1
 64 0 l 1,1,-1
 64 64 l 1,2,-1
 64 128 l 1,3,-1
 64 192 l 1,4,-1
 64 256 l 1,5,-1
 64 320 l 1,6,-1
 64 384 l 1,7,-1
 64 448 l 1,8,-1
 64 512 l 1,9,-1
 64 576 l 1,10,-1
 64 640 l 1,11,-1
 128 640 l 1,12,-1
 128 576 l 1,13,-1
 128 512 l 1,14,-1
 128 448 l 1,15,-1
 128 384 l 1,16,-1
 192 384 l 1,17,-1
 256 384 l 1,18,-1
 256 320 l 1,19,-1
 192 320 l 1,20,-1
 128 320 l 1,21,-1
 128 256 l 1,22,-1
 128 192 l 1,23,-1
 128 128 l 1,24,-1
 128 64 l 1,25,-1
 192 64 l 1,26,-1
 192 0 l 1,27,-1
 128 0 l 1,0,-1
256 704 m 1,28,-1
 320 704 l 1,29,-1
 320 640 l 1,30,-1
 256 640 l 1,31,-1
 192 640 l 1,32,-1
 128 640 l 1,33,-1
 128 704 l 1,34,-1
 192 704 l 1,35,-1
 256 704 l 1,28,-1
EndSplineSet
Validated: 5
EndChar

StartChar: g
Encoding: 103 103 73
Width: 512
Flags: W
LayerCount: 2
Fore
SplineSet
320 -128 m 1,0,-1
 384 -128 l 1,1,-1
 384 -192 l 1,2,-1
 320 -192 l 1,3,-1
 256 -192 l 1,4,-1
 192 -192 l 1,5,-1
 128 -192 l 1,6,-1
 128 -128 l 1,7,-1
 192 -128 l 1,8,-1
 256 -128 l 1,9,-1
 320 -128 l 1,0,-1
384 -128 m 1,10,-1
 384 -64 l 1,11,-1
 384 0 l 1,12,-1
 320 0 l 1,13,-1
 256 0 l 1,14,-1
 192 0 l 1,15,-1
 128 0 l 1,16,-1
 128 64 l 1,17,-1
 64 64 l 1,18,-1
 64 128 l 1,19,-1
 64 192 l 1,20,-1
 64 256 l 1,21,-1
 64 320 l 1,22,-1
 64 384 l 1,23,-1
 128 384 l 1,24,-1
 128 448 l 1,25,-1
 192 448 l 1,26,-1
 256 448 l 1,27,-1
 320 448 l 1,28,-1
 384 448 l 1,29,-1
 384 384 l 1,30,-1
 320 384 l 1,31,-1
 256 384 l 1,32,-1
 192 384 l 1,33,-1
 192 320 l 1,34,-1
 128 320 l 1,35,-1
 128 256 l 1,36,-1
 128 192 l 1,37,-1
 128 128 l 1,38,-1
 192 128 l 1,39,-1
 192 64 l 1,40,-1
 256 64 l 1,41,-1
 320 64 l 1,42,-1
 384 64 l 1,43,-1
 384 128 l 1,44,-1
 384 192 l 1,45,-1
 384 256 l 1,46,-1
 384 320 l 1,47,-1
 384 384 l 1,48,-1
 448 384 l 1,49,-1
 448 320 l 1,50,-1
 448 256 l 1,51,-1
 448 192 l 1,52,-1
 448 128 l 1,53,-1
 448 64 l 1,54,-1
 448 0 l 1,55,-1
 448 -64 l 1,56,-1
 448 -128 l 1,57,-1
 384 -128 l 1,10,-1
128 -128 m 1,58,-1
 64 -128 l 1,59,-1
 64 -64 l 1,60,-1
 128 -64 l 1,61,-1
 128 -128 l 1,58,-1
EndSplineSet
Validated: 5
EndChar

StartChar: h
Encoding: 104 104 74
Width: 512
Flags: W
LayerCount: 2
Fore
SplineSet
384 0 m 1,0,-1
 384 64 l 1,1,-1
 384 128 l 1,2,-1
 384 192 l 1,3,-1
 384 256 l 1,4,-1
 384 320 l 1,5,-1
 384 384 l 1,6,-1
 448 384 l 1,7,-1
 448 320 l 1,8,-1
 448 256 l 1,9,-1
 448 192 l 1,10,-1
 448 128 l 1,11,-1
 448 64 l 1,12,-1
 448 0 l 1,13,-1
 384 0 l 1,0,-1
128 0 m 1,14,-1
 64 0 l 1,15,-1
 64 64 l 1,16,-1
 64 128 l 1,17,-1
 64 192 l 1,18,-1
 64 256 l 1,19,-1
 64 320 l 1,20,-1
 64 384 l 1,21,-1
 64 448 l 1,22,-1
 64 512 l 1,23,-1
 64 576 l 1,24,-1
 64 640 l 1,25,-1
 64 704 l 1,26,-1
 128 704 l 1,27,-1
 128 640 l 1,28,-1
 128 576 l 1,29,-1
 128 512 l 1,30,-1
 128 448 l 1,31,-1
 128 384 l 1,32,-1
 192 384 l 1,33,-1
 192 320 l 1,34,-1
 128 320 l 1,35,-1
 128 256 l 1,36,-1
 128 192 l 1,37,-1
 128 128 l 1,38,-1
 128 64 l 1,39,-1
 192 64 l 1,40,-1
 192 0 l 1,41,-1
 128 0 l 1,14,-1
384 384 m 1,42,-1
 320 384 l 1,43,-1
 256 384 l 1,44,-1
 192 384 l 1,45,-1
 192 448 l 1,46,-1
 256 448 l 1,47,-1
 320 448 l 1,48,-1
 384 448 l 1,49,-1
 384 384 l 1,42,-1
EndSplineSet
Validated: 5
EndChar

StartChar: i
Encoding: 105 105 75
Width: 192
Flags: W
LayerCount: 2
Fore
SplineSet
64 0 m 1,0,-1
 64 64 l 1,1,-1
 64 128 l 1,2,-1
 64 192 l 1,3,-1
 64 256 l 1,4,-1
 64 320 l 1,5,-1
 64 384 l 1,6,-1
 64 448 l 1,7,-1
 64 512 l 1,8,-1
 128 512 l 1,9,-1
 128 448 l 1,10,-1
 128 384 l 1,11,-1
 128 320 l 1,12,-1
 128 256 l 1,13,-1
 128 192 l 1,14,-1
 128 128 l 1,15,-1
 128 64 l 1,16,-1
 128 0 l 1,17,-1
 64 0 l 1,0,-1
64 576 m 1,18,-1
 64 640 l 1,19,-1
 64 704 l 1,20,-1
 128 704 l 1,21,-1
 128 640 l 1,22,-1
 128 576 l 1,23,-1
 64 576 l 1,18,-1
EndSplineSet
Validated: 1
EndChar

StartChar: j
Encoding: 106 106 76
Width: 192
Flags: W
LayerCount: 2
Fore
SplineSet
0 -192 m 1,0,-1
 0 -128 l 1,1,-1
 64 -128 l 1,2,-1
 64 -192 l 1,3,-1
 0 -192 l 1,0,-1
64 576 m 1,4,-1
 64 640 l 1,5,-1
 64 704 l 1,6,-1
 128 704 l 1,7,-1
 128 640 l 1,8,-1
 128 576 l 1,9,-1
 64 576 l 1,4,-1
64 -128 m 1,10,-1
 64 -64 l 1,11,-1
 64 0 l 1,12,-1
 64 64 l 1,13,-1
 64 128 l 1,14,-1
 64 192 l 1,15,-1
 64 256 l 1,16,-1
 64 320 l 1,17,-1
 64 384 l 1,18,-1
 64 448 l 1,19,-1
 64 512 l 1,20,-1
 128 512 l 1,21,-1
 128 448 l 1,22,-1
 128 384 l 1,23,-1
 128 320 l 1,24,-1
 128 256 l 1,25,-1
 128 192 l 1,26,-1
 128 128 l 1,27,-1
 128 64 l 1,28,-1
 128 0 l 1,29,-1
 128 -64 l 1,30,-1
 128 -128 l 1,31,-1
 64 -128 l 1,10,-1
EndSplineSet
Validated: 5
EndChar

StartChar: k
Encoding: 107 107 77
Width: 512
Flags: W
LayerCount: 2
Fore
SplineSet
384 0 m 1,0,-1
 320 0 l 1,1,-1
 320 64 l 1,2,-1
 320 128 l 1,3,-1
 384 128 l 1,4,-1
 384 64 l 1,5,-1
 448 64 l 1,6,-1
 448 0 l 1,7,-1
 384 0 l 1,0,-1
128 0 m 1,8,-1
 64 0 l 1,9,-1
 64 64 l 1,10,-1
 64 128 l 1,11,-1
 64 192 l 1,12,-1
 64 256 l 1,13,-1
 64 320 l 1,14,-1
 64 384 l 1,15,-1
 64 448 l 1,16,-1
 64 512 l 1,17,-1
 64 576 l 1,18,-1
 64 640 l 1,19,-1
 64 704 l 1,20,-1
 128 704 l 1,21,-1
 128 640 l 1,22,-1
 128 576 l 1,23,-1
 128 512 l 1,24,-1
 128 448 l 1,25,-1
 128 384 l 1,26,-1
 128 320 l 1,27,-1
 128 256 l 1,28,-1
 192 256 l 1,29,-1
 192 320 l 1,30,-1
 256 320 l 1,31,-1
 256 256 l 1,32,-1
 256 192 l 1,33,-1
 320 192 l 1,34,-1
 320 128 l 1,35,-1
 256 128 l 1,36,-1
 256 192 l 1,37,-1
 192 192 l 1,38,-1
 128 192 l 1,39,-1
 128 128 l 1,40,-1
 128 64 l 1,41,-1
 192 64 l 1,42,-1
 192 0 l 1,43,-1
 128 0 l 1,8,-1
256 320 m 1,44,-1
 256 384 l 1,45,-1
 320 384 l 1,46,-1
 320 320 l 1,47,-1
 256 320 l 1,44,-1
320 384 m 1,48,-1
 320 448 l 1,49,-1
 384 448 l 1,50,-1
 384 384 l 1,51,-1
 320 384 l 1,48,-1
EndSplineSet
Validated: 5
EndChar

StartChar: l
Encoding: 108 108 78
Width: 256
Flags: W
LayerCount: 2
Fore
SplineSet
128 0 m 1,0,-1
 64 0 l 1,1,-1
 64 64 l 1,2,-1
 64 128 l 1,3,-1
 64 192 l 1,4,-1
 64 256 l 1,5,-1
 64 320 l 1,6,-1
 64 384 l 1,7,-1
 64 448 l 1,8,-1
 64 512 l 1,9,-1
 64 576 l 1,10,-1
 64 640 l 1,11,-1
 64 704 l 1,12,-1
 128 704 l 1,13,-1
 128 640 l 1,14,-1
 128 576 l 1,15,-1
 128 512 l 1,16,-1
 128 448 l 1,17,-1
 128 384 l 1,18,-1
 128 320 l 1,19,-1
 128 256 l 1,20,-1
 128 192 l 1,21,-1
 128 128 l 1,22,-1
 128 64 l 1,23,-1
 192 64 l 1,24,-1
 192 0 l 1,25,-1
 128 0 l 1,0,-1
EndSplineSet
Validated: 1
EndChar

StartChar: m
Encoding: 109 109 79
Width: 832
Flags: W
LayerCount: 2
Fore
SplineSet
704 0 m 1,0,-1
 704 64 l 1,1,-1
 704 128 l 1,2,-1
 704 192 l 1,3,-1
 704 256 l 1,4,-1
 704 320 l 1,5,-1
 640 320 l 1,6,-1
 640 384 l 1,7,-1
 576 384 l 1,8,-1
 512 384 l 1,9,-1
 512 320 l 1,10,-1
 448 320 l 1,11,-1
 448 256 l 1,12,-1
 448 192 l 1,13,-1
 384 192 l 1,14,-1
 384 256 l 1,15,-1
 384 320 l 1,16,-1
 320 320 l 1,17,-1
 320 384 l 1,18,-1
 384 384 l 1,19,-1
 448 384 l 1,20,-1
 512 384 l 1,21,-1
 512 448 l 1,22,-1
 576 448 l 1,23,-1
 640 448 l 1,24,-1
 704 448 l 1,25,-1
 704 384 l 1,26,-1
 768 384 l 1,27,-1
 768 320 l 1,28,-1
 768 256 l 1,29,-1
 768 192 l 1,30,-1
 768 128 l 1,31,-1
 768 64 l 1,32,-1
 768 0 l 1,33,-1
 704 0 l 1,0,-1
128 0 m 1,34,-1
 64 0 l 1,35,-1
 64 64 l 1,36,-1
 64 128 l 1,37,-1
 64 192 l 1,38,-1
 64 256 l 1,39,-1
 64 320 l 1,40,-1
 64 384 l 1,41,-1
 64 448 l 1,42,-1
 64 512 l 1,43,-1
 128 512 l 1,44,-1
 128 448 l 1,45,-1
 128 384 l 1,46,-1
 192 384 l 1,47,-1
 192 320 l 1,48,-1
 128 320 l 1,49,-1
 128 256 l 1,50,-1
 128 192 l 1,51,-1
 128 128 l 1,52,-1
 128 64 l 1,53,-1
 192 64 l 1,54,-1
 192 0 l 1,55,-1
 128 0 l 1,34,-1
320 384 m 1,56,-1
 256 384 l 1,57,-1
 192 384 l 1,58,-1
 192 448 l 1,59,-1
 256 448 l 1,60,-1
 320 448 l 1,61,-1
 320 384 l 1,56,-1
EndSplineSet
Validated: 5
EndChar

StartChar: n
Encoding: 110 110 80
Width: 512
Flags: W
LayerCount: 2
Fore
SplineSet
384 0 m 1,0,-1
 384 64 l 1,1,-1
 384 128 l 1,2,-1
 384 192 l 1,3,-1
 384 256 l 1,4,-1
 384 320 l 1,5,-1
 384 384 l 1,6,-1
 448 384 l 1,7,-1
 448 320 l 1,8,-1
 448 256 l 1,9,-1
 448 192 l 1,10,-1
 448 128 l 1,11,-1
 448 64 l 1,12,-1
 448 0 l 1,13,-1
 384 0 l 1,0,-1
128 0 m 1,14,-1
 64 0 l 1,15,-1
 64 64 l 1,16,-1
 64 128 l 1,17,-1
 64 192 l 1,18,-1
 64 256 l 1,19,-1
 64 320 l 1,20,-1
 64 384 l 1,21,-1
 64 448 l 1,22,-1
 64 512 l 1,23,-1
 128 512 l 1,24,-1
 128 448 l 1,25,-1
 128 384 l 1,26,-1
 192 384 l 1,27,-1
 192 320 l 1,28,-1
 128 320 l 1,29,-1
 128 256 l 1,30,-1
 128 192 l 1,31,-1
 128 128 l 1,32,-1
 128 64 l 1,33,-1
 192 64 l 1,34,-1
 192 0 l 1,35,-1
 128 0 l 1,14,-1
384 384 m 1,36,-1
 320 384 l 1,37,-1
 256 384 l 1,38,-1
 192 384 l 1,39,-1
 192 448 l 1,40,-1
 256 448 l 1,41,-1
 320 448 l 1,42,-1
 384 448 l 1,43,-1
 384 384 l 1,36,-1
EndSplineSet
Validated: 5
EndChar

StartChar: o
Encoding: 111 111 81
Width: 576
Flags: W
LayerCount: 2
Fore
SplineSet
320 64 m 1,0,-1
 384 64 l 1,1,-1
 384 0 l 1,2,-1
 320 0 l 1,3,-1
 256 0 l 1,4,-1
 192 0 l 1,5,-1
 192 64 l 1,6,-1
 256 64 l 1,7,-1
 320 64 l 1,0,-1
384 64 m 1,8,-1
 384 128 l 1,9,-1
 448 128 l 1,10,-1
 448 64 l 1,11,-1
 384 64 l 1,8,-1
192 64 m 1,12,-1
 128 64 l 1,13,-1
 128 128 l 1,14,-1
 192 128 l 1,15,-1
 192 64 l 1,12,-1
448 128 m 1,16,-1
 448 192 l 1,17,-1
 448 256 l 1,18,-1
 448 320 l 1,19,-1
 512 320 l 1,20,-1
 512 256 l 1,21,-1
 512 192 l 1,22,-1
 512 128 l 1,23,-1
 448 128 l 1,16,-1
128 128 m 1,24,-1
 64 128 l 1,25,-1
 64 192 l 1,26,-1
 64 256 l 1,27,-1
 64 320 l 1,28,-1
 128 320 l 1,29,-1
 128 256 l 1,30,-1
 128 192 l 1,31,-1
 128 128 l 1,24,-1
448 320 m 1,32,-1
 384 320 l 1,33,-1
 384 384 l 1,34,-1
 448 384 l 1,35,-1
 448 320 l 1,32,-1
128 320 m 1,36,-1
 128 384 l 1,37,-1
 192 384 l 1,38,-1
 192 320 l 1,39,-1
 128 320 l 1,36,-1
384 384 m 1,40,-1
 320 384 l 1,41,-1
 256 384 l 1,42,-1
 192 384 l 1,43,-1
 192 448 l 1,44,-1
 256 448 l 1,45,-1
 320 448 l 1,46,-1
 384 448 l 1,47,-1
 384 384 l 1,40,-1
EndSplineSet
Validated: 5
EndChar

StartChar: p
Encoding: 112 112 82
Width: 512
Flags: W
LayerCount: 2
Fore
SplineSet
128 -192 m 1,0,-1
 64 -192 l 1,1,-1
 64 -128 l 1,2,-1
 64 -64 l 1,3,-1
 64 0 l 1,4,-1
 64 64 l 1,5,-1
 64 128 l 1,6,-1
 64 192 l 1,7,-1
 64 256 l 1,8,-1
 64 320 l 1,9,-1
 64 384 l 1,10,-1
 64 448 l 1,11,-1
 64 512 l 1,12,-1
 128 512 l 1,13,-1
 128 448 l 1,14,-1
 128 384 l 1,15,-1
 192 384 l 1,16,-1
 192 320 l 1,17,-1
 128 320 l 1,18,-1
 128 256 l 1,19,-1
 128 192 l 1,20,-1
 128 128 l 1,21,-1
 128 64 l 1,22,-1
 192 64 l 1,23,-1
 256 64 l 1,24,-1
 320 64 l 1,25,-1
 320 128 l 1,26,-1
 384 128 l 1,27,-1
 384 64 l 1,28,-1
 384 0 l 1,29,-1
 320 0 l 1,30,-1
 256 0 l 1,31,-1
 192 0 l 1,32,-1
 128 0 l 1,33,-1
 128 -64 l 1,34,-1
 128 -128 l 1,35,-1
 192 -128 l 1,36,-1
 192 -192 l 1,37,-1
 128 -192 l 1,0,-1
384 128 m 1,38,-1
 384 192 l 1,39,-1
 384 256 l 1,40,-1
 384 320 l 1,41,-1
 384 384 l 1,42,-1
 320 384 l 1,43,-1
 256 384 l 1,44,-1
 192 384 l 1,45,-1
 192 448 l 1,46,-1
 256 448 l 1,47,-1
 320 448 l 1,48,-1
 384 448 l 1,49,-1
 448 448 l 1,50,-1
 448 384 l 1,51,-1
 448 320 l 1,52,-1
 448 256 l 1,53,-1
 448 192 l 1,54,-1
 448 128 l 1,55,-1
 384 128 l 1,38,-1
EndSplineSet
Validated: 5
EndChar

StartChar: q
Encoding: 113 113 83
Width: 512
Flags: W
LayerCount: 2
Fore
SplineSet
384 -192 m 1,0,-1
 320 -192 l 1,1,-1
 320 -128 l 1,2,-1
 384 -128 l 1,3,-1
 384 -64 l 1,4,-1
 384 0 l 1,5,-1
 320 0 l 1,6,-1
 256 0 l 1,7,-1
 192 0 l 1,8,-1
 128 0 l 1,9,-1
 128 64 l 1,10,-1
 128 128 l 1,11,-1
 192 128 l 1,12,-1
 192 64 l 1,13,-1
 256 64 l 1,14,-1
 320 64 l 1,15,-1
 384 64 l 1,16,-1
 384 128 l 1,17,-1
 384 192 l 1,18,-1
 384 256 l 1,19,-1
 384 320 l 1,20,-1
 320 320 l 1,21,-1
 320 384 l 1,22,-1
 384 384 l 1,23,-1
 384 448 l 1,24,-1
 384 512 l 1,25,-1
 448 512 l 1,26,-1
 448 448 l 1,27,-1
 448 384 l 1,28,-1
 448 320 l 1,29,-1
 448 256 l 1,30,-1
 448 192 l 1,31,-1
 448 128 l 1,32,-1
 448 64 l 1,33,-1
 448 0 l 1,34,-1
 448 -64 l 1,35,-1
 448 -128 l 1,36,-1
 448 -192 l 1,37,-1
 384 -192 l 1,0,-1
128 128 m 1,38,-1
 64 128 l 1,39,-1
 64 192 l 1,40,-1
 64 256 l 1,41,-1
 64 320 l 1,42,-1
 64 384 l 1,43,-1
 64 448 l 1,44,-1
 128 448 l 1,45,-1
 192 448 l 1,46,-1
 256 448 l 1,47,-1
 320 448 l 1,48,-1
 320 384 l 1,49,-1
 256 384 l 1,50,-1
 192 384 l 1,51,-1
 128 384 l 1,52,-1
 128 320 l 1,53,-1
 128 256 l 1,54,-1
 128 192 l 1,55,-1
 128 128 l 1,38,-1
EndSplineSet
Validated: 5
EndChar

StartChar: r
Encoding: 114 114 84
Width: 384
Flags: W
LayerCount: 2
Fore
SplineSet
128 0 m 1,0,-1
 64 0 l 1,1,-1
 64 64 l 1,2,-1
 64 128 l 1,3,-1
 64 192 l 1,4,-1
 64 256 l 1,5,-1
 64 320 l 1,6,-1
 64 384 l 1,7,-1
 64 448 l 1,8,-1
 64 512 l 1,9,-1
 128 512 l 1,10,-1
 128 448 l 1,11,-1
 128 384 l 1,12,-1
 192 384 l 1,13,-1
 192 320 l 1,14,-1
 128 320 l 1,15,-1
 128 256 l 1,16,-1
 128 192 l 1,17,-1
 128 128 l 1,18,-1
 128 64 l 1,19,-1
 192 64 l 1,20,-1
 192 0 l 1,21,-1
 128 0 l 1,0,-1
256 448 m 1,22,-1
 320 448 l 1,23,-1
 320 384 l 1,24,-1
 256 384 l 1,25,-1
 192 384 l 1,26,-1
 192 448 l 1,27,-1
 256 448 l 1,22,-1
EndSplineSet
Validated: 5
EndChar

StartChar: s
Encoding: 115 115 85
Width: 512
Flags: W
LayerCount: 2
Fore
SplineSet
384 384 m 1,0,-1
 384 448 l 1,1,-1
 448 448 l 1,2,-1
 448 384 l 1,3,-1
 384 384 l 1,0,-1
320 64 m 1,4,-1
 384 64 l 1,5,-1
 384 0 l 1,6,-1
 320 0 l 1,7,-1
 256 0 l 1,8,-1
 192 0 l 1,9,-1
 128 0 l 1,10,-1
 64 0 l 1,11,-1
 64 64 l 1,12,-1
 64 128 l 1,13,-1
 128 128 l 1,14,-1
 128 64 l 1,15,-1
 192 64 l 1,16,-1
 256 64 l 1,17,-1
 320 64 l 1,4,-1
384 64 m 1,18,-1
 384 128 l 1,19,-1
 384 192 l 1,20,-1
 448 192 l 1,21,-1
 448 128 l 1,22,-1
 448 64 l 1,23,-1
 384 64 l 1,18,-1
384 192 m 1,24,-1
 320 192 l 1,25,-1
 320 256 l 1,26,-1
 384 256 l 1,27,-1
 384 192 l 1,24,-1
320 256 m 1,28,-1
 256 256 l 1,29,-1
 192 256 l 1,30,-1
 128 256 l 1,31,-1
 128 320 l 1,32,-1
 192 320 l 1,33,-1
 256 320 l 1,34,-1
 320 320 l 1,35,-1
 320 256 l 1,28,-1
128 320 m 1,36,-1
 64 320 l 1,37,-1
 64 384 l 1,38,-1
 64 448 l 1,39,-1
 128 448 l 1,40,-1
 128 384 l 1,41,-1
 128 320 l 1,36,-1
384 448 m 1,42,-1
 320 448 l 1,43,-1
 256 448 l 1,44,-1
 192 448 l 1,45,-1
 128 448 l 1,46,-1
 128 512 l 1,47,-1
 192 512 l 1,48,-1
 256 512 l 1,49,-1
 320 512 l 1,50,-1
 384 512 l 1,51,-1
 384 448 l 1,42,-1
EndSplineSet
Validated: 5
EndChar

StartChar: t
Encoding: 116 116 86
Width: 320
Flags: W
LayerCount: 2
Fore
SplineSet
128 0 m 1,0,-1
 64 0 l 1,1,-1
 64 64 l 1,2,-1
 64 128 l 1,3,-1
 64 192 l 1,4,-1
 64 256 l 1,5,-1
 64 320 l 1,6,-1
 64 384 l 1,7,-1
 64 448 l 1,8,-1
 0 448 l 1,9,-1
 0 512 l 1,10,-1
 64 512 l 1,11,-1
 64 576 l 1,12,-1
 64 640 l 1,13,-1
 128 640 l 1,14,-1
 128 576 l 1,15,-1
 128 512 l 1,16,-1
 192 512 l 1,17,-1
 256 512 l 1,18,-1
 256 448 l 1,19,-1
 192 448 l 1,20,-1
 128 448 l 1,21,-1
 128 384 l 1,22,-1
 128 320 l 1,23,-1
 128 256 l 1,24,-1
 128 192 l 1,25,-1
 128 128 l 1,26,-1
 128 64 l 1,27,-1
 192 64 l 1,28,-1
 192 0 l 1,29,-1
 128 0 l 1,0,-1
EndSplineSet
Validated: 1
EndChar

StartChar: u
Encoding: 117 117 87
Width: 576
Flags: W
LayerCount: 2
Fore
SplineSet
448 0 m 1,0,-1
 448 64 l 1,1,-1
 512 64 l 1,2,-1
 512 0 l 1,3,-1
 448 0 l 1,0,-1
320 64 m 1,4,-1
 384 64 l 1,5,-1
 384 0 l 1,6,-1
 320 0 l 1,7,-1
 256 0 l 1,8,-1
 192 0 l 1,9,-1
 128 0 l 1,10,-1
 128 64 l 1,11,-1
 192 64 l 1,12,-1
 256 64 l 1,13,-1
 320 64 l 1,4,-1
448 64 m 1,14,-1
 384 64 l 1,15,-1
 384 128 l 1,16,-1
 384 192 l 1,17,-1
 384 256 l 1,18,-1
 384 320 l 1,19,-1
 384 384 l 1,20,-1
 384 448 l 1,21,-1
 448 448 l 1,22,-1
 448 384 l 1,23,-1
 448 320 l 1,24,-1
 448 256 l 1,25,-1
 448 192 l 1,26,-1
 448 128 l 1,27,-1
 448 64 l 1,14,-1
128 64 m 1,28,-1
 64 64 l 1,29,-1
 64 128 l 1,30,-1
 64 192 l 1,31,-1
 64 256 l 1,32,-1
 64 320 l 1,33,-1
 64 384 l 1,34,-1
 64 448 l 1,35,-1
 128 448 l 1,36,-1
 128 384 l 1,37,-1
 128 320 l 1,38,-1
 128 256 l 1,39,-1
 128 192 l 1,40,-1
 128 128 l 1,41,-1
 128 64 l 1,28,-1
EndSplineSet
Validated: 5
EndChar

StartChar: v
Encoding: 118 118 88
Width: 448
Flags: W
LayerCount: 2
Fore
SplineSet
192 0 m 1,0,-1
 192 64 l 1,1,-1
 256 64 l 1,2,-1
 256 0 l 1,3,-1
 192 0 l 1,0,-1
256 64 m 1,4,-1
 256 128 l 1,5,-1
 320 128 l 1,6,-1
 320 64 l 1,7,-1
 256 64 l 1,4,-1
192 64 m 1,8,-1
 128 64 l 1,9,-1
 128 128 l 1,10,-1
 192 128 l 1,11,-1
 192 64 l 1,8,-1
320 128 m 1,12,-1
 320 192 l 1,13,-1
 320 256 l 1,14,-1
 320 320 l 1,15,-1
 320 384 l 1,16,-1
 320 448 l 1,17,-1
 384 448 l 1,18,-1
 384 384 l 1,19,-1
 384 320 l 1,20,-1
 384 256 l 1,21,-1
 384 192 l 1,22,-1
 384 128 l 1,23,-1
 320 128 l 1,12,-1
128 128 m 1,24,-1
 64 128 l 1,25,-1
 64 192 l 1,26,-1
 64 256 l 1,27,-1
 64 320 l 1,28,-1
 64 384 l 1,29,-1
 64 448 l 1,30,-1
 128 448 l 1,31,-1
 128 384 l 1,32,-1
 128 320 l 1,33,-1
 128 256 l 1,34,-1
 128 192 l 1,35,-1
 128 128 l 1,24,-1
EndSplineSet
Validated: 5
EndChar

StartChar: w
Encoding: 119 119 89
Width: 704
Flags: W
LayerCount: 2
Fore
SplineSet
448 0 m 1,0,-1
 384 0 l 1,1,-1
 384 64 l 1,2,-1
 384 128 l 1,3,-1
 448 128 l 1,4,-1
 448 64 l 1,5,-1
 512 64 l 1,6,-1
 512 0 l 1,7,-1
 448 0 l 1,0,-1
256 0 m 1,8,-1
 192 0 l 1,9,-1
 192 64 l 1,10,-1
 256 64 l 1,11,-1
 256 128 l 1,12,-1
 320 128 l 1,13,-1
 320 64 l 1,14,-1
 320 0 l 1,15,-1
 256 0 l 1,8,-1
512 64 m 1,16,-1
 512 128 l 1,17,-1
 576 128 l 1,18,-1
 576 64 l 1,19,-1
 512 64 l 1,16,-1
192 64 m 1,20,-1
 128 64 l 1,21,-1
 128 128 l 1,22,-1
 192 128 l 1,23,-1
 192 64 l 1,20,-1
576 128 m 1,24,-1
 576 192 l 1,25,-1
 576 256 l 1,26,-1
 576 320 l 1,27,-1
 576 384 l 1,28,-1
 576 448 l 1,29,-1
 640 448 l 1,30,-1
 640 384 l 1,31,-1
 640 320 l 1,32,-1
 640 256 l 1,33,-1
 640 192 l 1,34,-1
 640 128 l 1,35,-1
 576 128 l 1,24,-1
384 128 m 1,36,-1
 320 128 l 1,37,-1
 320 192 l 1,38,-1
 320 256 l 1,39,-1
 320 320 l 1,40,-1
 384 320 l 1,41,-1
 384 256 l 1,42,-1
 384 192 l 1,43,-1
 384 128 l 1,36,-1
128 128 m 1,44,-1
 64 128 l 1,45,-1
 64 192 l 1,46,-1
 64 256 l 1,47,-1
 64 320 l 1,48,-1
 64 384 l 1,49,-1
 64 448 l 1,50,-1
 128 448 l 1,51,-1
 128 384 l 1,52,-1
 128 320 l 1,53,-1
 128 256 l 1,54,-1
 128 192 l 1,55,-1
 128 128 l 1,44,-1
EndSplineSet
Validated: 5
EndChar

StartChar: x
Encoding: 120 120 90
Width: 512
Flags: W
LayerCount: 2
Fore
SplineSet
384 0 m 1,0,-1
 384 64 l 1,1,-1
 320 64 l 1,2,-1
 320 128 l 1,3,-1
 320 192 l 1,4,-1
 384 192 l 1,5,-1
 384 128 l 1,6,-1
 448 128 l 1,7,-1
 448 64 l 1,8,-1
 448 0 l 1,9,-1
 384 0 l 1,0,-1
64 0 m 1,10,-1
 64 64 l 1,11,-1
 64 128 l 1,12,-1
 128 128 l 1,13,-1
 128 192 l 1,14,-1
 192 192 l 1,15,-1
 192 128 l 1,16,-1
 192 64 l 1,17,-1
 128 64 l 1,18,-1
 128 0 l 1,19,-1
 64 0 l 1,10,-1
320 192 m 1,20,-1
 256 192 l 1,21,-1
 192 192 l 1,22,-1
 192 256 l 1,23,-1
 256 256 l 1,24,-1
 256 320 l 1,25,-1
 320 320 l 1,26,-1
 320 256 l 1,27,-1
 320 192 l 1,20,-1
192 256 m 1,28,-1
 128 256 l 1,29,-1
 128 320 l 1,30,-1
 64 320 l 1,31,-1
 64 384 l 1,32,-1
 64 448 l 1,33,-1
 128 448 l 1,34,-1
 128 384 l 1,35,-1
 192 384 l 1,36,-1
 192 320 l 1,37,-1
 192 256 l 1,28,-1
320 320 m 1,38,-1
 320 384 l 1,39,-1
 384 384 l 1,40,-1
 384 448 l 1,41,-1
 448 448 l 1,42,-1
 448 384 l 1,43,-1
 448 320 l 1,44,-1
 384 320 l 1,45,-1
 320 320 l 1,38,-1
EndSplineSet
Validated: 5
EndChar

StartChar: y
Encoding: 121 121 91
Width: 448
Flags: W
LayerCount: 2
Fore
SplineSet
320 -192 m 1,0,-1
 256 -192 l 1,1,-1
 256 -128 l 1,2,-1
 320 -128 l 1,3,-1
 320 -64 l 1,4,-1
 320 0 l 1,5,-1
 256 0 l 1,6,-1
 192 0 l 1,7,-1
 128 0 l 1,8,-1
 128 64 l 1,9,-1
 192 64 l 1,10,-1
 256 64 l 1,11,-1
 320 64 l 1,12,-1
 320 128 l 1,13,-1
 320 192 l 1,14,-1
 320 256 l 1,15,-1
 320 320 l 1,16,-1
 320 384 l 1,17,-1
 320 448 l 1,18,-1
 384 448 l 1,19,-1
 384 384 l 1,20,-1
 384 320 l 1,21,-1
 384 256 l 1,22,-1
 384 192 l 1,23,-1
 384 128 l 1,24,-1
 384 64 l 1,25,-1
 384 0 l 1,26,-1
 384 -64 l 1,27,-1
 384 -128 l 1,28,-1
 384 -192 l 1,29,-1
 320 -192 l 1,0,-1
128 64 m 1,30,-1
 64 64 l 1,31,-1
 64 128 l 1,32,-1
 64 192 l 1,33,-1
 64 256 l 1,34,-1
 64 320 l 1,35,-1
 64 384 l 1,36,-1
 64 448 l 1,37,-1
 128 448 l 1,38,-1
 128 384 l 1,39,-1
 128 320 l 1,40,-1
 128 256 l 1,41,-1
 128 192 l 1,42,-1
 128 128 l 1,43,-1
 128 64 l 1,30,-1
EndSplineSet
Validated: 5
EndChar

StartChar: z
Encoding: 122 122 92
Width: 512
Flags: W
LayerCount: 2
Fore
SplineSet
64 320 m 1,0,-1
 64 384 l 1,1,-1
 128 384 l 1,2,-1
 128 320 l 1,3,-1
 64 320 l 1,0,-1
384 64 m 1,4,-1
 448 64 l 1,5,-1
 448 0 l 1,6,-1
 384 0 l 1,7,-1
 320 0 l 1,8,-1
 256 0 l 1,9,-1
 192 0 l 1,10,-1
 128 0 l 1,11,-1
 64 0 l 1,12,-1
 64 64 l 1,13,-1
 128 64 l 1,14,-1
 128 128 l 1,15,-1
 192 128 l 1,16,-1
 192 64 l 1,17,-1
 256 64 l 1,18,-1
 320 64 l 1,19,-1
 384 64 l 1,4,-1
192 128 m 1,20,-1
 192 192 l 1,21,-1
 256 192 l 1,22,-1
 256 128 l 1,23,-1
 192 128 l 1,20,-1
256 192 m 1,24,-1
 256 256 l 1,25,-1
 320 256 l 1,26,-1
 320 192 l 1,27,-1
 256 192 l 1,24,-1
320 256 m 1,28,-1
 320 320 l 1,29,-1
 384 320 l 1,30,-1
 384 256 l 1,31,-1
 320 256 l 1,28,-1
384 320 m 1,32,-1
 384 384 l 1,33,-1
 320 384 l 1,34,-1
 256 384 l 1,35,-1
 192 384 l 1,36,-1
 128 384 l 1,37,-1
 128 448 l 1,38,-1
 192 448 l 1,39,-1
 256 448 l 1,40,-1
 320 448 l 1,41,-1
 384 448 l 1,42,-1
 448 448 l 1,43,-1
 448 384 l 1,44,-1
 448 320 l 1,45,-1
 384 320 l 1,32,-1
EndSplineSet
Validated: 5
EndChar

StartChar: braceleft
Encoding: 123 123 93
Width: 320
Flags: W
LayerCount: 2
Fore
SplineSet
192 -64 m 1,0,-1
 256 -64 l 1,1,-1
 256 -128 l 1,2,-1
 192 -128 l 1,3,-1
 128 -128 l 1,4,-1
 128 -64 l 1,5,-1
 192 -64 l 1,0,-1
128 -64 m 1,6,-1
 64 -64 l 1,7,-1
 64 0 l 1,8,-1
 64 64 l 1,9,-1
 64 128 l 1,10,-1
 64 192 l 1,11,-1
 64 256 l 1,12,-1
 128 256 l 1,13,-1
 128 192 l 1,14,-1
 128 128 l 1,15,-1
 128 64 l 1,16,-1
 128 0 l 1,17,-1
 128 -64 l 1,6,-1
64 256 m 1,18,-1
 0 256 l 1,19,-1
 0 320 l 1,20,-1
 64 320 l 1,21,-1
 64 256 l 1,18,-1
64 320 m 1,22,-1
 64 384 l 1,23,-1
 64 448 l 1,24,-1
 64 512 l 1,25,-1
 64 576 l 1,26,-1
 64 640 l 1,27,-1
 128 640 l 1,28,-1
 128 576 l 1,29,-1
 128 512 l 1,30,-1
 128 448 l 1,31,-1
 128 384 l 1,32,-1
 128 320 l 1,33,-1
 64 320 l 1,22,-1
192 704 m 1,34,-1
 256 704 l 1,35,-1
 256 640 l 1,36,-1
 192 640 l 1,37,-1
 128 640 l 1,38,-1
 128 704 l 1,39,-1
 192 704 l 1,34,-1
EndSplineSet
Validated: 5
EndChar

StartChar: bar
Encoding: 124 124 94
Width: 192
Flags: W
LayerCount: 2
Fore
SplineSet
64 -192 m 1,0,-1
 64 -128 l 1,1,-1
 64 -64 l 1,2,-1
 64 0 l 1,3,-1
 64 64 l 1,4,-1
 64 128 l 1,5,-1
 64 192 l 1,6,-1
 64 256 l 1,7,-1
 64 320 l 1,8,-1
 64 384 l 1,9,-1
 64 448 l 1,10,-1
 64 512 l 1,11,-1
 64 576 l 1,12,-1
 64 640 l 1,13,-1
 64 704 l 1,14,-1
 128 704 l 1,15,-1
 128 640 l 1,16,-1
 128 576 l 1,17,-1
 128 512 l 1,18,-1
 128 448 l 1,19,-1
 128 384 l 1,20,-1
 128 320 l 1,21,-1
 128 256 l 1,22,-1
 128 192 l 1,23,-1
 128 128 l 1,24,-1
 128 64 l 1,25,-1
 128 0 l 1,26,-1
 128 -64 l 1,27,-1
 128 -128 l 1,28,-1
 128 -192 l 1,29,-1
 64 -192 l 1,0,-1
EndSplineSet
Validated: 1
EndChar

StartChar: braceright
Encoding: 125 125 95
Width: 320
Flags: W
LayerCount: 2
Fore
SplineSet
64 -64 m 1,0,-1
 128 -64 l 1,1,-1
 128 -128 l 1,2,-1
 64 -128 l 1,3,-1
 0 -128 l 1,4,-1
 0 -64 l 1,5,-1
 64 -64 l 1,0,-1
128 -64 m 1,6,-1
 128 0 l 1,7,-1
 128 64 l 1,8,-1
 128 128 l 1,9,-1
 128 192 l 1,10,-1
 128 256 l 1,11,-1
 192 256 l 1,12,-1
 192 192 l 1,13,-1
 192 128 l 1,14,-1
 192 64 l 1,15,-1
 192 0 l 1,16,-1
 192 -64 l 1,17,-1
 128 -64 l 1,6,-1
192 256 m 1,18,-1
 192 320 l 1,19,-1
 256 320 l 1,20,-1
 256 256 l 1,21,-1
 192 256 l 1,18,-1
192 320 m 1,22,-1
 128 320 l 1,23,-1
 128 384 l 1,24,-1
 128 448 l 1,25,-1
 128 512 l 1,26,-1
 128 576 l 1,27,-1
 128 640 l 1,28,-1
 192 640 l 1,29,-1
 192 576 l 1,30,-1
 192 512 l 1,31,-1
 192 448 l 1,32,-1
 192 384 l 1,33,-1
 192 320 l 1,22,-1
128 640 m 1,34,-1
 64 640 l 1,35,-1
 0 640 l 1,36,-1
 0 704 l 1,37,-1
 64 704 l 1,38,-1
 128 704 l 1,39,-1
 128 640 l 1,34,-1
EndSplineSet
Validated: 5
EndChar

StartChar: asciitilde
Encoding: 126 126 96
Width: 512
Flags: W
LayerCount: 2
Fore
SplineSet
0 320 m 1,0,-1
 0 384 l 1,1,-1
 64 384 l 1,2,-1
 64 320 l 1,3,-1
 0 320 l 1,0,-1
320 384 m 1,4,-1
 384 384 l 1,5,-1
 384 320 l 1,6,-1
 320 320 l 1,7,-1
 256 320 l 1,8,-1
 192 320 l 1,9,-1
 192 384 l 1,10,-1
 256 384 l 1,11,-1
 320 384 l 1,4,-1
384 384 m 1,12,-1
 384 448 l 1,13,-1
 448 448 l 1,14,-1
 448 384 l 1,15,-1
 384 384 l 1,12,-1
192 384 m 1,16,-1
 128 384 l 1,17,-1
 64 384 l 1,18,-1
 64 448 l 1,19,-1
 128 448 l 1,20,-1
 192 448 l 1,21,-1
 192 384 l 1,16,-1
EndSplineSet
Validated: 5
EndChar

StartChar: exclamdown
Encoding: 161 161 98
Width: 192
Flags: W
LayerCount: 2
Fore
SplineSet
64 -192 m 1,0,-1
 64 -128 l 1,1,-1
 64 -64 l 1,2,-1
 64 0 l 1,3,-1
 64 64 l 1,4,-1
 64 128 l 1,5,-1
 64 192 l 1,6,-1
 64 256 l 1,7,-1
 64 320 l 1,8,-1
 64 384 l 1,9,-1
 128 384 l 1,10,-1
 128 320 l 1,11,-1
 128 256 l 1,12,-1
 128 192 l 1,13,-1
 128 128 l 1,14,-1
 128 64 l 1,15,-1
 128 0 l 1,16,-1
 128 -64 l 1,17,-1
 128 -128 l 1,18,-1
 128 -192 l 1,19,-1
 64 -192 l 1,0,-1
64 448 m 1,20,-1
 64 512 l 1,21,-1
 64 576 l 1,22,-1
 128 576 l 1,23,-1
 128 512 l 1,24,-1
 128 448 l 1,25,-1
 64 448 l 1,20,-1
EndSplineSet
Validated: 1
EndChar

StartChar: cent
Encoding: 162 162 99
Width: 512
Flags: W
LayerCount: 2
Fore
SplineSet
192 -192 m 1,0,-1
 192 -128 l 1,1,-1
 192 -64 l 1,2,-1
 192 0 l 1,3,-1
 128 0 l 1,4,-1
 128 64 l 1,5,-1
 64 64 l 1,6,-1
 64 128 l 1,7,-1
 64 192 l 1,8,-1
 64 256 l 1,9,-1
 64 320 l 1,10,-1
 64 384 l 1,11,-1
 128 384 l 1,12,-1
 128 448 l 1,13,-1
 192 448 l 1,14,-1
 192 512 l 1,15,-1
 192 576 l 1,16,-1
 192 640 l 1,17,-1
 192 704 l 1,18,-1
 256 704 l 1,19,-1
 256 640 l 1,20,-1
 256 576 l 1,21,-1
 256 512 l 1,22,-1
 256 448 l 1,23,-1
 320 448 l 1,24,-1
 384 448 l 1,25,-1
 384 384 l 1,26,-1
 448 384 l 1,27,-1
 448 320 l 1,28,-1
 384 320 l 1,29,-1
 384 384 l 1,30,-1
 320 384 l 1,31,-1
 256 384 l 1,32,-1
 256 320 l 1,33,-1
 256 256 l 1,34,-1
 256 192 l 1,35,-1
 256 128 l 1,36,-1
 256 64 l 1,37,-1
 320 64 l 1,38,-1
 384 64 l 1,39,-1
 384 0 l 1,40,-1
 320 0 l 1,41,-1
 256 0 l 1,42,-1
 256 -64 l 1,43,-1
 256 -128 l 1,44,-1
 256 -192 l 1,45,-1
 192 -192 l 1,0,-1
384 64 m 1,46,-1
 384 128 l 1,47,-1
 448 128 l 1,48,-1
 448 64 l 1,49,-1
 384 64 l 1,46,-1
192 64 m 1,50,-1
 192 128 l 1,51,-1
 192 192 l 1,52,-1
 192 256 l 1,53,-1
 192 320 l 1,54,-1
 128 320 l 1,55,-1
 128 256 l 1,56,-1
 128 192 l 1,57,-1
 128 128 l 1,58,-1
 128 64 l 1,59,-1
 192 64 l 1,50,-1
EndSplineSet
Validated: 5
EndChar

StartChar: sterling
Encoding: 163 163 100
Width: 576
Flags: W
LayerCount: 2
Fore
SplineSet
0 0 m 1,0,-1
 0 64 l 1,1,-1
 64 64 l 1,2,-1
 64 0 l 1,3,-1
 0 0 l 1,0,-1
448 576 m 1,4,-1
 448 640 l 1,5,-1
 384 640 l 1,6,-1
 320 640 l 1,7,-1
 256 640 l 1,8,-1
 192 640 l 1,9,-1
 128 640 l 1,10,-1
 128 576 l 1,11,-1
 128 512 l 1,12,-1
 64 512 l 1,13,-1
 64 448 l 1,14,-1
 128 448 l 1,15,-1
 128 384 l 1,16,-1
 192 384 l 1,17,-1
 256 384 l 1,18,-1
 320 384 l 1,19,-1
 320 320 l 1,20,-1
 256 320 l 1,21,-1
 192 320 l 1,22,-1
 128 320 l 1,23,-1
 64 320 l 1,24,-1
 64 256 l 1,25,-1
 128 256 l 1,26,-1
 128 192 l 1,27,-1
 128 128 l 1,28,-1
 128 64 l 1,29,-1
 192 64 l 1,30,-1
 256 64 l 1,31,-1
 320 64 l 1,32,-1
 384 64 l 1,33,-1
 448 64 l 1,34,-1
 512 64 l 1,35,-1
 512 0 l 1,36,-1
 448 0 l 1,37,-1
 384 0 l 1,38,-1
 320 0 l 1,39,-1
 256 0 l 1,40,-1
 192 0 l 1,41,-1
 128 0 l 1,42,-1
 128 64 l 1,43,-1
 64 64 l 1,44,-1
 64 128 l 1,45,-1
 64 192 l 1,46,-1
 64 256 l 1,47,-1
 0 256 l 1,48,-1
 0 320 l 1,49,-1
 64 320 l 1,50,-1
 64 384 l 1,51,-1
 64 448 l 1,52,-1
 0 448 l 1,53,-1
 0 512 l 1,54,-1
 64 512 l 1,55,-1
 64 576 l 1,56,-1
 64 640 l 1,57,-1
 128 640 l 1,58,-1
 128 704 l 1,59,-1
 192 704 l 1,60,-1
 256 704 l 1,61,-1
 320 704 l 1,62,-1
 384 704 l 1,63,-1
 448 704 l 1,64,-1
 512 704 l 1,65,-1
 512 640 l 1,66,-1
 512 576 l 1,67,-1
 448 576 l 1,4,-1
EndSplineSet
Validated: 5
EndChar

StartChar: currency
Encoding: 164 164 101
Width: 576
Flags: W
LayerCount: 2
Fore
SplineSet
448 128 m 1,0,-1
 448 192 l 1,1,-1
 512 192 l 1,2,-1
 512 128 l 1,3,-1
 448 128 l 1,0,-1
64 128 m 1,4,-1
 64 192 l 1,5,-1
 128 192 l 1,6,-1
 128 128 l 1,7,-1
 64 128 l 1,4,-1
320 192 m 1,8,-1
 384 192 l 1,9,-1
 384 128 l 1,10,-1
 320 128 l 1,11,-1
 256 128 l 1,12,-1
 192 128 l 1,13,-1
 192 192 l 1,14,-1
 256 192 l 1,15,-1
 320 192 l 1,8,-1
448 192 m 1,16,-1
 384 192 l 1,17,-1
 384 256 l 1,18,-1
 448 256 l 1,19,-1
 448 192 l 1,16,-1
192 192 m 1,20,-1
 128 192 l 1,21,-1
 128 256 l 1,22,-1
 192 256 l 1,23,-1
 192 192 l 1,20,-1
448 256 m 1,24,-1
 448 320 l 1,25,-1
 448 384 l 1,26,-1
 448 448 l 1,27,-1
 512 448 l 1,28,-1
 512 384 l 1,29,-1
 512 320 l 1,30,-1
 512 256 l 1,31,-1
 448 256 l 1,24,-1
128 256 m 1,32,-1
 64 256 l 1,33,-1
 64 320 l 1,34,-1
 64 384 l 1,35,-1
 64 448 l 1,36,-1
 128 448 l 1,37,-1
 128 384 l 1,38,-1
 128 320 l 1,39,-1
 128 256 l 1,32,-1
448 448 m 1,40,-1
 384 448 l 1,41,-1
 384 512 l 1,42,-1
 448 512 l 1,43,-1
 448 448 l 1,40,-1
128 448 m 1,44,-1
 128 512 l 1,45,-1
 192 512 l 1,46,-1
 192 448 l 1,47,-1
 128 448 l 1,44,-1
448 512 m 1,48,-1
 448 576 l 1,49,-1
 512 576 l 1,50,-1
 512 512 l 1,51,-1
 448 512 l 1,48,-1
384 512 m 1,52,-1
 320 512 l 1,53,-1
 256 512 l 1,54,-1
 192 512 l 1,55,-1
 192 576 l 1,56,-1
 256 576 l 1,57,-1
 320 576 l 1,58,-1
 384 576 l 1,59,-1
 384 512 l 1,52,-1
128 512 m 1,60,-1
 64 512 l 1,61,-1
 64 576 l 1,62,-1
 128 576 l 1,63,-1
 128 512 l 1,60,-1
EndSplineSet
Validated: 5
EndChar

StartChar: yen
Encoding: 165 165 102
Width: 576
Flags: W
LayerCount: 2
Fore
SplineSet
320 0 m 1,0,-1
 256 0 l 1,1,-1
 256 64 l 1,2,-1
 256 128 l 1,3,-1
 192 128 l 1,4,-1
 128 128 l 1,5,-1
 128 192 l 1,6,-1
 192 192 l 1,7,-1
 256 192 l 1,8,-1
 256 256 l 1,9,-1
 192 256 l 1,10,-1
 128 256 l 1,11,-1
 128 320 l 1,12,-1
 192 320 l 1,13,-1
 192 384 l 1,14,-1
 192 448 l 1,15,-1
 256 448 l 1,16,-1
 320 448 l 1,17,-1
 384 448 l 1,18,-1
 384 384 l 1,19,-1
 384 320 l 1,20,-1
 448 320 l 1,21,-1
 448 256 l 1,22,-1
 384 256 l 1,23,-1
 320 256 l 1,24,-1
 320 192 l 1,25,-1
 384 192 l 1,26,-1
 448 192 l 1,27,-1
 448 128 l 1,28,-1
 384 128 l 1,29,-1
 320 128 l 1,30,-1
 320 64 l 1,31,-1
 384 64 l 1,32,-1
 384 0 l 1,33,-1
 320 0 l 1,0,-1
320 320 m 1,34,-1
 320 384 l 1,35,-1
 256 384 l 1,36,-1
 256 320 l 1,37,-1
 320 320 l 1,34,-1
384 448 m 1,38,-1
 384 512 l 1,39,-1
 384 576 l 1,40,-1
 448 576 l 1,41,-1
 448 512 l 1,42,-1
 448 448 l 1,43,-1
 384 448 l 1,38,-1
192 448 m 1,44,-1
 128 448 l 1,45,-1
 128 512 l 1,46,-1
 128 576 l 1,47,-1
 192 576 l 1,48,-1
 192 512 l 1,49,-1
 192 448 l 1,44,-1
448 576 m 1,50,-1
 448 640 l 1,51,-1
 448 704 l 1,52,-1
 512 704 l 1,53,-1
 512 640 l 1,54,-1
 512 576 l 1,55,-1
 448 576 l 1,50,-1
128 576 m 1,56,-1
 64 576 l 1,57,-1
 64 640 l 1,58,-1
 64 704 l 1,59,-1
 128 704 l 1,60,-1
 128 640 l 1,61,-1
 128 576 l 1,56,-1
EndSplineSet
Validated: 5
EndChar

StartChar: brokenbar
Encoding: 166 166 103
Width: 192
Flags: W
LayerCount: 2
Fore
SplineSet
64 -192 m 1,0,-1
 64 -128 l 1,1,-1
 64 -64 l 1,2,-1
 64 0 l 1,3,-1
 64 64 l 1,4,-1
 64 128 l 1,5,-1
 64 192 l 1,6,-1
 128 192 l 1,7,-1
 128 128 l 1,8,-1
 128 64 l 1,9,-1
 128 0 l 1,10,-1
 128 -64 l 1,11,-1
 128 -128 l 1,12,-1
 128 -192 l 1,13,-1
 64 -192 l 1,0,-1
64 384 m 1,14,-1
 64 448 l 1,15,-1
 64 512 l 1,16,-1
 64 576 l 1,17,-1
 64 640 l 1,18,-1
 64 704 l 1,19,-1
 128 704 l 1,20,-1
 128 640 l 1,21,-1
 128 576 l 1,22,-1
 128 512 l 1,23,-1
 128 448 l 1,24,-1
 128 384 l 1,25,-1
 64 384 l 1,14,-1
EndSplineSet
Validated: 1
EndChar

StartChar: section
Encoding: 167 167 104
Width: 512
Flags: W
LayerCount: 2
Fore
SplineSet
384 576 m 1,0,-1
 384 640 l 1,1,-1
 448 640 l 1,2,-1
 448 576 l 1,3,-1
 384 576 l 1,0,-1
320 -128 m 1,4,-1
 384 -128 l 1,5,-1
 384 -192 l 1,6,-1
 320 -192 l 1,7,-1
 256 -192 l 1,8,-1
 192 -192 l 1,9,-1
 192 -128 l 1,10,-1
 256 -128 l 1,11,-1
 320 -128 l 1,4,-1
384 -128 m 1,12,-1
 384 -64 l 1,13,-1
 384 0 l 1,14,-1
 320 0 l 1,15,-1
 320 64 l 1,16,-1
 256 64 l 1,17,-1
 256 128 l 1,18,-1
 320 128 l 1,19,-1
 320 192 l 1,20,-1
 384 192 l 1,21,-1
 384 256 l 1,22,-1
 384 320 l 1,23,-1
 448 320 l 1,24,-1
 448 256 l 1,25,-1
 448 192 l 1,26,-1
 448 128 l 1,27,-1
 384 128 l 1,28,-1
 384 64 l 1,29,-1
 448 64 l 1,30,-1
 448 0 l 1,31,-1
 448 -64 l 1,32,-1
 448 -128 l 1,33,-1
 384 -128 l 1,12,-1
192 -128 m 1,34,-1
 128 -128 l 1,35,-1
 128 -64 l 1,36,-1
 192 -64 l 1,37,-1
 192 -128 l 1,34,-1
256 128 m 1,38,-1
 192 128 l 1,39,-1
 128 128 l 1,40,-1
 128 192 l 1,41,-1
 128 256 l 1,42,-1
 192 256 l 1,43,-1
 192 192 l 1,44,-1
 256 192 l 1,45,-1
 256 128 l 1,38,-1
128 256 m 1,46,-1
 64 256 l 1,47,-1
 64 320 l 1,48,-1
 64 384 l 1,49,-1
 128 384 l 1,50,-1
 128 320 l 1,51,-1
 128 256 l 1,46,-1
384 320 m 1,52,-1
 320 320 l 1,53,-1
 320 384 l 1,54,-1
 384 384 l 1,55,-1
 384 320 l 1,52,-1
320 384 m 1,56,-1
 256 384 l 1,57,-1
 192 384 l 1,58,-1
 128 384 l 1,59,-1
 128 448 l 1,60,-1
 128 512 l 1,61,-1
 128 576 l 1,62,-1
 128 640 l 1,63,-1
 192 640 l 1,64,-1
 192 576 l 1,65,-1
 192 512 l 1,66,-1
 256 512 l 1,67,-1
 256 448 l 1,68,-1
 320 448 l 1,69,-1
 320 384 l 1,56,-1
384 640 m 1,70,-1
 320 640 l 1,71,-1
 256 640 l 1,72,-1
 192 640 l 1,73,-1
 192 704 l 1,74,-1
 256 704 l 1,75,-1
 320 704 l 1,76,-1
 384 704 l 1,77,-1
 384 640 l 1,70,-1
EndSplineSet
Validated: 5
EndChar

StartChar: dieresis
Encoding: 168 168 105
Width: 384
Flags: W
LayerCount: 2
Fore
SplineSet
256 640 m 1,0,-1
 256 704 l 1,1,-1
 320 704 l 1,2,-1
 320 640 l 1,3,-1
 256 640 l 1,0,-1
64 640 m 1,4,-1
 64 704 l 1,5,-1
 128 704 l 1,6,-1
 128 640 l 1,7,-1
 64 640 l 1,4,-1
EndSplineSet
Validated: 1
EndChar

StartChar: copyright
Encoding: 169 169 106
Width: 768
Flags: W
LayerCount: 2
Fore
SplineSet
448 448 m 1,0,-1
 448 512 l 1,1,-1
 512 512 l 1,2,-1
 512 448 l 1,3,-1
 448 448 l 1,0,-1
512 128 m 1,4,-1
 576 128 l 1,5,-1
 576 64 l 1,6,-1
 512 64 l 1,7,-1
 448 64 l 1,8,-1
 384 64 l 1,9,-1
 320 64 l 1,10,-1
 256 64 l 1,11,-1
 192 64 l 1,12,-1
 192 128 l 1,13,-1
 256 128 l 1,14,-1
 320 128 l 1,15,-1
 384 128 l 1,16,-1
 448 128 l 1,17,-1
 512 128 l 1,4,-1
576 128 m 1,18,-1
 576 192 l 1,19,-1
 640 192 l 1,20,-1
 640 128 l 1,21,-1
 576 128 l 1,18,-1
192 128 m 1,22,-1
 128 128 l 1,23,-1
 128 192 l 1,24,-1
 192 192 l 1,25,-1
 192 128 l 1,22,-1
640 192 m 1,26,-1
 640 256 l 1,27,-1
 640 320 l 1,28,-1
 640 384 l 1,29,-1
 640 448 l 1,30,-1
 640 512 l 1,31,-1
 640 576 l 1,32,-1
 704 576 l 1,33,-1
 704 512 l 1,34,-1
 704 448 l 1,35,-1
 704 384 l 1,36,-1
 704 320 l 1,37,-1
 704 256 l 1,38,-1
 704 192 l 1,39,-1
 640 192 l 1,26,-1
384 256 m 1,40,-1
 448 256 l 1,41,-1
 448 192 l 1,42,-1
 384 192 l 1,43,-1
 320 192 l 1,44,-1
 320 256 l 1,45,-1
 384 256 l 1,40,-1
128 192 m 1,46,-1
 64 192 l 1,47,-1
 64 256 l 1,48,-1
 64 320 l 1,49,-1
 64 384 l 1,50,-1
 64 448 l 1,51,-1
 64 512 l 1,52,-1
 64 576 l 1,53,-1
 128 576 l 1,54,-1
 128 512 l 1,55,-1
 128 448 l 1,56,-1
 128 384 l 1,57,-1
 128 320 l 1,58,-1
 128 256 l 1,59,-1
 128 192 l 1,46,-1
448 256 m 1,60,-1
 448 320 l 1,61,-1
 512 320 l 1,62,-1
 512 256 l 1,63,-1
 448 256 l 1,60,-1
320 256 m 1,64,-1
 256 256 l 1,65,-1
 256 320 l 1,66,-1
 320 320 l 1,67,-1
 320 256 l 1,64,-1
256 320 m 1,68,-1
 192 320 l 1,69,-1
 192 384 l 1,70,-1
 192 448 l 1,71,-1
 256 448 l 1,72,-1
 256 384 l 1,73,-1
 256 320 l 1,68,-1
256 448 m 1,74,-1
 256 512 l 1,75,-1
 320 512 l 1,76,-1
 320 448 l 1,77,-1
 256 448 l 1,74,-1
448 512 m 1,78,-1
 384 512 l 1,79,-1
 320 512 l 1,80,-1
 320 576 l 1,81,-1
 384 576 l 1,82,-1
 448 576 l 1,83,-1
 448 512 l 1,78,-1
640 576 m 1,84,-1
 576 576 l 1,85,-1
 576 640 l 1,86,-1
 640 640 l 1,87,-1
 640 576 l 1,84,-1
128 576 m 1,88,-1
 128 640 l 1,89,-1
 192 640 l 1,90,-1
 192 576 l 1,91,-1
 128 576 l 1,88,-1
576 640 m 1,92,-1
 512 640 l 1,93,-1
 448 640 l 1,94,-1
 384 640 l 1,95,-1
 320 640 l 1,96,-1
 256 640 l 1,97,-1
 192 640 l 1,98,-1
 192 704 l 1,99,-1
 256 704 l 1,100,-1
 320 704 l 1,101,-1
 384 704 l 1,102,-1
 448 704 l 1,103,-1
 512 704 l 1,104,-1
 576 704 l 1,105,-1
 576 640 l 1,92,-1
EndSplineSet
Validated: 5
EndChar

StartChar: ordfeminine
Encoding: 170 170 107
Width: 448
Flags: W
LayerCount: 2
Fore
SplineSet
320 384 m 1,0,-1
 320 448 l 1,1,-1
 384 448 l 1,2,-1
 384 384 l 1,3,-1
 320 384 l 1,0,-1
192 384 m 1,4,-1
 128 384 l 1,5,-1
 64 384 l 1,6,-1
 64 448 l 1,7,-1
 64 512 l 1,8,-1
 64 576 l 1,9,-1
 64 640 l 1,10,-1
 128 640 l 1,11,-1
 128 576 l 1,12,-1
 128 512 l 1,13,-1
 128 448 l 1,14,-1
 192 448 l 1,15,-1
 192 512 l 1,16,-1
 256 512 l 1,17,-1
 256 576 l 1,18,-1
 256 640 l 1,19,-1
 320 640 l 1,20,-1
 384 640 l 1,21,-1
 384 576 l 1,22,-1
 320 576 l 1,23,-1
 320 512 l 1,24,-1
 320 448 l 1,25,-1
 256 448 l 1,26,-1
 256 384 l 1,27,-1
 192 384 l 1,4,-1
256 640 m 1,28,-1
 192 640 l 1,29,-1
 128 640 l 1,30,-1
 128 704 l 1,31,-1
 192 704 l 1,32,-1
 256 704 l 1,33,-1
 256 640 l 1,28,-1
EndSplineSet
Validated: 5
EndChar

StartChar: guillemotleft
Encoding: 171 171 108
Width: 512
Flags: W
LayerCount: 2
Fore
SplineSet
384 64 m 1,0,-1
 384 128 l 1,1,-1
 448 128 l 1,2,-1
 448 64 l 1,3,-1
 384 64 l 1,0,-1
192 64 m 1,4,-1
 192 128 l 1,5,-1
 256 128 l 1,6,-1
 256 64 l 1,7,-1
 192 64 l 1,4,-1
384 128 m 1,8,-1
 320 128 l 1,9,-1
 320 192 l 1,10,-1
 320 256 l 1,11,-1
 384 256 l 1,12,-1
 384 192 l 1,13,-1
 384 128 l 1,8,-1
192 128 m 1,14,-1
 128 128 l 1,15,-1
 128 192 l 1,16,-1
 128 256 l 1,17,-1
 192 256 l 1,18,-1
 192 192 l 1,19,-1
 192 128 l 1,14,-1
320 256 m 1,20,-1
 256 256 l 1,21,-1
 256 320 l 1,22,-1
 320 320 l 1,23,-1
 320 256 l 1,20,-1
128 256 m 1,24,-1
 64 256 l 1,25,-1
 64 320 l 1,26,-1
 128 320 l 1,27,-1
 128 256 l 1,24,-1
320 320 m 1,28,-1
 320 384 l 1,29,-1
 320 448 l 1,30,-1
 384 448 l 1,31,-1
 384 384 l 1,32,-1
 384 320 l 1,33,-1
 320 320 l 1,28,-1
128 320 m 1,34,-1
 128 384 l 1,35,-1
 128 448 l 1,36,-1
 192 448 l 1,37,-1
 192 384 l 1,38,-1
 192 320 l 1,39,-1
 128 320 l 1,34,-1
384 448 m 1,40,-1
 384 512 l 1,41,-1
 448 512 l 1,42,-1
 448 448 l 1,43,-1
 384 448 l 1,40,-1
192 448 m 1,44,-1
 192 512 l 1,45,-1
 256 512 l 1,46,-1
 256 448 l 1,47,-1
 192 448 l 1,44,-1
EndSplineSet
Validated: 5
EndChar

StartChar: logicalnot
Encoding: 172 172 109
Width: 512
Flags: W
LayerCount: 2
Fore
SplineSet
384 256 m 1,0,-1
 384 320 l 1,1,-1
 384 384 l 1,2,-1
 320 384 l 1,3,-1
 256 384 l 1,4,-1
 192 384 l 1,5,-1
 128 384 l 1,6,-1
 64 384 l 1,7,-1
 64 448 l 1,8,-1
 128 448 l 1,9,-1
 192 448 l 1,10,-1
 256 448 l 1,11,-1
 320 448 l 1,12,-1
 384 448 l 1,13,-1
 448 448 l 1,14,-1
 448 384 l 1,15,-1
 448 320 l 1,16,-1
 448 256 l 1,17,-1
 384 256 l 1,0,-1
EndSplineSet
Validated: 1
EndChar

StartChar: registered
Encoding: 174 174 110
Width: 768
Flags: W
LayerCount: 2
Fore
SplineSet
448 192 m 1,0,-1
 448 256 l 1,1,-1
 448 320 l 1,2,-1
 512 320 l 1,3,-1
 512 256 l 1,4,-1
 512 192 l 1,5,-1
 448 192 l 1,0,-1
256 192 m 1,6,-1
 256 256 l 1,7,-1
 256 320 l 1,8,-1
 256 384 l 1,9,-1
 256 448 l 1,10,-1
 256 512 l 1,11,-1
 256 576 l 1,12,-1
 320 576 l 1,13,-1
 384 576 l 1,14,-1
 448 576 l 1,15,-1
 448 512 l 1,16,-1
 512 512 l 1,17,-1
 512 448 l 1,18,-1
 512 384 l 1,19,-1
 448 384 l 1,20,-1
 448 448 l 1,21,-1
 448 512 l 1,22,-1
 384 512 l 1,23,-1
 320 512 l 1,24,-1
 320 448 l 1,25,-1
 320 384 l 1,26,-1
 384 384 l 1,27,-1
 448 384 l 1,28,-1
 448 320 l 1,29,-1
 384 320 l 1,30,-1
 320 320 l 1,31,-1
 320 256 l 1,32,-1
 320 192 l 1,33,-1
 256 192 l 1,6,-1
512 128 m 1,34,-1
 576 128 l 1,35,-1
 576 64 l 1,36,-1
 512 64 l 1,37,-1
 448 64 l 1,38,-1
 384 64 l 1,39,-1
 320 64 l 1,40,-1
 256 64 l 1,41,-1
 192 64 l 1,42,-1
 192 128 l 1,43,-1
 256 128 l 1,44,-1
 320 128 l 1,45,-1
 384 128 l 1,46,-1
 448 128 l 1,47,-1
 512 128 l 1,34,-1
576 128 m 1,48,-1
 576 192 l 1,49,-1
 640 192 l 1,50,-1
 640 128 l 1,51,-1
 576 128 l 1,48,-1
192 128 m 1,52,-1
 128 128 l 1,53,-1
 128 192 l 1,54,-1
 192 192 l 1,55,-1
 192 128 l 1,52,-1
640 192 m 1,56,-1
 640 256 l 1,57,-1
 640 320 l 1,58,-1
 640 384 l 1,59,-1
 640 448 l 1,60,-1
 640 512 l 1,61,-1
 640 576 l 1,62,-1
 704 576 l 1,63,-1
 704 512 l 1,64,-1
 704 448 l 1,65,-1
 704 384 l 1,66,-1
 704 320 l 1,67,-1
 704 256 l 1,68,-1
 704 192 l 1,69,-1
 640 192 l 1,56,-1
128 192 m 1,70,-1
 64 192 l 1,71,-1
 64 256 l 1,72,-1
 64 320 l 1,73,-1
 64 384 l 1,74,-1
 64 448 l 1,75,-1
 64 512 l 1,76,-1
 64 576 l 1,77,-1
 128 576 l 1,78,-1
 128 512 l 1,79,-1
 128 448 l 1,80,-1
 128 384 l 1,81,-1
 128 320 l 1,82,-1
 128 256 l 1,83,-1
 128 192 l 1,70,-1
640 576 m 1,84,-1
 576 576 l 1,85,-1
 576 640 l 1,86,-1
 640 640 l 1,87,-1
 640 576 l 1,84,-1
128 576 m 1,88,-1
 128 640 l 1,89,-1
 192 640 l 1,90,-1
 192 576 l 1,91,-1
 128 576 l 1,88,-1
576 640 m 1,92,-1
 512 640 l 1,93,-1
 448 640 l 1,94,-1
 384 640 l 1,95,-1
 320 640 l 1,96,-1
 256 640 l 1,97,-1
 192 640 l 1,98,-1
 192 704 l 1,99,-1
 256 704 l 1,100,-1
 320 704 l 1,101,-1
 384 704 l 1,102,-1
 448 704 l 1,103,-1
 512 704 l 1,104,-1
 576 704 l 1,105,-1
 576 640 l 1,92,-1
EndSplineSet
Validated: 5
EndChar

StartChar: macron
Encoding: 175 175 111
Width: 576
Flags: W
LayerCount: 2
Fore
SplineSet
0 640 m 1,0,-1
 0 704 l 1,1,-1
 0 768 l 1,2,-1
 64 768 l 1,3,-1
 128 768 l 1,4,-1
 192 768 l 1,5,-1
 256 768 l 1,6,-1
 320 768 l 1,7,-1
 384 768 l 1,8,-1
 448 768 l 1,9,-1
 512 768 l 1,10,-1
 512 704 l 1,11,-1
 448 704 l 1,12,-1
 384 704 l 1,13,-1
 320 704 l 1,14,-1
 256 704 l 1,15,-1
 192 704 l 1,16,-1
 128 704 l 1,17,-1
 64 704 l 1,18,-1
 64 640 l 1,19,-1
 0 640 l 1,0,-1
EndSplineSet
Validated: 1
EndChar

StartChar: degree
Encoding: 176 176 112
Width: 320
Flags: W
LayerCount: 2
Fore
SplineSet
128 512 m 1,0,-1
 128 576 l 1,1,-1
 192 576 l 1,2,-1
 192 512 l 1,3,-1
 128 512 l 1,0,-1
192 576 m 1,4,-1
 192 640 l 1,5,-1
 256 640 l 1,6,-1
 256 576 l 1,7,-1
 192 576 l 1,4,-1
128 576 m 1,8,-1
 64 576 l 1,9,-1
 64 640 l 1,10,-1
 128 640 l 1,11,-1
 128 576 l 1,8,-1
192 640 m 1,12,-1
 128 640 l 1,13,-1
 128 704 l 1,14,-1
 192 704 l 1,15,-1
 192 640 l 1,12,-1
EndSplineSet
Validated: 5
EndChar

StartChar: plusminus
Encoding: 177 177 113
Width: 448
Flags: W
LayerCount: 2
Fore
SplineSet
192 192 m 1,0,-1
 192 256 l 1,1,-1
 192 320 l 1,2,-1
 128 320 l 1,3,-1
 64 320 l 1,4,-1
 64 384 l 1,5,-1
 128 384 l 1,6,-1
 192 384 l 1,7,-1
 192 448 l 1,8,-1
 192 512 l 1,9,-1
 256 512 l 1,10,-1
 256 448 l 1,11,-1
 256 384 l 1,12,-1
 320 384 l 1,13,-1
 384 384 l 1,14,-1
 384 320 l 1,15,-1
 320 320 l 1,16,-1
 256 320 l 1,17,-1
 256 256 l 1,18,-1
 256 192 l 1,19,-1
 192 192 l 1,0,-1
320 64 m 1,20,-1
 384 64 l 1,21,-1
 384 0 l 1,22,-1
 320 0 l 1,23,-1
 256 0 l 1,24,-1
 192 0 l 1,25,-1
 128 0 l 1,26,-1
 64 0 l 1,27,-1
 64 64 l 1,28,-1
 128 64 l 1,29,-1
 192 64 l 1,30,-1
 256 64 l 1,31,-1
 320 64 l 1,20,-1
EndSplineSet
Validated: 1
EndChar

StartChar: uni00B2
Encoding: 178 178 114
Width: 320
Flags: W
LayerCount: 2
Fore
SplineSet
0 640 m 1,0,-1
 0 704 l 1,1,-1
 64 704 l 1,2,-1
 64 640 l 1,3,-1
 0 640 l 1,0,-1
192 512 m 1,4,-1
 256 512 l 1,5,-1
 256 448 l 1,6,-1
 192 448 l 1,7,-1
 128 448 l 1,8,-1
 64 448 l 1,9,-1
 0 448 l 1,10,-1
 0 512 l 1,11,-1
 64 512 l 1,12,-1
 64 576 l 1,13,-1
 128 576 l 1,14,-1
 128 512 l 1,15,-1
 192 512 l 1,4,-1
128 576 m 1,16,-1
 128 640 l 1,17,-1
 192 640 l 1,18,-1
 192 576 l 1,19,-1
 128 576 l 1,16,-1
192 640 m 1,20,-1
 192 704 l 1,21,-1
 256 704 l 1,22,-1
 256 640 l 1,23,-1
 192 640 l 1,20,-1
192 704 m 1,24,-1
 128 704 l 1,25,-1
 64 704 l 1,26,-1
 64 768 l 1,27,-1
 128 768 l 1,28,-1
 192 768 l 1,29,-1
 192 704 l 1,24,-1
EndSplineSet
Validated: 5
EndChar

StartChar: uni00B3
Encoding: 179 179 115
Width: 320
Flags: W
LayerCount: 2
Fore
SplineSet
192 448 m 1,0,-1
 128 448 l 1,1,-1
 64 448 l 1,2,-1
 0 448 l 1,3,-1
 0 512 l 1,4,-1
 64 512 l 1,5,-1
 128 512 l 1,6,-1
 192 512 l 1,7,-1
 192 576 l 1,8,-1
 128 576 l 1,9,-1
 128 640 l 1,10,-1
 192 640 l 1,11,-1
 192 704 l 1,12,-1
 256 704 l 1,13,-1
 256 640 l 1,14,-1
 256 576 l 1,15,-1
 256 512 l 1,16,-1
 256 448 l 1,17,-1
 192 448 l 1,0,-1
192 704 m 1,18,-1
 128 704 l 1,19,-1
 64 704 l 1,20,-1
 0 704 l 1,21,-1
 0 768 l 1,22,-1
 64 768 l 1,23,-1
 128 768 l 1,24,-1
 192 768 l 1,25,-1
 192 704 l 1,18,-1
EndSplineSet
Validated: 5
EndChar

StartChar: acute
Encoding: 180 180 116
Width: 256
Flags: W
LayerCount: 2
Fore
SplineSet
64 576 m 1,0,-1
 64 640 l 1,1,-1
 128 640 l 1,2,-1
 128 576 l 1,3,-1
 64 576 l 1,0,-1
128 640 m 1,4,-1
 128 704 l 1,5,-1
 192 704 l 1,6,-1
 192 640 l 1,7,-1
 128 640 l 1,4,-1
EndSplineSet
Validated: 5
EndChar

StartChar: uni00B5
Encoding: 181 181 117
Width: 576
Flags: W
LayerCount: 2
Fore
SplineSet
64 -192 m 1,0,-1
 64 -128 l 1,1,-1
 64 -64 l 1,2,-1
 64 0 l 1,3,-1
 64 64 l 1,4,-1
 64 128 l 1,5,-1
 64 192 l 1,6,-1
 64 256 l 1,7,-1
 64 320 l 1,8,-1
 64 384 l 1,9,-1
 64 448 l 1,10,-1
 64 512 l 1,11,-1
 128 512 l 1,12,-1
 128 448 l 1,13,-1
 128 384 l 1,14,-1
 128 320 l 1,15,-1
 128 256 l 1,16,-1
 128 192 l 1,17,-1
 128 128 l 1,18,-1
 192 128 l 1,19,-1
 192 64 l 1,20,-1
 256 64 l 1,21,-1
 320 64 l 1,22,-1
 384 64 l 1,23,-1
 384 128 l 1,24,-1
 384 192 l 1,25,-1
 384 256 l 1,26,-1
 384 320 l 1,27,-1
 384 384 l 1,28,-1
 384 448 l 1,29,-1
 384 512 l 1,30,-1
 448 512 l 1,31,-1
 448 448 l 1,32,-1
 448 384 l 1,33,-1
 448 320 l 1,34,-1
 448 256 l 1,35,-1
 448 192 l 1,36,-1
 448 128 l 1,37,-1
 448 64 l 1,38,-1
 512 64 l 1,39,-1
 512 0 l 1,40,-1
 448 0 l 1,41,-1
 384 0 l 1,42,-1
 320 0 l 1,43,-1
 256 0 l 1,44,-1
 192 0 l 1,45,-1
 192 64 l 1,46,-1
 128 64 l 1,47,-1
 128 0 l 1,48,-1
 128 -64 l 1,49,-1
 128 -128 l 1,50,-1
 128 -192 l 1,51,-1
 64 -192 l 1,0,-1
EndSplineSet
Validated: 5
EndChar

StartChar: paragraph
Encoding: 182 182 118
Width: 576
Flags: W
LayerCount: 2
Fore
SplineSet
384 -192 m 1,0,-1
 384 -128 l 1,1,-1
 384 -64 l 1,2,-1
 384 0 l 1,3,-1
 384 64 l 1,4,-1
 384 128 l 1,5,-1
 384 192 l 1,6,-1
 384 256 l 1,7,-1
 384 320 l 1,8,-1
 384 384 l 1,9,-1
 384 448 l 1,10,-1
 384 512 l 1,11,-1
 384 576 l 1,12,-1
 384 640 l 1,13,-1
 320 640 l 1,14,-1
 320 576 l 1,15,-1
 320 512 l 1,16,-1
 320 448 l 1,17,-1
 320 384 l 1,18,-1
 320 320 l 1,19,-1
 320 256 l 1,20,-1
 320 192 l 1,21,-1
 320 128 l 1,22,-1
 320 64 l 1,23,-1
 320 0 l 1,24,-1
 320 -64 l 1,25,-1
 320 -128 l 1,26,-1
 320 -192 l 1,27,-1
 256 -192 l 1,28,-1
 256 -128 l 1,29,-1
 256 -64 l 1,30,-1
 256 0 l 1,31,-1
 256 64 l 1,32,-1
 256 128 l 1,33,-1
 256 192 l 1,34,-1
 256 256 l 1,35,-1
 256 320 l 1,36,-1
 192 320 l 1,37,-1
 128 320 l 1,38,-1
 64 320 l 1,39,-1
 64 384 l 1,40,-1
 0 384 l 1,41,-1
 0 448 l 1,42,-1
 0 512 l 1,43,-1
 0 576 l 1,44,-1
 0 640 l 1,45,-1
 64 640 l 1,46,-1
 64 704 l 1,47,-1
 128 704 l 1,48,-1
 192 704 l 1,49,-1
 256 704 l 1,50,-1
 320 704 l 1,51,-1
 384 704 l 1,52,-1
 448 704 l 1,53,-1
 512 704 l 1,54,-1
 512 640 l 1,55,-1
 448 640 l 1,56,-1
 448 576 l 1,57,-1
 448 512 l 1,58,-1
 448 448 l 1,59,-1
 448 384 l 1,60,-1
 448 320 l 1,61,-1
 448 256 l 1,62,-1
 448 192 l 1,63,-1
 448 128 l 1,64,-1
 448 64 l 1,65,-1
 448 0 l 1,66,-1
 448 -64 l 1,67,-1
 448 -128 l 1,68,-1
 448 -192 l 1,69,-1
 384 -192 l 1,0,-1
EndSplineSet
Validated: 1
EndChar

StartChar: periodcentered
Encoding: 183 183 119
Width: 256
Flags: W
LayerCount: 2
Fore
SplineSet
128 320 m 1,0,-1
 128 384 l 1,1,-1
 192 384 l 1,2,-1
 192 320 l 1,3,-1
 128 320 l 1,0,-1
EndSplineSet
Validated: 1
EndChar

StartChar: cedilla
Encoding: 184 184 120
Width: 320
Flags: W
LayerCount: 2
Fore
SplineSet
128 -128 m 1,0,-1
 192 -128 l 1,1,-1
 192 -192 l 1,2,-1
 128 -192 l 1,3,-1
 64 -192 l 1,4,-1
 64 -128 l 1,5,-1
 128 -128 l 1,0,-1
192 -128 m 1,6,-1
 192 -64 l 1,7,-1
 256 -64 l 1,8,-1
 256 -128 l 1,9,-1
 192 -128 l 1,6,-1
192 -64 m 1,10,-1
 128 -64 l 1,11,-1
 128 0 l 1,12,-1
 192 0 l 1,13,-1
 192 -64 l 1,10,-1
EndSplineSet
Validated: 5
EndChar

StartChar: uni00B9
Encoding: 185 185 121
Width: 256
Flags: W
LayerCount: 2
Fore
SplineSet
128 448 m 1,0,-1
 128 512 l 1,1,-1
 128 576 l 1,2,-1
 128 640 l 1,3,-1
 64 640 l 1,4,-1
 64 704 l 1,5,-1
 128 704 l 1,6,-1
 128 768 l 1,7,-1
 192 768 l 1,8,-1
 192 704 l 1,9,-1
 192 640 l 1,10,-1
 192 576 l 1,11,-1
 192 512 l 1,12,-1
 192 448 l 1,13,-1
 128 448 l 1,0,-1
EndSplineSet
Validated: 1
EndChar

StartChar: ordmasculine
Encoding: 186 186 122
Width: 384
Flags: W
LayerCount: 2
Fore
SplineSet
192 512 m 1,0,-1
 256 512 l 1,1,-1
 256 448 l 1,2,-1
 192 448 l 1,3,-1
 128 448 l 1,4,-1
 128 512 l 1,5,-1
 192 512 l 1,0,-1
256 512 m 1,6,-1
 256 576 l 1,7,-1
 256 640 l 1,8,-1
 256 704 l 1,9,-1
 320 704 l 1,10,-1
 320 640 l 1,11,-1
 320 576 l 1,12,-1
 320 512 l 1,13,-1
 256 512 l 1,6,-1
128 512 m 1,14,-1
 64 512 l 1,15,-1
 64 576 l 1,16,-1
 64 640 l 1,17,-1
 64 704 l 1,18,-1
 128 704 l 1,19,-1
 128 640 l 1,20,-1
 128 576 l 1,21,-1
 128 512 l 1,14,-1
256 704 m 1,22,-1
 192 704 l 1,23,-1
 128 704 l 1,24,-1
 128 768 l 1,25,-1
 192 768 l 1,26,-1
 256 768 l 1,27,-1
 256 704 l 1,22,-1
EndSplineSet
Validated: 5
EndChar

StartChar: guillemotright
Encoding: 187 187 123
Width: 512
Flags: W
LayerCount: 2
Fore
SplineSet
256 64 m 1,0,-1
 256 128 l 1,1,-1
 320 128 l 1,2,-1
 320 64 l 1,3,-1
 256 64 l 1,0,-1
64 64 m 1,4,-1
 64 128 l 1,5,-1
 128 128 l 1,6,-1
 128 64 l 1,7,-1
 64 64 l 1,4,-1
320 128 m 1,8,-1
 320 192 l 1,9,-1
 320 256 l 1,10,-1
 384 256 l 1,11,-1
 384 192 l 1,12,-1
 384 128 l 1,13,-1
 320 128 l 1,8,-1
128 128 m 1,14,-1
 128 192 l 1,15,-1
 128 256 l 1,16,-1
 192 256 l 1,17,-1
 192 192 l 1,18,-1
 192 128 l 1,19,-1
 128 128 l 1,14,-1
384 256 m 1,20,-1
 384 320 l 1,21,-1
 448 320 l 1,22,-1
 448 256 l 1,23,-1
 384 256 l 1,20,-1
192 256 m 1,24,-1
 192 320 l 1,25,-1
 256 320 l 1,26,-1
 256 256 l 1,27,-1
 192 256 l 1,24,-1
384 320 m 1,28,-1
 320 320 l 1,29,-1
 320 384 l 1,30,-1
 320 448 l 1,31,-1
 384 448 l 1,32,-1
 384 384 l 1,33,-1
 384 320 l 1,28,-1
192 320 m 1,34,-1
 128 320 l 1,35,-1
 128 384 l 1,36,-1
 128 448 l 1,37,-1
 192 448 l 1,38,-1
 192 384 l 1,39,-1
 192 320 l 1,34,-1
320 448 m 1,40,-1
 256 448 l 1,41,-1
 256 512 l 1,42,-1
 320 512 l 1,43,-1
 320 448 l 1,40,-1
128 448 m 1,44,-1
 64 448 l 1,45,-1
 64 512 l 1,46,-1
 128 512 l 1,47,-1
 128 448 l 1,44,-1
EndSplineSet
Validated: 5
EndChar

StartChar: onequarter
Encoding: 188 188 124
Width: 448
Flags: W
LayerCount: 2
Fore
SplineSet
320 0 m 1,0,-1
 320 64 l 1,1,-1
 320 128 l 1,2,-1
 256 128 l 1,3,-1
 192 128 l 1,4,-1
 192 192 l 1,5,-1
 192 256 l 1,6,-1
 256 256 l 1,7,-1
 256 192 l 1,8,-1
 320 192 l 1,9,-1
 320 256 l 1,10,-1
 384 256 l 1,11,-1
 384 192 l 1,12,-1
 384 128 l 1,13,-1
 384 64 l 1,14,-1
 384 0 l 1,15,-1
 320 0 l 1,0,-1
0 0 m 1,16,-1
 0 64 l 1,17,-1
 0 128 l 1,18,-1
 64 128 l 1,19,-1
 64 64 l 1,20,-1
 64 0 l 1,21,-1
 0 0 l 1,16,-1
64 512 m 1,22,-1
 64 576 l 1,23,-1
 64 640 l 1,24,-1
 0 640 l 1,25,-1
 0 704 l 1,26,-1
 64 704 l 1,27,-1
 64 768 l 1,28,-1
 128 768 l 1,29,-1
 128 704 l 1,30,-1
 128 640 l 1,31,-1
 128 576 l 1,32,-1
 128 512 l 1,33,-1
 64 512 l 1,22,-1
64 128 m 1,34,-1
 64 192 l 1,35,-1
 64 256 l 1,36,-1
 128 256 l 1,37,-1
 128 192 l 1,38,-1
 128 128 l 1,39,-1
 64 128 l 1,34,-1
192 256 m 1,40,-1
 128 256 l 1,41,-1
 128 320 l 1,42,-1
 128 384 l 1,43,-1
 128 448 l 1,44,-1
 192 448 l 1,45,-1
 192 384 l 1,46,-1
 192 320 l 1,47,-1
 192 256 l 1,40,-1
192 448 m 1,48,-1
 192 512 l 1,49,-1
 192 576 l 1,50,-1
 192 640 l 1,51,-1
 256 640 l 1,52,-1
 256 704 l 1,53,-1
 320 704 l 1,54,-1
 320 640 l 1,55,-1
 320 576 l 1,56,-1
 256 576 l 1,57,-1
 256 512 l 1,58,-1
 256 448 l 1,59,-1
 192 448 l 1,48,-1
EndSplineSet
Validated: 5
EndChar

StartChar: onehalf
Encoding: 189 189 125
Width: 448
Flags: W
LayerCount: 2
Fore
SplineSet
0 0 m 1,0,-1
 0 64 l 1,1,-1
 0 128 l 1,2,-1
 64 128 l 1,3,-1
 64 64 l 1,4,-1
 64 0 l 1,5,-1
 0 0 l 1,0,-1
64 512 m 1,6,-1
 64 576 l 1,7,-1
 64 640 l 1,8,-1
 0 640 l 1,9,-1
 0 704 l 1,10,-1
 64 704 l 1,11,-1
 64 768 l 1,12,-1
 128 768 l 1,13,-1
 128 704 l 1,14,-1
 128 640 l 1,15,-1
 128 576 l 1,16,-1
 128 512 l 1,17,-1
 64 512 l 1,6,-1
320 0 m 1,18,-1
 256 0 l 1,19,-1
 192 0 l 1,20,-1
 192 64 l 1,21,-1
 256 64 l 1,22,-1
 256 128 l 1,23,-1
 320 128 l 1,24,-1
 320 64 l 1,25,-1
 384 64 l 1,26,-1
 384 0 l 1,27,-1
 320 0 l 1,18,-1
320 128 m 1,28,-1
 320 192 l 1,29,-1
 256 192 l 1,30,-1
 192 192 l 1,31,-1
 192 256 l 1,32,-1
 256 256 l 1,33,-1
 320 256 l 1,34,-1
 384 256 l 1,35,-1
 384 192 l 1,36,-1
 384 128 l 1,37,-1
 320 128 l 1,28,-1
64 128 m 1,38,-1
 64 192 l 1,39,-1
 64 256 l 1,40,-1
 128 256 l 1,41,-1
 128 192 l 1,42,-1
 128 128 l 1,43,-1
 64 128 l 1,38,-1
192 256 m 1,44,-1
 128 256 l 1,45,-1
 128 320 l 1,46,-1
 128 384 l 1,47,-1
 128 448 l 1,48,-1
 192 448 l 1,49,-1
 192 384 l 1,50,-1
 192 320 l 1,51,-1
 192 256 l 1,44,-1
192 448 m 1,52,-1
 192 512 l 1,53,-1
 192 576 l 1,54,-1
 192 640 l 1,55,-1
 256 640 l 1,56,-1
 256 704 l 1,57,-1
 320 704 l 1,58,-1
 320 640 l 1,59,-1
 320 576 l 1,60,-1
 256 576 l 1,61,-1
 256 512 l 1,62,-1
 256 448 l 1,63,-1
 192 448 l 1,52,-1
EndSplineSet
Validated: 5
EndChar

StartChar: threequarters
Encoding: 190 190 126
Width: 512
Flags: W
LayerCount: 2
Fore
SplineSet
384 0 m 1,0,-1
 384 64 l 1,1,-1
 384 128 l 1,2,-1
 320 128 l 1,3,-1
 256 128 l 1,4,-1
 256 192 l 1,5,-1
 256 256 l 1,6,-1
 320 256 l 1,7,-1
 320 192 l 1,8,-1
 384 192 l 1,9,-1
 384 256 l 1,10,-1
 448 256 l 1,11,-1
 448 192 l 1,12,-1
 448 128 l 1,13,-1
 448 64 l 1,14,-1
 448 0 l 1,15,-1
 384 0 l 1,0,-1
64 0 m 1,16,-1
 64 64 l 1,17,-1
 64 128 l 1,18,-1
 128 128 l 1,19,-1
 128 64 l 1,20,-1
 128 0 l 1,21,-1
 64 0 l 1,16,-1
128 128 m 1,22,-1
 128 192 l 1,23,-1
 128 256 l 1,24,-1
 192 256 l 1,25,-1
 192 192 l 1,26,-1
 192 128 l 1,27,-1
 128 128 l 1,22,-1
256 256 m 1,28,-1
 192 256 l 1,29,-1
 192 320 l 1,30,-1
 192 384 l 1,31,-1
 192 448 l 1,32,-1
 256 448 l 1,33,-1
 256 384 l 1,34,-1
 256 320 l 1,35,-1
 256 256 l 1,28,-1
256 448 m 1,36,-1
 256 512 l 1,37,-1
 256 576 l 1,38,-1
 256 640 l 1,39,-1
 320 640 l 1,40,-1
 320 704 l 1,41,-1
 384 704 l 1,42,-1
 384 640 l 1,43,-1
 384 576 l 1,44,-1
 320 576 l 1,45,-1
 320 512 l 1,46,-1
 320 448 l 1,47,-1
 256 448 l 1,36,-1
128 512 m 1,48,-1
 64 512 l 1,49,-1
 0 512 l 1,50,-1
 0 576 l 1,51,-1
 64 576 l 1,52,-1
 128 576 l 1,53,-1
 128 640 l 1,54,-1
 192 640 l 1,55,-1
 192 576 l 1,56,-1
 192 512 l 1,57,-1
 128 512 l 1,48,-1
128 640 m 1,58,-1
 64 640 l 1,59,-1
 64 704 l 1,60,-1
 0 704 l 1,61,-1
 0 768 l 1,62,-1
 64 768 l 1,63,-1
 128 768 l 1,64,-1
 192 768 l 1,65,-1
 192 704 l 1,66,-1
 128 704 l 1,67,-1
 128 640 l 1,58,-1
EndSplineSet
Validated: 5
EndChar

StartChar: questiondown
Encoding: 191 191 127
Width: 512
Flags: W
LayerCount: 2
Fore
SplineSet
192 448 m 1,0,-1
 192 512 l 1,1,-1
 192 576 l 1,2,-1
 256 576 l 1,3,-1
 256 512 l 1,4,-1
 256 448 l 1,5,-1
 192 448 l 1,0,-1
320 -64 m 1,6,-1
 384 -64 l 1,7,-1
 384 -128 l 1,8,-1
 320 -128 l 1,9,-1
 256 -128 l 1,10,-1
 192 -128 l 1,11,-1
 192 -64 l 1,12,-1
 256 -64 l 1,13,-1
 320 -64 l 1,6,-1
384 -64 m 1,14,-1
 384 0 l 1,15,-1
 384 64 l 1,16,-1
 448 64 l 1,17,-1
 448 0 l 1,18,-1
 448 -64 l 1,19,-1
 384 -64 l 1,14,-1
192 -64 m 1,20,-1
 128 -64 l 1,21,-1
 128 0 l 1,22,-1
 192 0 l 1,23,-1
 192 -64 l 1,20,-1
128 0 m 1,24,-1
 64 0 l 1,25,-1
 64 64 l 1,26,-1
 64 128 l 1,27,-1
 64 192 l 1,28,-1
 128 192 l 1,29,-1
 128 128 l 1,30,-1
 128 64 l 1,31,-1
 128 0 l 1,24,-1
128 192 m 1,32,-1
 128 256 l 1,33,-1
 192 256 l 1,34,-1
 192 320 l 1,35,-1
 192 384 l 1,36,-1
 256 384 l 1,37,-1
 256 320 l 1,38,-1
 256 256 l 1,39,-1
 256 192 l 1,40,-1
 192 192 l 1,41,-1
 128 192 l 1,32,-1
EndSplineSet
Validated: 5
EndChar

StartChar: Agrave
Encoding: 192 192 128
Width: 576
Flags: W
LayerCount: 2
Fore
SplineSet
448 0 m 1,0,-1
 448 64 l 1,1,-1
 448 128 l 1,2,-1
 448 192 l 1,3,-1
 384 192 l 1,4,-1
 320 192 l 1,5,-1
 320 256 l 1,6,-1
 384 256 l 1,7,-1
 448 256 l 1,8,-1
 448 320 l 1,9,-1
 448 384 l 1,10,-1
 448 448 l 1,11,-1
 512 448 l 1,12,-1
 512 384 l 1,13,-1
 512 320 l 1,14,-1
 512 256 l 1,15,-1
 512 192 l 1,16,-1
 512 128 l 1,17,-1
 512 64 l 1,18,-1
 512 0 l 1,19,-1
 448 0 l 1,0,-1
256 640 m 1,20,-1
 256 704 l 1,21,-1
 320 704 l 1,22,-1
 320 640 l 1,23,-1
 256 640 l 1,20,-1
128 0 m 1,24,-1
 64 0 l 1,25,-1
 64 64 l 1,26,-1
 64 128 l 1,27,-1
 64 192 l 1,28,-1
 64 256 l 1,29,-1
 64 320 l 1,30,-1
 64 384 l 1,31,-1
 64 448 l 1,32,-1
 128 448 l 1,33,-1
 128 384 l 1,34,-1
 128 320 l 1,35,-1
 128 256 l 1,36,-1
 192 256 l 1,37,-1
 256 256 l 1,38,-1
 256 192 l 1,39,-1
 192 192 l 1,40,-1
 128 192 l 1,41,-1
 128 128 l 1,42,-1
 128 64 l 1,43,-1
 192 64 l 1,44,-1
 192 0 l 1,45,-1
 128 0 l 1,24,-1
448 448 m 1,46,-1
 384 448 l 1,47,-1
 384 512 l 1,48,-1
 320 512 l 1,49,-1
 256 512 l 1,50,-1
 192 512 l 1,51,-1
 192 448 l 1,52,-1
 128 448 l 1,53,-1
 128 512 l 1,54,-1
 128 576 l 1,55,-1
 192 576 l 1,56,-1
 256 576 l 1,57,-1
 320 576 l 1,58,-1
 384 576 l 1,59,-1
 448 576 l 1,60,-1
 448 512 l 1,61,-1
 448 448 l 1,46,-1
256 704 m 1,62,-1
 192 704 l 1,63,-1
 192 768 l 1,64,-1
 256 768 l 1,65,-1
 256 704 l 1,62,-1
EndSplineSet
Validated: 5
EndChar

StartChar: AE
Encoding: 198 198 134
Width: 768
Flags: W
LayerCount: 2
Fore
SplineSet
0 0 m 1,0,-1
 0 64 l 1,1,-1
 0 128 l 1,2,-1
 64 128 l 1,3,-1
 64 64 l 1,4,-1
 64 0 l 1,5,-1
 0 0 l 1,0,-1
640 64 m 1,6,-1
 704 64 l 1,7,-1
 704 0 l 1,8,-1
 640 0 l 1,9,-1
 576 0 l 1,10,-1
 512 0 l 1,11,-1
 448 0 l 1,12,-1
 384 0 l 1,13,-1
 320 0 l 1,14,-1
 320 64 l 1,15,-1
 320 128 l 1,16,-1
 320 192 l 1,17,-1
 320 256 l 1,18,-1
 256 256 l 1,19,-1
 192 256 l 1,20,-1
 128 256 l 1,21,-1
 128 192 l 1,22,-1
 128 128 l 1,23,-1
 64 128 l 1,24,-1
 64 192 l 1,25,-1
 64 256 l 1,26,-1
 128 256 l 1,27,-1
 128 320 l 1,28,-1
 128 384 l 1,29,-1
 128 448 l 1,30,-1
 192 448 l 1,31,-1
 192 512 l 1,32,-1
 192 576 l 1,33,-1
 192 640 l 1,34,-1
 256 640 l 1,35,-1
 256 704 l 1,36,-1
 320 704 l 1,37,-1
 384 704 l 1,38,-1
 448 704 l 1,39,-1
 512 704 l 1,40,-1
 576 704 l 1,41,-1
 640 704 l 1,42,-1
 704 704 l 1,43,-1
 704 640 l 1,44,-1
 640 640 l 1,45,-1
 576 640 l 1,46,-1
 512 640 l 1,47,-1
 448 640 l 1,48,-1
 384 640 l 1,49,-1
 384 576 l 1,50,-1
 384 512 l 1,51,-1
 384 448 l 1,52,-1
 384 384 l 1,53,-1
 448 384 l 1,54,-1
 512 384 l 1,55,-1
 576 384 l 1,56,-1
 576 320 l 1,57,-1
 512 320 l 1,58,-1
 448 320 l 1,59,-1
 384 320 l 1,60,-1
 384 256 l 1,61,-1
 384 192 l 1,62,-1
 384 128 l 1,63,-1
 384 64 l 1,64,-1
 448 64 l 1,65,-1
 512 64 l 1,66,-1
 576 64 l 1,67,-1
 640 64 l 1,6,-1
256 320 m 1,68,-1
 320 320 l 1,69,-1
 320 384 l 1,70,-1
 320 448 l 1,71,-1
 320 512 l 1,72,-1
 320 576 l 1,73,-1
 256 576 l 1,74,-1
 256 512 l 1,75,-1
 256 448 l 1,76,-1
 192 448 l 1,77,-1
 192 384 l 1,78,-1
 192 320 l 1,79,-1
 256 320 l 1,68,-1
EndSplineSet
Validated: 5
EndChar

StartChar: Ccedilla
Encoding: 199 199 135
Width: 576
Flags: W
LayerCount: 2
Fore
SplineSet
448 384 m 1,0,-1
 448 448 l 1,1,-1
 448 512 l 1,2,-1
 512 512 l 1,3,-1
 512 448 l 1,4,-1
 512 384 l 1,5,-1
 448 384 l 1,0,-1
256 -128 m 1,6,-1
 320 -128 l 1,7,-1
 320 -192 l 1,8,-1
 256 -192 l 1,9,-1
 192 -192 l 1,10,-1
 192 -128 l 1,11,-1
 256 -128 l 1,6,-1
320 -128 m 1,12,-1
 320 -64 l 1,13,-1
 384 -64 l 1,14,-1
 384 -128 l 1,15,-1
 320 -128 l 1,12,-1
320 -64 m 1,16,-1
 256 -64 l 1,17,-1
 256 0 l 1,18,-1
 192 0 l 1,19,-1
 128 0 l 1,20,-1
 128 64 l 1,21,-1
 64 64 l 1,22,-1
 64 128 l 1,23,-1
 64 192 l 1,24,-1
 64 256 l 1,25,-1
 64 320 l 1,26,-1
 64 384 l 1,27,-1
 64 448 l 1,28,-1
 64 512 l 1,29,-1
 128 512 l 1,30,-1
 128 576 l 1,31,-1
 192 576 l 1,32,-1
 256 576 l 1,33,-1
 320 576 l 1,34,-1
 384 576 l 1,35,-1
 448 576 l 1,36,-1
 448 512 l 1,37,-1
 384 512 l 1,38,-1
 320 512 l 1,39,-1
 256 512 l 1,40,-1
 192 512 l 1,41,-1
 192 448 l 1,42,-1
 128 448 l 1,43,-1
 128 384 l 1,44,-1
 128 320 l 1,45,-1
 128 256 l 1,46,-1
 128 192 l 1,47,-1
 128 128 l 1,48,-1
 192 128 l 1,49,-1
 192 64 l 1,50,-1
 256 64 l 1,51,-1
 320 64 l 1,52,-1
 384 64 l 1,53,-1
 448 64 l 1,54,-1
 448 0 l 1,55,-1
 384 0 l 1,56,-1
 320 0 l 1,57,-1
 320 -64 l 1,16,-1
448 64 m 1,58,-1
 448 128 l 1,59,-1
 448 192 l 1,60,-1
 512 192 l 1,61,-1
 512 128 l 1,62,-1
 512 64 l 1,63,-1
 448 64 l 1,58,-1
EndSplineSet
Validated: 5
EndChar

StartChar: Egrave
Encoding: 200 200 136
Width: 512
Flags: W
LayerCount: 2
Fore
SplineSet
256 640 m 1,0,-1
 256 704 l 1,1,-1
 320 704 l 1,2,-1
 320 640 l 1,3,-1
 256 640 l 1,0,-1
384 64 m 1,4,-1
 448 64 l 1,5,-1
 448 0 l 1,6,-1
 384 0 l 1,7,-1
 320 0 l 1,8,-1
 256 0 l 1,9,-1
 192 0 l 1,10,-1
 128 0 l 1,11,-1
 128 64 l 1,12,-1
 64 64 l 1,13,-1
 64 128 l 1,14,-1
 64 192 l 1,15,-1
 64 256 l 1,16,-1
 64 320 l 1,17,-1
 64 384 l 1,18,-1
 64 448 l 1,19,-1
 64 512 l 1,20,-1
 64 576 l 1,21,-1
 128 576 l 1,22,-1
 192 576 l 1,23,-1
 256 576 l 1,24,-1
 320 576 l 1,25,-1
 384 576 l 1,26,-1
 448 576 l 1,27,-1
 448 512 l 1,28,-1
 384 512 l 1,29,-1
 320 512 l 1,30,-1
 256 512 l 1,31,-1
 192 512 l 1,32,-1
 128 512 l 1,33,-1
 128 448 l 1,34,-1
 128 384 l 1,35,-1
 192 384 l 1,36,-1
 256 384 l 1,37,-1
 320 384 l 1,38,-1
 320 320 l 1,39,-1
 256 320 l 1,40,-1
 192 320 l 1,41,-1
 128 320 l 1,42,-1
 128 256 l 1,43,-1
 128 192 l 1,44,-1
 128 128 l 1,45,-1
 192 128 l 1,46,-1
 192 64 l 1,47,-1
 256 64 l 1,48,-1
 320 64 l 1,49,-1
 384 64 l 1,4,-1
256 704 m 1,50,-1
 192 704 l 1,51,-1
 192 768 l 1,52,-1
 256 768 l 1,53,-1
 256 704 l 1,50,-1
EndSplineSet
Validated: 5
EndChar

StartChar: Eacute
Encoding: 201 201 137
Width: 512
Flags: W
LayerCount: 2
Fore
SplineSet
256 640 m 1,0,-1
 256 704 l 1,1,-1
 320 704 l 1,2,-1
 320 640 l 1,3,-1
 256 640 l 1,0,-1
384 64 m 1,4,-1
 448 64 l 1,5,-1
 448 0 l 1,6,-1
 384 0 l 1,7,-1
 320 0 l 1,8,-1
 256 0 l 1,9,-1
 192 0 l 1,10,-1
 128 0 l 1,11,-1
 128 64 l 1,12,-1
 64 64 l 1,13,-1
 64 128 l 1,14,-1
 64 192 l 1,15,-1
 64 256 l 1,16,-1
 64 320 l 1,17,-1
 64 384 l 1,18,-1
 64 448 l 1,19,-1
 64 512 l 1,20,-1
 64 576 l 1,21,-1
 128 576 l 1,22,-1
 192 576 l 1,23,-1
 256 576 l 1,24,-1
 320 576 l 1,25,-1
 384 576 l 1,26,-1
 448 576 l 1,27,-1
 448 512 l 1,28,-1
 384 512 l 1,29,-1
 320 512 l 1,30,-1
 256 512 l 1,31,-1
 192 512 l 1,32,-1
 128 512 l 1,33,-1
 128 448 l 1,34,-1
 128 384 l 1,35,-1
 192 384 l 1,36,-1
 256 384 l 1,37,-1
 320 384 l 1,38,-1
 320 320 l 1,39,-1
 256 320 l 1,40,-1
 192 320 l 1,41,-1
 128 320 l 1,42,-1
 128 256 l 1,43,-1
 128 192 l 1,44,-1
 128 128 l 1,45,-1
 192 128 l 1,46,-1
 192 64 l 1,47,-1
 256 64 l 1,48,-1
 320 64 l 1,49,-1
 384 64 l 1,4,-1
320 704 m 1,50,-1
 320 768 l 1,51,-1
 384 768 l 1,52,-1
 384 704 l 1,53,-1
 320 704 l 1,50,-1
EndSplineSet
Validated: 5
EndChar

StartChar: Ecircumflex
Encoding: 202 202 138
Width: 512
Flags: W
LayerCount: 2
Fore
SplineSet
320 640 m 1,0,-1
 320 704 l 1,1,-1
 384 704 l 1,2,-1
 384 640 l 1,3,-1
 320 640 l 1,0,-1
192 640 m 1,4,-1
 192 704 l 1,5,-1
 256 704 l 1,6,-1
 256 640 l 1,7,-1
 192 640 l 1,4,-1
384 64 m 1,8,-1
 448 64 l 1,9,-1
 448 0 l 1,10,-1
 384 0 l 1,11,-1
 320 0 l 1,12,-1
 256 0 l 1,13,-1
 192 0 l 1,14,-1
 128 0 l 1,15,-1
 128 64 l 1,16,-1
 64 64 l 1,17,-1
 64 128 l 1,18,-1
 64 192 l 1,19,-1
 64 256 l 1,20,-1
 64 320 l 1,21,-1
 64 384 l 1,22,-1
 64 448 l 1,23,-1
 64 512 l 1,24,-1
 64 576 l 1,25,-1
 128 576 l 1,26,-1
 192 576 l 1,27,-1
 256 576 l 1,28,-1
 320 576 l 1,29,-1
 384 576 l 1,30,-1
 448 576 l 1,31,-1
 448 512 l 1,32,-1
 384 512 l 1,33,-1
 320 512 l 1,34,-1
 256 512 l 1,35,-1
 192 512 l 1,36,-1
 128 512 l 1,37,-1
 128 448 l 1,38,-1
 128 384 l 1,39,-1
 192 384 l 1,40,-1
 256 384 l 1,41,-1
 320 384 l 1,42,-1
 320 320 l 1,43,-1
 256 320 l 1,44,-1
 192 320 l 1,45,-1
 128 320 l 1,46,-1
 128 256 l 1,47,-1
 128 192 l 1,48,-1
 128 128 l 1,49,-1
 192 128 l 1,50,-1
 192 64 l 1,51,-1
 256 64 l 1,52,-1
 320 64 l 1,53,-1
 384 64 l 1,8,-1
320 704 m 1,54,-1
 256 704 l 1,55,-1
 256 768 l 1,56,-1
 320 768 l 1,57,-1
 320 704 l 1,54,-1
EndSplineSet
Validated: 5
EndChar

StartChar: Edieresis
Encoding: 203 203 139
Width: 512
Flags: W
LayerCount: 2
Fore
SplineSet
320 640 m 1,0,-1
 320 704 l 1,1,-1
 384 704 l 1,2,-1
 384 640 l 1,3,-1
 320 640 l 1,0,-1
128 640 m 1,4,-1
 128 704 l 1,5,-1
 192 704 l 1,6,-1
 192 640 l 1,7,-1
 128 640 l 1,4,-1
384 64 m 1,8,-1
 448 64 l 1,9,-1
 448 0 l 1,10,-1
 384 0 l 1,11,-1
 320 0 l 1,12,-1
 256 0 l 1,13,-1
 192 0 l 1,14,-1
 128 0 l 1,15,-1
 128 64 l 1,16,-1
 64 64 l 1,17,-1
 64 128 l 1,18,-1
 64 192 l 1,19,-1
 64 256 l 1,20,-1
 64 320 l 1,21,-1
 64 384 l 1,22,-1
 64 448 l 1,23,-1
 64 512 l 1,24,-1
 64 576 l 1,25,-1
 128 576 l 1,26,-1
 192 576 l 1,27,-1
 256 576 l 1,28,-1
 320 576 l 1,29,-1
 384 576 l 1,30,-1
 448 576 l 1,31,-1
 448 512 l 1,32,-1
 384 512 l 1,33,-1
 320 512 l 1,34,-1
 256 512 l 1,35,-1
 192 512 l 1,36,-1
 128 512 l 1,37,-1
 128 448 l 1,38,-1
 128 384 l 1,39,-1
 192 384 l 1,40,-1
 256 384 l 1,41,-1
 320 384 l 1,42,-1
 320 320 l 1,43,-1
 256 320 l 1,44,-1
 192 320 l 1,45,-1
 128 320 l 1,46,-1
 128 256 l 1,47,-1
 128 192 l 1,48,-1
 128 128 l 1,49,-1
 192 128 l 1,50,-1
 192 64 l 1,51,-1
 256 64 l 1,52,-1
 320 64 l 1,53,-1
 384 64 l 1,8,-1
EndSplineSet
Validated: 1
EndChar

StartChar: Igrave
Encoding: 204 204 140
Width: 192
Flags: W
LayerCount: 2
Fore
SplineSet
64 0 m 1,0,-1
 64 64 l 1,1,-1
 64 128 l 1,2,-1
 64 192 l 1,3,-1
 64 256 l 1,4,-1
 64 320 l 1,5,-1
 64 384 l 1,6,-1
 64 448 l 1,7,-1
 64 512 l 1,8,-1
 64 576 l 1,9,-1
 128 576 l 1,10,-1
 128 512 l 1,11,-1
 128 448 l 1,12,-1
 128 384 l 1,13,-1
 128 320 l 1,14,-1
 128 256 l 1,15,-1
 128 192 l 1,16,-1
 128 128 l 1,17,-1
 128 64 l 1,18,-1
 128 0 l 1,19,-1
 64 0 l 1,0,-1
64 640 m 1,20,-1
 64 704 l 1,21,-1
 128 704 l 1,22,-1
 128 640 l 1,23,-1
 64 640 l 1,20,-1
64 704 m 1,24,-1
 0 704 l 1,25,-1
 0 768 l 1,26,-1
 64 768 l 1,27,-1
 64 704 l 1,24,-1
EndSplineSet
Validated: 5
EndChar

StartChar: Iacute
Encoding: 205 205 141
Width: 256
Flags: W
LayerCount: 2
Fore
SplineSet
64 0 m 1,0,-1
 64 64 l 1,1,-1
 64 128 l 1,2,-1
 64 192 l 1,3,-1
 64 256 l 1,4,-1
 64 320 l 1,5,-1
 64 384 l 1,6,-1
 64 448 l 1,7,-1
 64 512 l 1,8,-1
 64 576 l 1,9,-1
 128 576 l 1,10,-1
 128 512 l 1,11,-1
 128 448 l 1,12,-1
 128 384 l 1,13,-1
 128 320 l 1,14,-1
 128 256 l 1,15,-1
 128 192 l 1,16,-1
 128 128 l 1,17,-1
 128 64 l 1,18,-1
 128 0 l 1,19,-1
 64 0 l 1,0,-1
64 640 m 1,20,-1
 64 704 l 1,21,-1
 128 704 l 1,22,-1
 128 640 l 1,23,-1
 64 640 l 1,20,-1
128 704 m 1,24,-1
 128 768 l 1,25,-1
 192 768 l 1,26,-1
 192 704 l 1,27,-1
 128 704 l 1,24,-1
EndSplineSet
Validated: 5
EndChar

StartChar: Icircumflex
Encoding: 206 206 142
Width: 256
Flags: W
LayerCount: 2
Fore
SplineSet
64 0 m 1,0,-1
 64 64 l 1,1,-1
 64 128 l 1,2,-1
 64 192 l 1,3,-1
 64 256 l 1,4,-1
 64 320 l 1,5,-1
 64 384 l 1,6,-1
 64 448 l 1,7,-1
 64 512 l 1,8,-1
 64 576 l 1,9,-1
 128 576 l 1,10,-1
 128 512 l 1,11,-1
 128 448 l 1,12,-1
 128 384 l 1,13,-1
 128 320 l 1,14,-1
 128 256 l 1,15,-1
 128 192 l 1,16,-1
 128 128 l 1,17,-1
 128 64 l 1,18,-1
 128 0 l 1,19,-1
 64 0 l 1,0,-1
128 640 m 1,20,-1
 128 704 l 1,21,-1
 192 704 l 1,22,-1
 192 640 l 1,23,-1
 128 640 l 1,20,-1
0 640 m 1,24,-1
 0 704 l 1,25,-1
 64 704 l 1,26,-1
 64 640 l 1,27,-1
 0 640 l 1,24,-1
128 704 m 1,28,-1
 64 704 l 1,29,-1
 64 768 l 1,30,-1
 128 768 l 1,31,-1
 128 704 l 1,28,-1
EndSplineSet
Validated: 5
EndChar

StartChar: Idieresis
Encoding: 207 207 143
Width: 256
Flags: W
LayerCount: 2
Fore
SplineSet
64 0 m 1,0,-1
 64 64 l 1,1,-1
 64 128 l 1,2,-1
 64 192 l 1,3,-1
 64 256 l 1,4,-1
 64 320 l 1,5,-1
 64 384 l 1,6,-1
 64 448 l 1,7,-1
 64 512 l 1,8,-1
 64 576 l 1,9,-1
 128 576 l 1,10,-1
 128 512 l 1,11,-1
 128 448 l 1,12,-1
 128 384 l 1,13,-1
 128 320 l 1,14,-1
 128 256 l 1,15,-1
 128 192 l 1,16,-1
 128 128 l 1,17,-1
 128 64 l 1,18,-1
 128 0 l 1,19,-1
 64 0 l 1,0,-1
128 640 m 1,20,-1
 128 704 l 1,21,-1
 192 704 l 1,22,-1
 192 640 l 1,23,-1
 128 640 l 1,20,-1
0 640 m 1,24,-1
 0 704 l 1,25,-1
 64 704 l 1,26,-1
 64 640 l 1,27,-1
 0 640 l 1,24,-1
EndSplineSet
Validated: 1
EndChar

StartChar: Eth
Encoding: 208 208 144
Width: 640
Flags: W
LayerCount: 2
Fore
SplineSet
384 64 m 1,0,-1
 448 64 l 1,1,-1
 448 128 l 1,2,-1
 512 128 l 1,3,-1
 512 192 l 1,4,-1
 512 256 l 1,5,-1
 512 320 l 1,6,-1
 512 384 l 1,7,-1
 512 448 l 1,8,-1
 512 512 l 1,9,-1
 512 576 l 1,10,-1
 448 576 l 1,11,-1
 448 640 l 1,12,-1
 384 640 l 1,13,-1
 320 640 l 1,14,-1
 256 640 l 1,15,-1
 192 640 l 1,16,-1
 128 640 l 1,17,-1
 128 576 l 1,18,-1
 128 512 l 1,19,-1
 128 448 l 1,20,-1
 128 384 l 1,21,-1
 192 384 l 1,22,-1
 256 384 l 1,23,-1
 320 384 l 1,24,-1
 320 320 l 1,25,-1
 256 320 l 1,26,-1
 192 320 l 1,27,-1
 128 320 l 1,28,-1
 128 256 l 1,29,-1
 128 192 l 1,30,-1
 128 128 l 1,31,-1
 128 64 l 1,32,-1
 192 64 l 1,33,-1
 256 64 l 1,34,-1
 320 64 l 1,35,-1
 384 64 l 1,0,-1
384 0 m 1,36,-1
 320 0 l 1,37,-1
 256 0 l 1,38,-1
 192 0 l 1,39,-1
 128 0 l 1,40,-1
 64 0 l 1,41,-1
 64 64 l 1,42,-1
 64 128 l 1,43,-1
 64 192 l 1,44,-1
 64 256 l 1,45,-1
 64 320 l 1,46,-1
 0 320 l 1,47,-1
 0 384 l 1,48,-1
 64 384 l 1,49,-1
 64 448 l 1,50,-1
 64 512 l 1,51,-1
 64 576 l 1,52,-1
 64 640 l 1,53,-1
 64 704 l 1,54,-1
 128 704 l 1,55,-1
 192 704 l 1,56,-1
 256 704 l 1,57,-1
 320 704 l 1,58,-1
 384 704 l 1,59,-1
 448 704 l 1,60,-1
 448 640 l 1,61,-1
 512 640 l 1,62,-1
 576 640 l 1,63,-1
 576 576 l 1,64,-1
 576 512 l 1,65,-1
 576 448 l 1,66,-1
 576 384 l 1,67,-1
 576 320 l 1,68,-1
 576 256 l 1,69,-1
 576 192 l 1,70,-1
 576 128 l 1,71,-1
 576 64 l 1,72,-1
 512 64 l 1,73,-1
 448 64 l 1,74,-1
 448 0 l 1,75,-1
 384 0 l 1,36,-1
EndSplineSet
Validated: 5
EndChar

StartChar: Ntilde
Encoding: 209 209 145
Width: 576
Flags: W
LayerCount: 2
Fore
SplineSet
448 0 m 1,0,-1
 448 64 l 1,1,-1
 384 64 l 1,2,-1
 384 128 l 1,3,-1
 448 128 l 1,4,-1
 448 192 l 1,5,-1
 448 256 l 1,6,-1
 448 320 l 1,7,-1
 448 384 l 1,8,-1
 448 448 l 1,9,-1
 448 512 l 1,10,-1
 448 576 l 1,11,-1
 512 576 l 1,12,-1
 512 512 l 1,13,-1
 512 448 l 1,14,-1
 512 384 l 1,15,-1
 512 320 l 1,16,-1
 512 256 l 1,17,-1
 512 192 l 1,18,-1
 512 128 l 1,19,-1
 512 64 l 1,20,-1
 512 0 l 1,21,-1
 448 0 l 1,0,-1
64 0 m 1,22,-1
 64 64 l 1,23,-1
 64 128 l 1,24,-1
 64 192 l 1,25,-1
 64 256 l 1,26,-1
 64 320 l 1,27,-1
 64 384 l 1,28,-1
 64 448 l 1,29,-1
 64 512 l 1,30,-1
 64 576 l 1,31,-1
 128 576 l 1,32,-1
 128 512 l 1,33,-1
 192 512 l 1,34,-1
 192 448 l 1,35,-1
 256 448 l 1,36,-1
 256 384 l 1,37,-1
 256 320 l 1,38,-1
 320 320 l 1,39,-1
 320 256 l 1,40,-1
 320 192 l 1,41,-1
 384 192 l 1,42,-1
 384 128 l 1,43,-1
 320 128 l 1,44,-1
 320 192 l 1,45,-1
 256 192 l 1,46,-1
 256 256 l 1,47,-1
 256 320 l 1,48,-1
 192 320 l 1,49,-1
 192 384 l 1,50,-1
 192 448 l 1,51,-1
 128 448 l 1,52,-1
 128 384 l 1,53,-1
 128 320 l 1,54,-1
 128 256 l 1,55,-1
 128 192 l 1,56,-1
 128 128 l 1,57,-1
 128 64 l 1,58,-1
 128 0 l 1,59,-1
 64 0 l 1,22,-1
320 576 m 1,60,-1
 320 640 l 1,61,-1
 384 640 l 1,62,-1
 384 576 l 1,63,-1
 320 576 l 1,60,-1
192 576 m 1,64,-1
 192 640 l 1,65,-1
 256 640 l 1,66,-1
 256 576 l 1,67,-1
 192 576 l 1,64,-1
320 640 m 1,68,-1
 256 640 l 1,69,-1
 256 704 l 1,70,-1
 320 704 l 1,71,-1
 320 640 l 1,68,-1
192 640 m 1,72,-1
 128 640 l 1,73,-1
 128 704 l 1,74,-1
 192 704 l 1,75,-1
 192 640 l 1,72,-1
EndSplineSet
Validated: 5
EndChar

StartChar: Ograve
Encoding: 210 210 146
Width: 640
Flags: W
LayerCount: 2
Fore
SplineSet
256 640 m 1,0,-1
 256 704 l 1,1,-1
 320 704 l 1,2,-1
 320 640 l 1,3,-1
 256 640 l 1,0,-1
384 64 m 1,4,-1
 448 64 l 1,5,-1
 448 0 l 1,6,-1
 384 0 l 1,7,-1
 320 0 l 1,8,-1
 256 0 l 1,9,-1
 192 0 l 1,10,-1
 192 64 l 1,11,-1
 256 64 l 1,12,-1
 320 64 l 1,13,-1
 384 64 l 1,4,-1
448 64 m 1,14,-1
 448 128 l 1,15,-1
 512 128 l 1,16,-1
 512 64 l 1,17,-1
 448 64 l 1,14,-1
192 64 m 1,18,-1
 128 64 l 1,19,-1
 128 128 l 1,20,-1
 192 128 l 1,21,-1
 192 64 l 1,18,-1
512 128 m 1,22,-1
 512 192 l 1,23,-1
 512 256 l 1,24,-1
 512 320 l 1,25,-1
 512 384 l 1,26,-1
 512 448 l 1,27,-1
 576 448 l 1,28,-1
 576 384 l 1,29,-1
 576 320 l 1,30,-1
 576 256 l 1,31,-1
 576 192 l 1,32,-1
 576 128 l 1,33,-1
 512 128 l 1,22,-1
128 128 m 1,34,-1
 64 128 l 1,35,-1
 64 192 l 1,36,-1
 64 256 l 1,37,-1
 64 320 l 1,38,-1
 64 384 l 1,39,-1
 64 448 l 1,40,-1
 128 448 l 1,41,-1
 128 384 l 1,42,-1
 128 320 l 1,43,-1
 128 256 l 1,44,-1
 128 192 l 1,45,-1
 128 128 l 1,34,-1
512 448 m 1,46,-1
 448 448 l 1,47,-1
 448 512 l 1,48,-1
 512 512 l 1,49,-1
 512 448 l 1,46,-1
128 448 m 1,50,-1
 128 512 l 1,51,-1
 192 512 l 1,52,-1
 192 448 l 1,53,-1
 128 448 l 1,50,-1
448 512 m 1,54,-1
 384 512 l 1,55,-1
 320 512 l 1,56,-1
 256 512 l 1,57,-1
 192 512 l 1,58,-1
 192 576 l 1,59,-1
 256 576 l 1,60,-1
 320 576 l 1,61,-1
 384 576 l 1,62,-1
 448 576 l 1,63,-1
 448 512 l 1,54,-1
256 704 m 1,64,-1
 192 704 l 1,65,-1
 192 768 l 1,66,-1
 256 768 l 1,67,-1
 256 704 l 1,64,-1
EndSplineSet
Validated: 5
EndChar

StartChar: Oacute
Encoding: 211 211 147
Width: 640
Flags: W
LayerCount: 2
Fore
SplineSet
256 640 m 1,0,-1
 256 704 l 1,1,-1
 320 704 l 1,2,-1
 320 640 l 1,3,-1
 256 640 l 1,0,-1
384 64 m 1,4,-1
 448 64 l 1,5,-1
 448 0 l 1,6,-1
 384 0 l 1,7,-1
 320 0 l 1,8,-1
 256 0 l 1,9,-1
 192 0 l 1,10,-1
 192 64 l 1,11,-1
 256 64 l 1,12,-1
 320 64 l 1,13,-1
 384 64 l 1,4,-1
448 64 m 1,14,-1
 448 128 l 1,15,-1
 512 128 l 1,16,-1
 512 64 l 1,17,-1
 448 64 l 1,14,-1
192 64 m 1,18,-1
 128 64 l 1,19,-1
 128 128 l 1,20,-1
 192 128 l 1,21,-1
 192 64 l 1,18,-1
512 128 m 1,22,-1
 512 192 l 1,23,-1
 512 256 l 1,24,-1
 512 320 l 1,25,-1
 512 384 l 1,26,-1
 512 448 l 1,27,-1
 576 448 l 1,28,-1
 576 384 l 1,29,-1
 576 320 l 1,30,-1
 576 256 l 1,31,-1
 576 192 l 1,32,-1
 576 128 l 1,33,-1
 512 128 l 1,22,-1
128 128 m 1,34,-1
 64 128 l 1,35,-1
 64 192 l 1,36,-1
 64 256 l 1,37,-1
 64 320 l 1,38,-1
 64 384 l 1,39,-1
 64 448 l 1,40,-1
 128 448 l 1,41,-1
 128 384 l 1,42,-1
 128 320 l 1,43,-1
 128 256 l 1,44,-1
 128 192 l 1,45,-1
 128 128 l 1,34,-1
512 448 m 1,46,-1
 448 448 l 1,47,-1
 448 512 l 1,48,-1
 512 512 l 1,49,-1
 512 448 l 1,46,-1
128 448 m 1,50,-1
 128 512 l 1,51,-1
 192 512 l 1,52,-1
 192 448 l 1,53,-1
 128 448 l 1,50,-1
448 512 m 1,54,-1
 384 512 l 1,55,-1
 320 512 l 1,56,-1
 256 512 l 1,57,-1
 192 512 l 1,58,-1
 192 576 l 1,59,-1
 256 576 l 1,60,-1
 320 576 l 1,61,-1
 384 576 l 1,62,-1
 448 576 l 1,63,-1
 448 512 l 1,54,-1
320 704 m 1,64,-1
 320 768 l 1,65,-1
 384 768 l 1,66,-1
 384 704 l 1,67,-1
 320 704 l 1,64,-1
EndSplineSet
Validated: 5
EndChar

StartChar: Ocircumflex
Encoding: 212 212 148
Width: 640
Flags: W
LayerCount: 2
Fore
SplineSet
320 640 m 1,0,-1
 320 704 l 1,1,-1
 384 704 l 1,2,-1
 384 640 l 1,3,-1
 320 640 l 1,0,-1
192 640 m 1,4,-1
 192 704 l 1,5,-1
 256 704 l 1,6,-1
 256 640 l 1,7,-1
 192 640 l 1,4,-1
384 64 m 1,8,-1
 448 64 l 1,9,-1
 448 0 l 1,10,-1
 384 0 l 1,11,-1
 320 0 l 1,12,-1
 256 0 l 1,13,-1
 192 0 l 1,14,-1
 192 64 l 1,15,-1
 256 64 l 1,16,-1
 320 64 l 1,17,-1
 384 64 l 1,8,-1
448 64 m 1,18,-1
 448 128 l 1,19,-1
 512 128 l 1,20,-1
 512 64 l 1,21,-1
 448 64 l 1,18,-1
192 64 m 1,22,-1
 128 64 l 1,23,-1
 128 128 l 1,24,-1
 192 128 l 1,25,-1
 192 64 l 1,22,-1
512 128 m 1,26,-1
 512 192 l 1,27,-1
 512 256 l 1,28,-1
 512 320 l 1,29,-1
 512 384 l 1,30,-1
 512 448 l 1,31,-1
 576 448 l 1,32,-1
 576 384 l 1,33,-1
 576 320 l 1,34,-1
 576 256 l 1,35,-1
 576 192 l 1,36,-1
 576 128 l 1,37,-1
 512 128 l 1,26,-1
128 128 m 1,38,-1
 64 128 l 1,39,-1
 64 192 l 1,40,-1
 64 256 l 1,41,-1
 64 320 l 1,42,-1
 64 384 l 1,43,-1
 64 448 l 1,44,-1
 128 448 l 1,45,-1
 128 384 l 1,46,-1
 128 320 l 1,47,-1
 128 256 l 1,48,-1
 128 192 l 1,49,-1
 128 128 l 1,38,-1
512 448 m 1,50,-1
 448 448 l 1,51,-1
 448 512 l 1,52,-1
 512 512 l 1,53,-1
 512 448 l 1,50,-1
128 448 m 1,54,-1
 128 512 l 1,55,-1
 192 512 l 1,56,-1
 192 448 l 1,57,-1
 128 448 l 1,54,-1
448 512 m 1,58,-1
 384 512 l 1,59,-1
 320 512 l 1,60,-1
 256 512 l 1,61,-1
 192 512 l 1,62,-1
 192 576 l 1,63,-1
 256 576 l 1,64,-1
 320 576 l 1,65,-1
 384 576 l 1,66,-1
 448 576 l 1,67,-1
 448 512 l 1,58,-1
320 704 m 1,68,-1
 256 704 l 1,69,-1
 256 768 l 1,70,-1
 320 768 l 1,71,-1
 320 704 l 1,68,-1
EndSplineSet
Validated: 5
EndChar

StartChar: Otilde
Encoding: 213 213 149
Width: 640
Flags: W
LayerCount: 2
Fore
SplineSet
320 640 m 1,0,-1
 320 704 l 1,1,-1
 384 704 l 1,2,-1
 384 640 l 1,3,-1
 320 640 l 1,0,-1
192 640 m 1,4,-1
 192 704 l 1,5,-1
 256 704 l 1,6,-1
 256 640 l 1,7,-1
 192 640 l 1,4,-1
384 64 m 1,8,-1
 448 64 l 1,9,-1
 448 0 l 1,10,-1
 384 0 l 1,11,-1
 320 0 l 1,12,-1
 256 0 l 1,13,-1
 192 0 l 1,14,-1
 192 64 l 1,15,-1
 256 64 l 1,16,-1
 320 64 l 1,17,-1
 384 64 l 1,8,-1
448 64 m 1,18,-1
 448 128 l 1,19,-1
 512 128 l 1,20,-1
 512 64 l 1,21,-1
 448 64 l 1,18,-1
192 64 m 1,22,-1
 128 64 l 1,23,-1
 128 128 l 1,24,-1
 192 128 l 1,25,-1
 192 64 l 1,22,-1
512 128 m 1,26,-1
 512 192 l 1,27,-1
 512 256 l 1,28,-1
 512 320 l 1,29,-1
 512 384 l 1,30,-1
 512 448 l 1,31,-1
 576 448 l 1,32,-1
 576 384 l 1,33,-1
 576 320 l 1,34,-1
 576 256 l 1,35,-1
 576 192 l 1,36,-1
 576 128 l 1,37,-1
 512 128 l 1,26,-1
128 128 m 1,38,-1
 64 128 l 1,39,-1
 64 192 l 1,40,-1
 64 256 l 1,41,-1
 64 320 l 1,42,-1
 64 384 l 1,43,-1
 64 448 l 1,44,-1
 128 448 l 1,45,-1
 128 384 l 1,46,-1
 128 320 l 1,47,-1
 128 256 l 1,48,-1
 128 192 l 1,49,-1
 128 128 l 1,38,-1
512 448 m 1,50,-1
 448 448 l 1,51,-1
 448 512 l 1,52,-1
 512 512 l 1,53,-1
 512 448 l 1,50,-1
128 448 m 1,54,-1
 128 512 l 1,55,-1
 192 512 l 1,56,-1
 192 448 l 1,57,-1
 128 448 l 1,54,-1
448 512 m 1,58,-1
 384 512 l 1,59,-1
 320 512 l 1,60,-1
 256 512 l 1,61,-1
 192 512 l 1,62,-1
 192 576 l 1,63,-1
 256 576 l 1,64,-1
 320 576 l 1,65,-1
 384 576 l 1,66,-1
 448 576 l 1,67,-1
 448 512 l 1,58,-1
384 704 m 1,68,-1
 384 768 l 1,69,-1
 448 768 l 1,70,-1
 448 704 l 1,71,-1
 384 704 l 1,68,-1
320 704 m 1,72,-1
 256 704 l 1,73,-1
 256 768 l 1,74,-1
 320 768 l 1,75,-1
 320 704 l 1,72,-1
EndSplineSet
Validated: 5
EndChar

StartChar: Odieresis
Encoding: 214 214 150
Width: 640
Flags: W
LayerCount: 2
Fore
SplineSet
384 640 m 1,0,-1
 384 704 l 1,1,-1
 448 704 l 1,2,-1
 448 640 l 1,3,-1
 384 640 l 1,0,-1
192 640 m 1,4,-1
 192 704 l 1,5,-1
 256 704 l 1,6,-1
 256 640 l 1,7,-1
 192 640 l 1,4,-1
384 64 m 1,8,-1
 448 64 l 1,9,-1
 448 0 l 1,10,-1
 384 0 l 1,11,-1
 320 0 l 1,12,-1
 256 0 l 1,13,-1
 192 0 l 1,14,-1
 192 64 l 1,15,-1
 256 64 l 1,16,-1
 320 64 l 1,17,-1
 384 64 l 1,8,-1
448 64 m 1,18,-1
 448 128 l 1,19,-1
 512 128 l 1,20,-1
 512 64 l 1,21,-1
 448 64 l 1,18,-1
192 64 m 1,22,-1
 128 64 l 1,23,-1
 128 128 l 1,24,-1
 192 128 l 1,25,-1
 192 64 l 1,22,-1
512 128 m 1,26,-1
 512 192 l 1,27,-1
 512 256 l 1,28,-1
 512 320 l 1,29,-1
 512 384 l 1,30,-1
 512 448 l 1,31,-1
 576 448 l 1,32,-1
 576 384 l 1,33,-1
 576 320 l 1,34,-1
 576 256 l 1,35,-1
 576 192 l 1,36,-1
 576 128 l 1,37,-1
 512 128 l 1,26,-1
128 128 m 1,38,-1
 64 128 l 1,39,-1
 64 192 l 1,40,-1
 64 256 l 1,41,-1
 64 320 l 1,42,-1
 64 384 l 1,43,-1
 64 448 l 1,44,-1
 128 448 l 1,45,-1
 128 384 l 1,46,-1
 128 320 l 1,47,-1
 128 256 l 1,48,-1
 128 192 l 1,49,-1
 128 128 l 1,38,-1
512 448 m 1,50,-1
 448 448 l 1,51,-1
 448 512 l 1,52,-1
 512 512 l 1,53,-1
 512 448 l 1,50,-1
128 448 m 1,54,-1
 128 512 l 1,55,-1
 192 512 l 1,56,-1
 192 448 l 1,57,-1
 128 448 l 1,54,-1
448 512 m 1,58,-1
 384 512 l 1,59,-1
 320 512 l 1,60,-1
 256 512 l 1,61,-1
 192 512 l 1,62,-1
 192 576 l 1,63,-1
 256 576 l 1,64,-1
 320 576 l 1,65,-1
 384 576 l 1,66,-1
 448 576 l 1,67,-1
 448 512 l 1,58,-1
EndSplineSet
Validated: 5
EndChar

StartChar: multiply
Encoding: 215 215 151
Width: 512
Flags: W
LayerCount: 2
Fore
SplineSet
384 128 m 1,0,-1
 384 192 l 1,1,-1
 320 192 l 1,2,-1
 320 256 l 1,3,-1
 320 320 l 1,4,-1
 384 320 l 1,5,-1
 384 256 l 1,6,-1
 448 256 l 1,7,-1
 448 192 l 1,8,-1
 448 128 l 1,9,-1
 384 128 l 1,0,-1
128 128 m 1,10,-1
 128 192 l 1,11,-1
 128 256 l 1,12,-1
 192 256 l 1,13,-1
 192 320 l 1,14,-1
 256 320 l 1,15,-1
 256 256 l 1,16,-1
 256 192 l 1,17,-1
 192 192 l 1,18,-1
 192 128 l 1,19,-1
 128 128 l 1,10,-1
320 320 m 1,20,-1
 256 320 l 1,21,-1
 256 384 l 1,22,-1
 320 384 l 1,23,-1
 320 320 l 1,20,-1
320 384 m 1,24,-1
 320 448 l 1,25,-1
 320 512 l 1,26,-1
 384 512 l 1,27,-1
 384 576 l 1,28,-1
 448 576 l 1,29,-1
 448 512 l 1,30,-1
 448 448 l 1,31,-1
 384 448 l 1,32,-1
 384 384 l 1,33,-1
 320 384 l 1,24,-1
256 384 m 1,34,-1
 192 384 l 1,35,-1
 192 448 l 1,36,-1
 128 448 l 1,37,-1
 128 512 l 1,38,-1
 128 576 l 1,39,-1
 192 576 l 1,40,-1
 192 512 l 1,41,-1
 256 512 l 1,42,-1
 256 448 l 1,43,-1
 256 384 l 1,34,-1
EndSplineSet
Validated: 5
EndChar

StartChar: Oslash
Encoding: 216 216 152
Width: 704
Flags: W
LayerCount: 2
Fore
SplineSet
64 0 m 1,0,-1
 64 64 l 1,1,-1
 128 64 l 1,2,-1
 128 0 l 1,3,-1
 64 0 l 1,0,-1
448 64 m 1,4,-1
 512 64 l 1,5,-1
 512 0 l 1,6,-1
 448 0 l 1,7,-1
 384 0 l 1,8,-1
 320 0 l 1,9,-1
 256 0 l 1,10,-1
 192 0 l 1,11,-1
 192 64 l 1,12,-1
 256 64 l 1,13,-1
 320 64 l 1,14,-1
 384 64 l 1,15,-1
 448 64 l 1,4,-1
512 64 m 1,16,-1
 512 128 l 1,17,-1
 576 128 l 1,18,-1
 576 64 l 1,19,-1
 512 64 l 1,16,-1
192 64 m 1,20,-1
 128 64 l 1,21,-1
 128 128 l 1,22,-1
 192 128 l 1,23,-1
 192 64 l 1,20,-1
576 128 m 1,24,-1
 576 192 l 1,25,-1
 576 256 l 1,26,-1
 576 320 l 1,27,-1
 576 384 l 1,28,-1
 576 448 l 1,29,-1
 576 512 l 1,30,-1
 576 576 l 1,31,-1
 640 576 l 1,32,-1
 640 512 l 1,33,-1
 640 448 l 1,34,-1
 640 384 l 1,35,-1
 640 320 l 1,36,-1
 640 256 l 1,37,-1
 640 192 l 1,38,-1
 640 128 l 1,39,-1
 576 128 l 1,24,-1
192 128 m 1,40,-1
 192 192 l 1,41,-1
 192 256 l 1,42,-1
 256 256 l 1,43,-1
 256 192 l 1,44,-1
 256 128 l 1,45,-1
 192 128 l 1,40,-1
128 128 m 1,46,-1
 64 128 l 1,47,-1
 64 192 l 1,48,-1
 64 256 l 1,49,-1
 64 320 l 1,50,-1
 64 384 l 1,51,-1
 64 448 l 1,52,-1
 64 512 l 1,53,-1
 64 576 l 1,54,-1
 128 576 l 1,55,-1
 128 512 l 1,56,-1
 128 448 l 1,57,-1
 128 384 l 1,58,-1
 128 320 l 1,59,-1
 128 256 l 1,60,-1
 128 192 l 1,61,-1
 128 128 l 1,46,-1
256 256 m 1,62,-1
 256 320 l 1,63,-1
 320 320 l 1,64,-1
 320 256 l 1,65,-1
 256 256 l 1,62,-1
320 320 m 1,66,-1
 320 384 l 1,67,-1
 384 384 l 1,68,-1
 384 320 l 1,69,-1
 320 320 l 1,66,-1
384 384 m 1,70,-1
 384 448 l 1,71,-1
 448 448 l 1,72,-1
 448 384 l 1,73,-1
 384 384 l 1,70,-1
448 448 m 1,74,-1
 448 512 l 1,75,-1
 448 576 l 1,76,-1
 512 576 l 1,77,-1
 512 512 l 1,78,-1
 512 448 l 1,79,-1
 448 448 l 1,74,-1
576 576 m 1,80,-1
 512 576 l 1,81,-1
 512 640 l 1,82,-1
 576 640 l 1,83,-1
 576 576 l 1,80,-1
128 576 m 1,84,-1
 128 640 l 1,85,-1
 192 640 l 1,86,-1
 192 576 l 1,87,-1
 128 576 l 1,84,-1
576 640 m 1,88,-1
 576 704 l 1,89,-1
 640 704 l 1,90,-1
 640 640 l 1,91,-1
 576 640 l 1,88,-1
512 640 m 1,92,-1
 448 640 l 1,93,-1
 384 640 l 1,94,-1
 320 640 l 1,95,-1
 256 640 l 1,96,-1
 192 640 l 1,97,-1
 192 704 l 1,98,-1
 256 704 l 1,99,-1
 320 704 l 1,100,-1
 384 704 l 1,101,-1
 448 704 l 1,102,-1
 512 704 l 1,103,-1
 512 640 l 1,92,-1
EndSplineSet
Validated: 5
EndChar

StartChar: Ugrave
Encoding: 217 217 153
Width: 576
Flags: W
LayerCount: 2
Fore
SplineSet
256 576 m 1,0,-1
 256 640 l 1,1,-1
 320 640 l 1,2,-1
 320 576 l 1,3,-1
 256 576 l 1,0,-1
320 0 m 1,4,-1
 256 0 l 1,5,-1
 192 0 l 1,6,-1
 192 64 l 1,7,-1
 128 64 l 1,8,-1
 128 128 l 1,9,-1
 192 128 l 1,10,-1
 256 128 l 1,11,-1
 256 64 l 1,12,-1
 320 64 l 1,13,-1
 320 128 l 1,14,-1
 384 128 l 1,15,-1
 448 128 l 1,16,-1
 448 64 l 1,17,-1
 384 64 l 1,18,-1
 384 0 l 1,19,-1
 320 0 l 1,4,-1
448 128 m 1,20,-1
 448 192 l 1,21,-1
 448 256 l 1,22,-1
 448 320 l 1,23,-1
 448 384 l 1,24,-1
 448 448 l 1,25,-1
 448 512 l 1,26,-1
 448 576 l 1,27,-1
 512 576 l 1,28,-1
 512 512 l 1,29,-1
 512 448 l 1,30,-1
 512 384 l 1,31,-1
 512 320 l 1,32,-1
 512 256 l 1,33,-1
 512 192 l 1,34,-1
 512 128 l 1,35,-1
 448 128 l 1,20,-1
128 128 m 1,36,-1
 64 128 l 1,37,-1
 64 192 l 1,38,-1
 64 256 l 1,39,-1
 64 320 l 1,40,-1
 64 384 l 1,41,-1
 64 448 l 1,42,-1
 64 512 l 1,43,-1
 64 576 l 1,44,-1
 128 576 l 1,45,-1
 128 512 l 1,46,-1
 128 448 l 1,47,-1
 128 384 l 1,48,-1
 128 320 l 1,49,-1
 128 256 l 1,50,-1
 128 192 l 1,51,-1
 128 128 l 1,36,-1
256 640 m 1,52,-1
 192 640 l 1,53,-1
 192 704 l 1,54,-1
 256 704 l 1,55,-1
 256 640 l 1,52,-1
EndSplineSet
Validated: 5
EndChar

StartChar: Uacute
Encoding: 218 218 154
Width: 576
Flags: W
LayerCount: 2
Fore
SplineSet
256 576 m 1,0,-1
 256 640 l 1,1,-1
 320 640 l 1,2,-1
 320 576 l 1,3,-1
 256 576 l 1,0,-1
320 0 m 1,4,-1
 256 0 l 1,5,-1
 192 0 l 1,6,-1
 192 64 l 1,7,-1
 128 64 l 1,8,-1
 128 128 l 1,9,-1
 192 128 l 1,10,-1
 256 128 l 1,11,-1
 256 64 l 1,12,-1
 320 64 l 1,13,-1
 320 128 l 1,14,-1
 384 128 l 1,15,-1
 448 128 l 1,16,-1
 448 64 l 1,17,-1
 384 64 l 1,18,-1
 384 0 l 1,19,-1
 320 0 l 1,4,-1
448 128 m 1,20,-1
 448 192 l 1,21,-1
 448 256 l 1,22,-1
 448 320 l 1,23,-1
 448 384 l 1,24,-1
 448 448 l 1,25,-1
 448 512 l 1,26,-1
 448 576 l 1,27,-1
 512 576 l 1,28,-1
 512 512 l 1,29,-1
 512 448 l 1,30,-1
 512 384 l 1,31,-1
 512 320 l 1,32,-1
 512 256 l 1,33,-1
 512 192 l 1,34,-1
 512 128 l 1,35,-1
 448 128 l 1,20,-1
128 128 m 1,36,-1
 64 128 l 1,37,-1
 64 192 l 1,38,-1
 64 256 l 1,39,-1
 64 320 l 1,40,-1
 64 384 l 1,41,-1
 64 448 l 1,42,-1
 64 512 l 1,43,-1
 64 576 l 1,44,-1
 128 576 l 1,45,-1
 128 512 l 1,46,-1
 128 448 l 1,47,-1
 128 384 l 1,48,-1
 128 320 l 1,49,-1
 128 256 l 1,50,-1
 128 192 l 1,51,-1
 128 128 l 1,36,-1
320 640 m 1,52,-1
 320 704 l 1,53,-1
 384 704 l 1,54,-1
 384 640 l 1,55,-1
 320 640 l 1,52,-1
EndSplineSet
Validated: 5
EndChar

StartChar: Ucircumflex
Encoding: 219 219 155
Width: 576
Flags: W
LayerCount: 2
Fore
SplineSet
320 576 m 1,0,-1
 320 640 l 1,1,-1
 384 640 l 1,2,-1
 384 576 l 1,3,-1
 320 576 l 1,0,-1
192 576 m 1,4,-1
 192 640 l 1,5,-1
 256 640 l 1,6,-1
 256 576 l 1,7,-1
 192 576 l 1,4,-1
320 0 m 1,8,-1
 256 0 l 1,9,-1
 192 0 l 1,10,-1
 192 64 l 1,11,-1
 128 64 l 1,12,-1
 128 128 l 1,13,-1
 192 128 l 1,14,-1
 256 128 l 1,15,-1
 256 64 l 1,16,-1
 320 64 l 1,17,-1
 320 128 l 1,18,-1
 384 128 l 1,19,-1
 448 128 l 1,20,-1
 448 64 l 1,21,-1
 384 64 l 1,22,-1
 384 0 l 1,23,-1
 320 0 l 1,8,-1
448 128 m 1,24,-1
 448 192 l 1,25,-1
 448 256 l 1,26,-1
 448 320 l 1,27,-1
 448 384 l 1,28,-1
 448 448 l 1,29,-1
 448 512 l 1,30,-1
 448 576 l 1,31,-1
 512 576 l 1,32,-1
 512 512 l 1,33,-1
 512 448 l 1,34,-1
 512 384 l 1,35,-1
 512 320 l 1,36,-1
 512 256 l 1,37,-1
 512 192 l 1,38,-1
 512 128 l 1,39,-1
 448 128 l 1,24,-1
128 128 m 1,40,-1
 64 128 l 1,41,-1
 64 192 l 1,42,-1
 64 256 l 1,43,-1
 64 320 l 1,44,-1
 64 384 l 1,45,-1
 64 448 l 1,46,-1
 64 512 l 1,47,-1
 64 576 l 1,48,-1
 128 576 l 1,49,-1
 128 512 l 1,50,-1
 128 448 l 1,51,-1
 128 384 l 1,52,-1
 128 320 l 1,53,-1
 128 256 l 1,54,-1
 128 192 l 1,55,-1
 128 128 l 1,40,-1
320 640 m 1,56,-1
 256 640 l 1,57,-1
 256 704 l 1,58,-1
 320 704 l 1,59,-1
 320 640 l 1,56,-1
EndSplineSet
Validated: 5
EndChar

StartChar: Udieresis
Encoding: 220 220 156
Width: 576
Flags: W
LayerCount: 2
Fore
SplineSet
320 576 m 1,0,-1
 320 640 l 1,1,-1
 384 640 l 1,2,-1
 384 576 l 1,3,-1
 320 576 l 1,0,-1
192 576 m 1,4,-1
 192 640 l 1,5,-1
 256 640 l 1,6,-1
 256 576 l 1,7,-1
 192 576 l 1,4,-1
320 0 m 1,8,-1
 256 0 l 1,9,-1
 192 0 l 1,10,-1
 192 64 l 1,11,-1
 128 64 l 1,12,-1
 128 128 l 1,13,-1
 192 128 l 1,14,-1
 256 128 l 1,15,-1
 256 64 l 1,16,-1
 320 64 l 1,17,-1
 320 128 l 1,18,-1
 384 128 l 1,19,-1
 448 128 l 1,20,-1
 448 64 l 1,21,-1
 384 64 l 1,22,-1
 384 0 l 1,23,-1
 320 0 l 1,8,-1
448 128 m 1,24,-1
 448 192 l 1,25,-1
 448 256 l 1,26,-1
 448 320 l 1,27,-1
 448 384 l 1,28,-1
 448 448 l 1,29,-1
 448 512 l 1,30,-1
 448 576 l 1,31,-1
 512 576 l 1,32,-1
 512 512 l 1,33,-1
 512 448 l 1,34,-1
 512 384 l 1,35,-1
 512 320 l 1,36,-1
 512 256 l 1,37,-1
 512 192 l 1,38,-1
 512 128 l 1,39,-1
 448 128 l 1,24,-1
128 128 m 1,40,-1
 64 128 l 1,41,-1
 64 192 l 1,42,-1
 64 256 l 1,43,-1
 64 320 l 1,44,-1
 64 384 l 1,45,-1
 64 448 l 1,46,-1
 64 512 l 1,47,-1
 64 576 l 1,48,-1
 128 576 l 1,49,-1
 128 512 l 1,50,-1
 128 448 l 1,51,-1
 128 384 l 1,52,-1
 128 320 l 1,53,-1
 128 256 l 1,54,-1
 128 192 l 1,55,-1
 128 128 l 1,40,-1
EndSplineSet
Validated: 5
EndChar

StartChar: Yacute
Encoding: 221 221 157
Width: 576
Flags: W
LayerCount: 2
Fore
SplineSet
256 576 m 1,0,-1
 256 640 l 1,1,-1
 320 640 l 1,2,-1
 320 576 l 1,3,-1
 256 576 l 1,0,-1
320 0 m 1,4,-1
 256 0 l 1,5,-1
 256 64 l 1,6,-1
 256 128 l 1,7,-1
 256 192 l 1,8,-1
 256 256 l 1,9,-1
 192 256 l 1,10,-1
 192 320 l 1,11,-1
 256 320 l 1,12,-1
 320 320 l 1,13,-1
 384 320 l 1,14,-1
 384 256 l 1,15,-1
 320 256 l 1,16,-1
 320 192 l 1,17,-1
 320 128 l 1,18,-1
 320 64 l 1,19,-1
 384 64 l 1,20,-1
 384 0 l 1,21,-1
 320 0 l 1,4,-1
384 320 m 1,22,-1
 384 384 l 1,23,-1
 384 448 l 1,24,-1
 448 448 l 1,25,-1
 448 384 l 1,26,-1
 448 320 l 1,27,-1
 384 320 l 1,22,-1
192 320 m 1,28,-1
 128 320 l 1,29,-1
 128 384 l 1,30,-1
 128 448 l 1,31,-1
 192 448 l 1,32,-1
 192 384 l 1,33,-1
 192 320 l 1,28,-1
448 448 m 1,34,-1
 448 512 l 1,35,-1
 448 576 l 1,36,-1
 512 576 l 1,37,-1
 512 512 l 1,38,-1
 512 448 l 1,39,-1
 448 448 l 1,34,-1
128 448 m 1,40,-1
 64 448 l 1,41,-1
 64 512 l 1,42,-1
 64 576 l 1,43,-1
 128 576 l 1,44,-1
 128 512 l 1,45,-1
 128 448 l 1,40,-1
320 640 m 1,46,-1
 320 704 l 1,47,-1
 384 704 l 1,48,-1
 384 640 l 1,49,-1
 320 640 l 1,46,-1
EndSplineSet
Validated: 5
EndChar

StartChar: Thorn
Encoding: 222 222 158
Width: 640
Flags: W
LayerCount: 2
Fore
SplineSet
64 0 m 1,0,-1
 64 64 l 1,1,-1
 64 128 l 1,2,-1
 64 192 l 1,3,-1
 64 256 l 1,4,-1
 64 320 l 1,5,-1
 64 384 l 1,6,-1
 64 448 l 1,7,-1
 64 512 l 1,8,-1
 64 576 l 1,9,-1
 64 640 l 1,10,-1
 64 704 l 1,11,-1
 128 704 l 1,12,-1
 128 640 l 1,13,-1
 128 576 l 1,14,-1
 192 576 l 1,15,-1
 256 576 l 1,16,-1
 320 576 l 1,17,-1
 384 576 l 1,18,-1
 448 576 l 1,19,-1
 512 576 l 1,20,-1
 512 512 l 1,21,-1
 576 512 l 1,22,-1
 576 448 l 1,23,-1
 576 384 l 1,24,-1
 576 320 l 1,25,-1
 576 256 l 1,26,-1
 512 256 l 1,27,-1
 512 320 l 1,28,-1
 512 384 l 1,29,-1
 512 448 l 1,30,-1
 512 512 l 1,31,-1
 448 512 l 1,32,-1
 384 512 l 1,33,-1
 320 512 l 1,34,-1
 256 512 l 1,35,-1
 192 512 l 1,36,-1
 128 512 l 1,37,-1
 128 448 l 1,38,-1
 128 384 l 1,39,-1
 128 320 l 1,40,-1
 128 256 l 1,41,-1
 192 256 l 1,42,-1
 256 256 l 1,43,-1
 320 256 l 1,44,-1
 384 256 l 1,45,-1
 448 256 l 1,46,-1
 512 256 l 1,47,-1
 512 192 l 1,48,-1
 448 192 l 1,49,-1
 384 192 l 1,50,-1
 320 192 l 1,51,-1
 256 192 l 1,52,-1
 192 192 l 1,53,-1
 128 192 l 1,54,-1
 128 128 l 1,55,-1
 128 64 l 1,56,-1
 128 0 l 1,57,-1
 64 0 l 1,0,-1
EndSplineSet
Validated: 5
EndChar

StartChar: germandbls
Encoding: 223 223 159
Width: 576
Flags: W
LayerCount: 2
Fore
SplineSet
64 0 m 1,0,-1
 64 64 l 1,1,-1
 64 128 l 1,2,-1
 64 192 l 1,3,-1
 64 256 l 1,4,-1
 64 320 l 1,5,-1
 64 384 l 1,6,-1
 64 448 l 1,7,-1
 64 512 l 1,8,-1
 64 576 l 1,9,-1
 128 576 l 1,10,-1
 128 512 l 1,11,-1
 128 448 l 1,12,-1
 128 384 l 1,13,-1
 128 320 l 1,14,-1
 128 256 l 1,15,-1
 128 192 l 1,16,-1
 128 128 l 1,17,-1
 128 64 l 1,18,-1
 128 0 l 1,19,-1
 64 0 l 1,0,-1
448 0 m 1,20,-1
 384 0 l 1,21,-1
 320 0 l 1,22,-1
 256 0 l 1,23,-1
 256 64 l 1,24,-1
 320 64 l 1,25,-1
 384 64 l 1,26,-1
 448 64 l 1,27,-1
 448 128 l 1,28,-1
 448 192 l 1,29,-1
 448 256 l 1,30,-1
 512 256 l 1,31,-1
 512 192 l 1,32,-1
 512 128 l 1,33,-1
 512 64 l 1,34,-1
 512 0 l 1,35,-1
 448 0 l 1,20,-1
256 64 m 1,36,-1
 192 64 l 1,37,-1
 192 128 l 1,38,-1
 256 128 l 1,39,-1
 256 64 l 1,36,-1
448 256 m 1,40,-1
 384 256 l 1,41,-1
 320 256 l 1,42,-1
 320 320 l 1,43,-1
 384 320 l 1,44,-1
 448 320 l 1,45,-1
 448 256 l 1,40,-1
320 320 m 1,46,-1
 256 320 l 1,47,-1
 256 384 l 1,48,-1
 320 384 l 1,49,-1
 320 320 l 1,46,-1
320 384 m 1,50,-1
 320 448 l 1,51,-1
 320 512 l 1,52,-1
 384 512 l 1,53,-1
 384 448 l 1,54,-1
 384 384 l 1,55,-1
 320 384 l 1,50,-1
384 512 m 1,56,-1
 384 576 l 1,57,-1
 384 640 l 1,58,-1
 448 640 l 1,59,-1
 448 576 l 1,60,-1
 448 512 l 1,61,-1
 384 512 l 1,56,-1
384 640 m 1,62,-1
 320 640 l 1,63,-1
 256 640 l 1,64,-1
 192 640 l 1,65,-1
 128 640 l 1,66,-1
 128 704 l 1,67,-1
 192 704 l 1,68,-1
 256 704 l 1,69,-1
 320 704 l 1,70,-1
 384 704 l 1,71,-1
 384 640 l 1,62,-1
EndSplineSet
Validated: 5
EndChar

StartChar: agrave
Encoding: 224 224 160
Width: 640
Flags: W
LayerCount: 2
Fore
SplineSet
256 512 m 1,0,-1
 256 576 l 1,1,-1
 320 576 l 1,2,-1
 320 512 l 1,3,-1
 256 512 l 1,0,-1
512 64 m 1,4,-1
 576 64 l 1,5,-1
 576 0 l 1,6,-1
 512 0 l 1,7,-1
 448 0 l 1,8,-1
 448 64 l 1,9,-1
 512 64 l 1,4,-1
320 0 m 1,10,-1
 256 0 l 1,11,-1
 192 0 l 1,12,-1
 128 0 l 1,13,-1
 128 64 l 1,14,-1
 64 64 l 1,15,-1
 64 128 l 1,16,-1
 64 192 l 1,17,-1
 64 256 l 1,18,-1
 64 320 l 1,19,-1
 64 384 l 1,20,-1
 128 384 l 1,21,-1
 128 448 l 1,22,-1
 192 448 l 1,23,-1
 256 448 l 1,24,-1
 320 448 l 1,25,-1
 384 448 l 1,26,-1
 448 448 l 1,27,-1
 448 384 l 1,28,-1
 512 384 l 1,29,-1
 512 320 l 1,30,-1
 448 320 l 1,31,-1
 448 256 l 1,32,-1
 448 192 l 1,33,-1
 448 128 l 1,34,-1
 448 64 l 1,35,-1
 384 64 l 1,36,-1
 384 0 l 1,37,-1
 320 0 l 1,10,-1
256 64 m 1,38,-1
 320 64 l 1,39,-1
 320 128 l 1,40,-1
 384 128 l 1,41,-1
 384 192 l 1,42,-1
 384 256 l 1,43,-1
 384 320 l 1,44,-1
 384 384 l 1,45,-1
 320 384 l 1,46,-1
 256 384 l 1,47,-1
 192 384 l 1,48,-1
 192 320 l 1,49,-1
 128 320 l 1,50,-1
 128 256 l 1,51,-1
 128 192 l 1,52,-1
 128 128 l 1,53,-1
 128 64 l 1,54,-1
 192 64 l 1,55,-1
 256 64 l 1,38,-1
256 576 m 1,56,-1
 192 576 l 1,57,-1
 192 640 l 1,58,-1
 256 640 l 1,59,-1
 256 576 l 1,56,-1
EndSplineSet
Validated: 5
EndChar

StartChar: acircumflex
Encoding: 226 226 162
Width: 640
Flags: W
LayerCount: 2
Fore
SplineSet
320 512 m 1,0,-1
 320 576 l 1,1,-1
 384 576 l 1,2,-1
 384 512 l 1,3,-1
 320 512 l 1,0,-1
192 512 m 1,4,-1
 192 576 l 1,5,-1
 256 576 l 1,6,-1
 256 512 l 1,7,-1
 192 512 l 1,4,-1
512 64 m 1,8,-1
 576 64 l 1,9,-1
 576 0 l 1,10,-1
 512 0 l 1,11,-1
 448 0 l 1,12,-1
 448 64 l 1,13,-1
 512 64 l 1,8,-1
320 0 m 1,14,-1
 256 0 l 1,15,-1
 192 0 l 1,16,-1
 128 0 l 1,17,-1
 128 64 l 1,18,-1
 64 64 l 1,19,-1
 64 128 l 1,20,-1
 64 192 l 1,21,-1
 64 256 l 1,22,-1
 64 320 l 1,23,-1
 64 384 l 1,24,-1
 128 384 l 1,25,-1
 128 448 l 1,26,-1
 192 448 l 1,27,-1
 256 448 l 1,28,-1
 320 448 l 1,29,-1
 384 448 l 1,30,-1
 448 448 l 1,31,-1
 448 384 l 1,32,-1
 512 384 l 1,33,-1
 512 320 l 1,34,-1
 448 320 l 1,35,-1
 448 256 l 1,36,-1
 448 192 l 1,37,-1
 448 128 l 1,38,-1
 448 64 l 1,39,-1
 384 64 l 1,40,-1
 384 0 l 1,41,-1
 320 0 l 1,14,-1
256 64 m 1,42,-1
 320 64 l 1,43,-1
 320 128 l 1,44,-1
 384 128 l 1,45,-1
 384 192 l 1,46,-1
 384 256 l 1,47,-1
 384 320 l 1,48,-1
 384 384 l 1,49,-1
 320 384 l 1,50,-1
 256 384 l 1,51,-1
 192 384 l 1,52,-1
 192 320 l 1,53,-1
 128 320 l 1,54,-1
 128 256 l 1,55,-1
 128 192 l 1,56,-1
 128 128 l 1,57,-1
 128 64 l 1,58,-1
 192 64 l 1,59,-1
 256 64 l 1,42,-1
320 576 m 1,60,-1
 256 576 l 1,61,-1
 256 640 l 1,62,-1
 320 640 l 1,63,-1
 320 576 l 1,60,-1
EndSplineSet
Validated: 5
EndChar

StartChar: atilde
Encoding: 227 227 163
Width: 640
Flags: W
LayerCount: 2
Fore
SplineSet
256 512 m 1,0,-1
 256 576 l 1,1,-1
 320 576 l 1,2,-1
 320 512 l 1,3,-1
 256 512 l 1,0,-1
128 512 m 1,4,-1
 128 576 l 1,5,-1
 192 576 l 1,6,-1
 192 512 l 1,7,-1
 128 512 l 1,4,-1
512 64 m 1,8,-1
 576 64 l 1,9,-1
 576 0 l 1,10,-1
 512 0 l 1,11,-1
 448 0 l 1,12,-1
 448 64 l 1,13,-1
 512 64 l 1,8,-1
320 0 m 1,14,-1
 256 0 l 1,15,-1
 192 0 l 1,16,-1
 128 0 l 1,17,-1
 128 64 l 1,18,-1
 64 64 l 1,19,-1
 64 128 l 1,20,-1
 64 192 l 1,21,-1
 64 256 l 1,22,-1
 64 320 l 1,23,-1
 64 384 l 1,24,-1
 128 384 l 1,25,-1
 128 448 l 1,26,-1
 192 448 l 1,27,-1
 256 448 l 1,28,-1
 320 448 l 1,29,-1
 384 448 l 1,30,-1
 448 448 l 1,31,-1
 448 384 l 1,32,-1
 512 384 l 1,33,-1
 512 320 l 1,34,-1
 448 320 l 1,35,-1
 448 256 l 1,36,-1
 448 192 l 1,37,-1
 448 128 l 1,38,-1
 448 64 l 1,39,-1
 384 64 l 1,40,-1
 384 0 l 1,41,-1
 320 0 l 1,14,-1
256 64 m 1,42,-1
 320 64 l 1,43,-1
 320 128 l 1,44,-1
 384 128 l 1,45,-1
 384 192 l 1,46,-1
 384 256 l 1,47,-1
 384 320 l 1,48,-1
 384 384 l 1,49,-1
 320 384 l 1,50,-1
 256 384 l 1,51,-1
 192 384 l 1,52,-1
 192 320 l 1,53,-1
 128 320 l 1,54,-1
 128 256 l 1,55,-1
 128 192 l 1,56,-1
 128 128 l 1,57,-1
 128 64 l 1,58,-1
 192 64 l 1,59,-1
 256 64 l 1,42,-1
320 576 m 1,60,-1
 320 640 l 1,61,-1
 384 640 l 1,62,-1
 384 576 l 1,63,-1
 320 576 l 1,60,-1
256 576 m 1,64,-1
 192 576 l 1,65,-1
 192 640 l 1,66,-1
 256 640 l 1,67,-1
 256 576 l 1,64,-1
EndSplineSet
Validated: 5
EndChar

StartChar: adieresis
Encoding: 228 228 164
Width: 640
Flags: W
LayerCount: 2
Fore
SplineSet
320 512 m 1,0,-1
 320 576 l 1,1,-1
 384 576 l 1,2,-1
 384 512 l 1,3,-1
 320 512 l 1,0,-1
128 512 m 1,4,-1
 128 576 l 1,5,-1
 192 576 l 1,6,-1
 192 512 l 1,7,-1
 128 512 l 1,4,-1
512 64 m 1,8,-1
 576 64 l 1,9,-1
 576 0 l 1,10,-1
 512 0 l 1,11,-1
 448 0 l 1,12,-1
 448 64 l 1,13,-1
 512 64 l 1,8,-1
320 0 m 1,14,-1
 256 0 l 1,15,-1
 192 0 l 1,16,-1
 128 0 l 1,17,-1
 128 64 l 1,18,-1
 64 64 l 1,19,-1
 64 128 l 1,20,-1
 64 192 l 1,21,-1
 64 256 l 1,22,-1
 64 320 l 1,23,-1
 64 384 l 1,24,-1
 128 384 l 1,25,-1
 128 448 l 1,26,-1
 192 448 l 1,27,-1
 256 448 l 1,28,-1
 320 448 l 1,29,-1
 384 448 l 1,30,-1
 448 448 l 1,31,-1
 448 384 l 1,32,-1
 512 384 l 1,33,-1
 512 320 l 1,34,-1
 448 320 l 1,35,-1
 448 256 l 1,36,-1
 448 192 l 1,37,-1
 448 128 l 1,38,-1
 448 64 l 1,39,-1
 384 64 l 1,40,-1
 384 0 l 1,41,-1
 320 0 l 1,14,-1
256 64 m 1,42,-1
 320 64 l 1,43,-1
 320 128 l 1,44,-1
 384 128 l 1,45,-1
 384 192 l 1,46,-1
 384 256 l 1,47,-1
 384 320 l 1,48,-1
 384 384 l 1,49,-1
 320 384 l 1,50,-1
 256 384 l 1,51,-1
 192 384 l 1,52,-1
 192 320 l 1,53,-1
 128 320 l 1,54,-1
 128 256 l 1,55,-1
 128 192 l 1,56,-1
 128 128 l 1,57,-1
 128 64 l 1,58,-1
 192 64 l 1,59,-1
 256 64 l 1,42,-1
EndSplineSet
Validated: 5
EndChar

StartChar: aring
Encoding: 229 229 165
Width: 640
Flags: W
LayerCount: 2
Fore
SplineSet
256 512 m 1,0,-1
 256 576 l 1,1,-1
 320 576 l 1,2,-1
 320 512 l 1,3,-1
 256 512 l 1,0,-1
512 64 m 1,4,-1
 576 64 l 1,5,-1
 576 0 l 1,6,-1
 512 0 l 1,7,-1
 448 0 l 1,8,-1
 448 64 l 1,9,-1
 512 64 l 1,4,-1
320 0 m 1,10,-1
 256 0 l 1,11,-1
 192 0 l 1,12,-1
 128 0 l 1,13,-1
 128 64 l 1,14,-1
 64 64 l 1,15,-1
 64 128 l 1,16,-1
 64 192 l 1,17,-1
 64 256 l 1,18,-1
 64 320 l 1,19,-1
 64 384 l 1,20,-1
 128 384 l 1,21,-1
 128 448 l 1,22,-1
 192 448 l 1,23,-1
 256 448 l 1,24,-1
 320 448 l 1,25,-1
 384 448 l 1,26,-1
 448 448 l 1,27,-1
 448 384 l 1,28,-1
 512 384 l 1,29,-1
 512 320 l 1,30,-1
 448 320 l 1,31,-1
 448 256 l 1,32,-1
 448 192 l 1,33,-1
 448 128 l 1,34,-1
 448 64 l 1,35,-1
 384 64 l 1,36,-1
 384 0 l 1,37,-1
 320 0 l 1,10,-1
256 64 m 1,38,-1
 320 64 l 1,39,-1
 320 128 l 1,40,-1
 384 128 l 1,41,-1
 384 192 l 1,42,-1
 384 256 l 1,43,-1
 384 320 l 1,44,-1
 384 384 l 1,45,-1
 320 384 l 1,46,-1
 256 384 l 1,47,-1
 192 384 l 1,48,-1
 192 320 l 1,49,-1
 128 320 l 1,50,-1
 128 256 l 1,51,-1
 128 192 l 1,52,-1
 128 128 l 1,53,-1
 128 64 l 1,54,-1
 192 64 l 1,55,-1
 256 64 l 1,38,-1
320 576 m 1,56,-1
 320 640 l 1,57,-1
 384 640 l 1,58,-1
 384 576 l 1,59,-1
 320 576 l 1,56,-1
256 576 m 1,60,-1
 192 576 l 1,61,-1
 192 640 l 1,62,-1
 256 640 l 1,63,-1
 256 576 l 1,60,-1
320 640 m 1,64,-1
 256 640 l 1,65,-1
 256 704 l 1,66,-1
 320 704 l 1,67,-1
 320 640 l 1,64,-1
EndSplineSet
Validated: 5
EndChar

StartChar: ae
Encoding: 230 230 166
Width: 832
Flags: W
LayerCount: 2
Fore
SplineSet
704 0 m 1,0,-1
 640 0 l 1,1,-1
 576 0 l 1,2,-1
 512 0 l 1,3,-1
 448 0 l 1,4,-1
 448 64 l 1,5,-1
 512 64 l 1,6,-1
 576 64 l 1,7,-1
 640 64 l 1,8,-1
 704 64 l 1,9,-1
 704 128 l 1,10,-1
 768 128 l 1,11,-1
 768 64 l 1,12,-1
 768 0 l 1,13,-1
 704 0 l 1,0,-1
320 0 m 1,14,-1
 256 0 l 1,15,-1
 192 0 l 1,16,-1
 128 0 l 1,17,-1
 128 64 l 1,18,-1
 192 64 l 1,19,-1
 256 64 l 1,20,-1
 320 64 l 1,21,-1
 320 128 l 1,22,-1
 384 128 l 1,23,-1
 384 192 l 1,24,-1
 384 256 l 1,25,-1
 384 320 l 1,26,-1
 384 384 l 1,27,-1
 448 384 l 1,28,-1
 448 320 l 1,29,-1
 448 256 l 1,30,-1
 512 256 l 1,31,-1
 576 256 l 1,32,-1
 640 256 l 1,33,-1
 704 256 l 1,34,-1
 704 320 l 1,35,-1
 704 384 l 1,36,-1
 768 384 l 1,37,-1
 768 320 l 1,38,-1
 768 256 l 1,39,-1
 768 192 l 1,40,-1
 704 192 l 1,41,-1
 640 192 l 1,42,-1
 576 192 l 1,43,-1
 512 192 l 1,44,-1
 448 192 l 1,45,-1
 448 128 l 1,46,-1
 448 64 l 1,47,-1
 384 64 l 1,48,-1
 384 0 l 1,49,-1
 320 0 l 1,14,-1
128 64 m 1,50,-1
 64 64 l 1,51,-1
 64 128 l 1,52,-1
 64 192 l 1,53,-1
 64 256 l 1,54,-1
 64 320 l 1,55,-1
 64 384 l 1,56,-1
 128 384 l 1,57,-1
 128 448 l 1,58,-1
 192 448 l 1,59,-1
 256 448 l 1,60,-1
 320 448 l 1,61,-1
 384 448 l 1,62,-1
 384 384 l 1,63,-1
 320 384 l 1,64,-1
 256 384 l 1,65,-1
 192 384 l 1,66,-1
 192 320 l 1,67,-1
 128 320 l 1,68,-1
 128 256 l 1,69,-1
 128 192 l 1,70,-1
 128 128 l 1,71,-1
 128 64 l 1,50,-1
704 384 m 1,72,-1
 640 384 l 1,73,-1
 576 384 l 1,74,-1
 512 384 l 1,75,-1
 448 384 l 1,76,-1
 448 448 l 1,77,-1
 512 448 l 1,78,-1
 576 448 l 1,79,-1
 640 448 l 1,80,-1
 704 448 l 1,81,-1
 704 384 l 1,72,-1
EndSplineSet
Validated: 5
EndChar

StartChar: ccedilla
Encoding: 231 231 167
Width: 512
Flags: W
LayerCount: 2
Fore
SplineSet
384 320 m 1,0,-1
 384 384 l 1,1,-1
 448 384 l 1,2,-1
 448 320 l 1,3,-1
 384 320 l 1,0,-1
256 -128 m 1,4,-1
 320 -128 l 1,5,-1
 320 -192 l 1,6,-1
 256 -192 l 1,7,-1
 192 -192 l 1,8,-1
 192 -128 l 1,9,-1
 256 -128 l 1,4,-1
320 -128 m 1,10,-1
 320 -64 l 1,11,-1
 384 -64 l 1,12,-1
 384 -128 l 1,13,-1
 320 -128 l 1,10,-1
320 -64 m 1,14,-1
 256 -64 l 1,15,-1
 256 0 l 1,16,-1
 192 0 l 1,17,-1
 128 0 l 1,18,-1
 128 64 l 1,19,-1
 64 64 l 1,20,-1
 64 128 l 1,21,-1
 64 192 l 1,22,-1
 64 256 l 1,23,-1
 64 320 l 1,24,-1
 64 384 l 1,25,-1
 128 384 l 1,26,-1
 128 448 l 1,27,-1
 192 448 l 1,28,-1
 256 448 l 1,29,-1
 320 448 l 1,30,-1
 384 448 l 1,31,-1
 384 384 l 1,32,-1
 320 384 l 1,33,-1
 256 384 l 1,34,-1
 192 384 l 1,35,-1
 192 320 l 1,36,-1
 128 320 l 1,37,-1
 128 256 l 1,38,-1
 128 192 l 1,39,-1
 128 128 l 1,40,-1
 192 128 l 1,41,-1
 192 64 l 1,42,-1
 256 64 l 1,43,-1
 320 64 l 1,44,-1
 384 64 l 1,45,-1
 384 0 l 1,46,-1
 320 0 l 1,47,-1
 320 -64 l 1,14,-1
384 64 m 1,48,-1
 384 128 l 1,49,-1
 448 128 l 1,50,-1
 448 64 l 1,51,-1
 384 64 l 1,48,-1
EndSplineSet
Validated: 5
EndChar

StartChar: egrave
Encoding: 232 232 168
Width: 512
Flags: W
LayerCount: 2
Fore
SplineSet
256 512 m 1,0,-1
 256 576 l 1,1,-1
 320 576 l 1,2,-1
 320 512 l 1,3,-1
 256 512 l 1,0,-1
320 64 m 1,4,-1
 384 64 l 1,5,-1
 384 0 l 1,6,-1
 320 0 l 1,7,-1
 256 0 l 1,8,-1
 192 0 l 1,9,-1
 128 0 l 1,10,-1
 128 64 l 1,11,-1
 64 64 l 1,12,-1
 64 128 l 1,13,-1
 64 192 l 1,14,-1
 64 256 l 1,15,-1
 64 320 l 1,16,-1
 64 384 l 1,17,-1
 128 384 l 1,18,-1
 128 448 l 1,19,-1
 192 448 l 1,20,-1
 256 448 l 1,21,-1
 320 448 l 1,22,-1
 384 448 l 1,23,-1
 384 384 l 1,24,-1
 320 384 l 1,25,-1
 256 384 l 1,26,-1
 192 384 l 1,27,-1
 192 320 l 1,28,-1
 128 320 l 1,29,-1
 128 256 l 1,30,-1
 192 256 l 1,31,-1
 256 256 l 1,32,-1
 320 256 l 1,33,-1
 384 256 l 1,34,-1
 384 320 l 1,35,-1
 384 384 l 1,36,-1
 448 384 l 1,37,-1
 448 320 l 1,38,-1
 448 256 l 1,39,-1
 448 192 l 1,40,-1
 384 192 l 1,41,-1
 320 192 l 1,42,-1
 256 192 l 1,43,-1
 192 192 l 1,44,-1
 128 192 l 1,45,-1
 128 128 l 1,46,-1
 192 128 l 1,47,-1
 192 64 l 1,48,-1
 256 64 l 1,49,-1
 320 64 l 1,4,-1
384 64 m 1,50,-1
 384 128 l 1,51,-1
 448 128 l 1,52,-1
 448 64 l 1,53,-1
 384 64 l 1,50,-1
256 576 m 1,54,-1
 192 576 l 1,55,-1
 192 640 l 1,56,-1
 256 640 l 1,57,-1
 256 576 l 1,54,-1
EndSplineSet
Validated: 5
EndChar

StartChar: eacute
Encoding: 233 233 169
Width: 512
Flags: W
LayerCount: 2
Fore
SplineSet
256 512 m 1,0,-1
 256 576 l 1,1,-1
 320 576 l 1,2,-1
 320 512 l 1,3,-1
 256 512 l 1,0,-1
320 64 m 1,4,-1
 384 64 l 1,5,-1
 384 0 l 1,6,-1
 320 0 l 1,7,-1
 256 0 l 1,8,-1
 192 0 l 1,9,-1
 128 0 l 1,10,-1
 128 64 l 1,11,-1
 64 64 l 1,12,-1
 64 128 l 1,13,-1
 64 192 l 1,14,-1
 64 256 l 1,15,-1
 64 320 l 1,16,-1
 64 384 l 1,17,-1
 128 384 l 1,18,-1
 128 448 l 1,19,-1
 192 448 l 1,20,-1
 256 448 l 1,21,-1
 320 448 l 1,22,-1
 384 448 l 1,23,-1
 384 384 l 1,24,-1
 320 384 l 1,25,-1
 256 384 l 1,26,-1
 192 384 l 1,27,-1
 192 320 l 1,28,-1
 128 320 l 1,29,-1
 128 256 l 1,30,-1
 192 256 l 1,31,-1
 256 256 l 1,32,-1
 320 256 l 1,33,-1
 384 256 l 1,34,-1
 384 320 l 1,35,-1
 384 384 l 1,36,-1
 448 384 l 1,37,-1
 448 320 l 1,38,-1
 448 256 l 1,39,-1
 448 192 l 1,40,-1
 384 192 l 1,41,-1
 320 192 l 1,42,-1
 256 192 l 1,43,-1
 192 192 l 1,44,-1
 128 192 l 1,45,-1
 128 128 l 1,46,-1
 192 128 l 1,47,-1
 192 64 l 1,48,-1
 256 64 l 1,49,-1
 320 64 l 1,4,-1
384 64 m 1,50,-1
 384 128 l 1,51,-1
 448 128 l 1,52,-1
 448 64 l 1,53,-1
 384 64 l 1,50,-1
320 576 m 1,54,-1
 320 640 l 1,55,-1
 384 640 l 1,56,-1
 384 576 l 1,57,-1
 320 576 l 1,54,-1
EndSplineSet
Validated: 5
EndChar

StartChar: ecircumflex
Encoding: 234 234 170
Width: 512
Flags: W
LayerCount: 2
Fore
SplineSet
320 512 m 1,0,-1
 320 576 l 1,1,-1
 384 576 l 1,2,-1
 384 512 l 1,3,-1
 320 512 l 1,0,-1
192 512 m 1,4,-1
 192 576 l 1,5,-1
 256 576 l 1,6,-1
 256 512 l 1,7,-1
 192 512 l 1,4,-1
320 64 m 1,8,-1
 384 64 l 1,9,-1
 384 0 l 1,10,-1
 320 0 l 1,11,-1
 256 0 l 1,12,-1
 192 0 l 1,13,-1
 128 0 l 1,14,-1
 128 64 l 1,15,-1
 64 64 l 1,16,-1
 64 128 l 1,17,-1
 64 192 l 1,18,-1
 64 256 l 1,19,-1
 64 320 l 1,20,-1
 64 384 l 1,21,-1
 128 384 l 1,22,-1
 128 448 l 1,23,-1
 192 448 l 1,24,-1
 256 448 l 1,25,-1
 320 448 l 1,26,-1
 384 448 l 1,27,-1
 384 384 l 1,28,-1
 320 384 l 1,29,-1
 256 384 l 1,30,-1
 192 384 l 1,31,-1
 192 320 l 1,32,-1
 128 320 l 1,33,-1
 128 256 l 1,34,-1
 192 256 l 1,35,-1
 256 256 l 1,36,-1
 320 256 l 1,37,-1
 384 256 l 1,38,-1
 384 320 l 1,39,-1
 384 384 l 1,40,-1
 448 384 l 1,41,-1
 448 320 l 1,42,-1
 448 256 l 1,43,-1
 448 192 l 1,44,-1
 384 192 l 1,45,-1
 320 192 l 1,46,-1
 256 192 l 1,47,-1
 192 192 l 1,48,-1
 128 192 l 1,49,-1
 128 128 l 1,50,-1
 192 128 l 1,51,-1
 192 64 l 1,52,-1
 256 64 l 1,53,-1
 320 64 l 1,8,-1
384 64 m 1,54,-1
 384 128 l 1,55,-1
 448 128 l 1,56,-1
 448 64 l 1,57,-1
 384 64 l 1,54,-1
320 576 m 1,58,-1
 256 576 l 1,59,-1
 256 640 l 1,60,-1
 320 640 l 1,61,-1
 320 576 l 1,58,-1
EndSplineSet
Validated: 5
EndChar

StartChar: edieresis
Encoding: 235 235 171
Width: 512
Flags: W
LayerCount: 2
Fore
SplineSet
320 512 m 1,0,-1
 320 576 l 1,1,-1
 384 576 l 1,2,-1
 384 512 l 1,3,-1
 320 512 l 1,0,-1
128 512 m 1,4,-1
 128 576 l 1,5,-1
 192 576 l 1,6,-1
 192 512 l 1,7,-1
 128 512 l 1,4,-1
320 64 m 1,8,-1
 384 64 l 1,9,-1
 384 0 l 1,10,-1
 320 0 l 1,11,-1
 256 0 l 1,12,-1
 192 0 l 1,13,-1
 128 0 l 1,14,-1
 128 64 l 1,15,-1
 64 64 l 1,16,-1
 64 128 l 1,17,-1
 64 192 l 1,18,-1
 64 256 l 1,19,-1
 64 320 l 1,20,-1
 64 384 l 1,21,-1
 128 384 l 1,22,-1
 128 448 l 1,23,-1
 192 448 l 1,24,-1
 256 448 l 1,25,-1
 320 448 l 1,26,-1
 384 448 l 1,27,-1
 384 384 l 1,28,-1
 320 384 l 1,29,-1
 256 384 l 1,30,-1
 192 384 l 1,31,-1
 192 320 l 1,32,-1
 128 320 l 1,33,-1
 128 256 l 1,34,-1
 192 256 l 1,35,-1
 256 256 l 1,36,-1
 320 256 l 1,37,-1
 384 256 l 1,38,-1
 384 320 l 1,39,-1
 384 384 l 1,40,-1
 448 384 l 1,41,-1
 448 320 l 1,42,-1
 448 256 l 1,43,-1
 448 192 l 1,44,-1
 384 192 l 1,45,-1
 320 192 l 1,46,-1
 256 192 l 1,47,-1
 192 192 l 1,48,-1
 128 192 l 1,49,-1
 128 128 l 1,50,-1
 192 128 l 1,51,-1
 192 64 l 1,52,-1
 256 64 l 1,53,-1
 320 64 l 1,8,-1
384 64 m 1,54,-1
 384 128 l 1,55,-1
 448 128 l 1,56,-1
 448 64 l 1,57,-1
 384 64 l 1,54,-1
EndSplineSet
Validated: 5
EndChar

StartChar: igrave
Encoding: 236 236 172
Width: 192
Flags: W
LayerCount: 2
Fore
SplineSet
64 0 m 1,0,-1
 64 64 l 1,1,-1
 64 128 l 1,2,-1
 64 192 l 1,3,-1
 64 256 l 1,4,-1
 64 320 l 1,5,-1
 128 320 l 1,6,-1
 128 256 l 1,7,-1
 128 192 l 1,8,-1
 128 128 l 1,9,-1
 128 64 l 1,10,-1
 128 0 l 1,11,-1
 64 0 l 1,0,-1
64 384 m 1,12,-1
 64 448 l 1,13,-1
 128 448 l 1,14,-1
 128 384 l 1,15,-1
 64 384 l 1,12,-1
64 448 m 1,16,-1
 0 448 l 1,17,-1
 0 512 l 1,18,-1
 64 512 l 1,19,-1
 64 448 l 1,16,-1
EndSplineSet
Validated: 5
EndChar

StartChar: iacute
Encoding: 237 237 173
Width: 256
Flags: W
LayerCount: 2
Fore
SplineSet
64 0 m 1,0,-1
 64 64 l 1,1,-1
 64 128 l 1,2,-1
 64 192 l 1,3,-1
 64 256 l 1,4,-1
 64 320 l 1,5,-1
 128 320 l 1,6,-1
 128 256 l 1,7,-1
 128 192 l 1,8,-1
 128 128 l 1,9,-1
 128 64 l 1,10,-1
 128 0 l 1,11,-1
 64 0 l 1,0,-1
64 384 m 1,12,-1
 64 448 l 1,13,-1
 128 448 l 1,14,-1
 128 384 l 1,15,-1
 64 384 l 1,12,-1
128 448 m 1,16,-1
 128 512 l 1,17,-1
 192 512 l 1,18,-1
 192 448 l 1,19,-1
 128 448 l 1,16,-1
EndSplineSet
Validated: 5
EndChar

StartChar: icircumflex
Encoding: 238 238 174
Width: 256
Flags: W
LayerCount: 2
Fore
SplineSet
64 0 m 1,0,-1
 64 64 l 1,1,-1
 64 128 l 1,2,-1
 64 192 l 1,3,-1
 64 256 l 1,4,-1
 64 320 l 1,5,-1
 128 320 l 1,6,-1
 128 256 l 1,7,-1
 128 192 l 1,8,-1
 128 128 l 1,9,-1
 128 64 l 1,10,-1
 128 0 l 1,11,-1
 64 0 l 1,0,-1
128 384 m 1,12,-1
 128 448 l 1,13,-1
 192 448 l 1,14,-1
 192 384 l 1,15,-1
 128 384 l 1,12,-1
0 384 m 1,16,-1
 0 448 l 1,17,-1
 64 448 l 1,18,-1
 64 384 l 1,19,-1
 0 384 l 1,16,-1
128 448 m 1,20,-1
 64 448 l 1,21,-1
 64 512 l 1,22,-1
 128 512 l 1,23,-1
 128 448 l 1,20,-1
EndSplineSet
Validated: 5
EndChar

StartChar: idieresis
Encoding: 239 239 175
Width: 256
Flags: W
LayerCount: 2
Fore
SplineSet
64 0 m 1,0,-1
 64 64 l 1,1,-1
 64 128 l 1,2,-1
 64 192 l 1,3,-1
 64 256 l 1,4,-1
 64 320 l 1,5,-1
 128 320 l 1,6,-1
 128 256 l 1,7,-1
 128 192 l 1,8,-1
 128 128 l 1,9,-1
 128 64 l 1,10,-1
 128 0 l 1,11,-1
 64 0 l 1,0,-1
128 384 m 1,12,-1
 128 448 l 1,13,-1
 192 448 l 1,14,-1
 192 384 l 1,15,-1
 128 384 l 1,12,-1
0 384 m 1,16,-1
 0 448 l 1,17,-1
 64 448 l 1,18,-1
 64 384 l 1,19,-1
 0 384 l 1,16,-1
EndSplineSet
Validated: 1
EndChar

StartChar: eth
Encoding: 240 240 176
Width: 576
Flags: W
LayerCount: 2
Fore
SplineSet
192 576 m 1,0,-1
 192 640 l 1,1,-1
 256 640 l 1,2,-1
 256 576 l 1,3,-1
 192 576 l 1,0,-1
320 64 m 1,4,-1
 384 64 l 1,5,-1
 384 0 l 1,6,-1
 320 0 l 1,7,-1
 256 0 l 1,8,-1
 192 0 l 1,9,-1
 192 64 l 1,10,-1
 256 64 l 1,11,-1
 320 64 l 1,4,-1
384 64 m 1,12,-1
 384 128 l 1,13,-1
 448 128 l 1,14,-1
 448 64 l 1,15,-1
 384 64 l 1,12,-1
192 64 m 1,16,-1
 128 64 l 1,17,-1
 128 128 l 1,18,-1
 192 128 l 1,19,-1
 192 64 l 1,16,-1
448 128 m 1,20,-1
 448 192 l 1,21,-1
 448 256 l 1,22,-1
 448 320 l 1,23,-1
 448 384 l 1,24,-1
 384 384 l 1,25,-1
 384 448 l 1,26,-1
 320 448 l 1,27,-1
 256 448 l 1,28,-1
 192 448 l 1,29,-1
 192 384 l 1,30,-1
 128 384 l 1,31,-1
 128 320 l 1,32,-1
 128 256 l 1,33,-1
 128 192 l 1,34,-1
 128 128 l 1,35,-1
 64 128 l 1,36,-1
 64 192 l 1,37,-1
 64 256 l 1,38,-1
 64 320 l 1,39,-1
 64 384 l 1,40,-1
 128 384 l 1,41,-1
 128 448 l 1,42,-1
 192 448 l 1,43,-1
 192 512 l 1,44,-1
 256 512 l 1,45,-1
 320 512 l 1,46,-1
 384 512 l 1,47,-1
 384 576 l 1,48,-1
 448 576 l 1,49,-1
 448 512 l 1,50,-1
 448 448 l 1,51,-1
 512 448 l 1,52,-1
 512 384 l 1,53,-1
 512 320 l 1,54,-1
 512 256 l 1,55,-1
 512 192 l 1,56,-1
 512 128 l 1,57,-1
 448 128 l 1,20,-1
384 576 m 1,58,-1
 320 576 l 1,59,-1
 320 640 l 1,60,-1
 384 640 l 1,61,-1
 384 576 l 1,58,-1
384 640 m 1,62,-1
 384 704 l 1,63,-1
 448 704 l 1,64,-1
 448 640 l 1,65,-1
 384 640 l 1,62,-1
320 640 m 1,66,-1
 256 640 l 1,67,-1
 256 704 l 1,68,-1
 320 704 l 1,69,-1
 320 640 l 1,66,-1
256 704 m 1,70,-1
 192 704 l 1,71,-1
 192 768 l 1,72,-1
 256 768 l 1,73,-1
 256 704 l 1,70,-1
EndSplineSet
Validated: 5
EndChar

StartChar: ntilde
Encoding: 241 241 177
Width: 512
Flags: W
LayerCount: 2
Fore
SplineSet
384 0 m 1,0,-1
 384 64 l 1,1,-1
 384 128 l 1,2,-1
 384 192 l 1,3,-1
 384 256 l 1,4,-1
 384 320 l 1,5,-1
 384 384 l 1,6,-1
 448 384 l 1,7,-1
 448 320 l 1,8,-1
 448 256 l 1,9,-1
 448 192 l 1,10,-1
 448 128 l 1,11,-1
 448 64 l 1,12,-1
 448 0 l 1,13,-1
 384 0 l 1,0,-1
256 512 m 1,14,-1
 256 576 l 1,15,-1
 320 576 l 1,16,-1
 320 512 l 1,17,-1
 256 512 l 1,14,-1
128 512 m 1,18,-1
 128 576 l 1,19,-1
 192 576 l 1,20,-1
 192 512 l 1,21,-1
 128 512 l 1,18,-1
128 0 m 1,22,-1
 64 0 l 1,23,-1
 64 64 l 1,24,-1
 64 128 l 1,25,-1
 64 192 l 1,26,-1
 64 256 l 1,27,-1
 64 320 l 1,28,-1
 64 384 l 1,29,-1
 64 448 l 1,30,-1
 128 448 l 1,31,-1
 128 384 l 1,32,-1
 192 384 l 1,33,-1
 192 320 l 1,34,-1
 128 320 l 1,35,-1
 128 256 l 1,36,-1
 128 192 l 1,37,-1
 128 128 l 1,38,-1
 128 64 l 1,39,-1
 192 64 l 1,40,-1
 192 0 l 1,41,-1
 128 0 l 1,22,-1
384 384 m 1,42,-1
 320 384 l 1,43,-1
 256 384 l 1,44,-1
 192 384 l 1,45,-1
 192 448 l 1,46,-1
 256 448 l 1,47,-1
 320 448 l 1,48,-1
 384 448 l 1,49,-1
 384 384 l 1,42,-1
320 576 m 1,50,-1
 320 640 l 1,51,-1
 384 640 l 1,52,-1
 384 576 l 1,53,-1
 320 576 l 1,50,-1
256 576 m 1,54,-1
 192 576 l 1,55,-1
 192 640 l 1,56,-1
 256 640 l 1,57,-1
 256 576 l 1,54,-1
EndSplineSet
Validated: 5
EndChar

StartChar: ograve
Encoding: 242 242 178
Width: 576
Flags: W
LayerCount: 2
Fore
SplineSet
256 512 m 1,0,-1
 256 576 l 1,1,-1
 320 576 l 1,2,-1
 320 512 l 1,3,-1
 256 512 l 1,0,-1
320 64 m 1,4,-1
 384 64 l 1,5,-1
 384 0 l 1,6,-1
 320 0 l 1,7,-1
 256 0 l 1,8,-1
 192 0 l 1,9,-1
 192 64 l 1,10,-1
 256 64 l 1,11,-1
 320 64 l 1,4,-1
384 64 m 1,12,-1
 384 128 l 1,13,-1
 448 128 l 1,14,-1
 448 64 l 1,15,-1
 384 64 l 1,12,-1
192 64 m 1,16,-1
 128 64 l 1,17,-1
 128 128 l 1,18,-1
 192 128 l 1,19,-1
 192 64 l 1,16,-1
448 128 m 1,20,-1
 448 192 l 1,21,-1
 448 256 l 1,22,-1
 448 320 l 1,23,-1
 512 320 l 1,24,-1
 512 256 l 1,25,-1
 512 192 l 1,26,-1
 512 128 l 1,27,-1
 448 128 l 1,20,-1
128 128 m 1,28,-1
 64 128 l 1,29,-1
 64 192 l 1,30,-1
 64 256 l 1,31,-1
 64 320 l 1,32,-1
 128 320 l 1,33,-1
 128 256 l 1,34,-1
 128 192 l 1,35,-1
 128 128 l 1,28,-1
448 320 m 1,36,-1
 384 320 l 1,37,-1
 384 384 l 1,38,-1
 448 384 l 1,39,-1
 448 320 l 1,36,-1
128 320 m 1,40,-1
 128 384 l 1,41,-1
 192 384 l 1,42,-1
 192 320 l 1,43,-1
 128 320 l 1,40,-1
384 384 m 1,44,-1
 320 384 l 1,45,-1
 256 384 l 1,46,-1
 192 384 l 1,47,-1
 192 448 l 1,48,-1
 256 448 l 1,49,-1
 320 448 l 1,50,-1
 384 448 l 1,51,-1
 384 384 l 1,44,-1
256 576 m 1,52,-1
 192 576 l 1,53,-1
 192 640 l 1,54,-1
 256 640 l 1,55,-1
 256 576 l 1,52,-1
EndSplineSet
Validated: 5
EndChar

StartChar: oacute
Encoding: 243 243 179
Width: 576
Flags: W
LayerCount: 2
Fore
SplineSet
256 512 m 1,0,-1
 256 576 l 1,1,-1
 320 576 l 1,2,-1
 320 512 l 1,3,-1
 256 512 l 1,0,-1
320 64 m 1,4,-1
 384 64 l 1,5,-1
 384 0 l 1,6,-1
 320 0 l 1,7,-1
 256 0 l 1,8,-1
 192 0 l 1,9,-1
 192 64 l 1,10,-1
 256 64 l 1,11,-1
 320 64 l 1,4,-1
384 64 m 1,12,-1
 384 128 l 1,13,-1
 448 128 l 1,14,-1
 448 64 l 1,15,-1
 384 64 l 1,12,-1
192 64 m 1,16,-1
 128 64 l 1,17,-1
 128 128 l 1,18,-1
 192 128 l 1,19,-1
 192 64 l 1,16,-1
448 128 m 1,20,-1
 448 192 l 1,21,-1
 448 256 l 1,22,-1
 448 320 l 1,23,-1
 512 320 l 1,24,-1
 512 256 l 1,25,-1
 512 192 l 1,26,-1
 512 128 l 1,27,-1
 448 128 l 1,20,-1
128 128 m 1,28,-1
 64 128 l 1,29,-1
 64 192 l 1,30,-1
 64 256 l 1,31,-1
 64 320 l 1,32,-1
 128 320 l 1,33,-1
 128 256 l 1,34,-1
 128 192 l 1,35,-1
 128 128 l 1,28,-1
448 320 m 1,36,-1
 384 320 l 1,37,-1
 384 384 l 1,38,-1
 448 384 l 1,39,-1
 448 320 l 1,36,-1
128 320 m 1,40,-1
 128 384 l 1,41,-1
 192 384 l 1,42,-1
 192 320 l 1,43,-1
 128 320 l 1,40,-1
384 384 m 1,44,-1
 320 384 l 1,45,-1
 256 384 l 1,46,-1
 192 384 l 1,47,-1
 192 448 l 1,48,-1
 256 448 l 1,49,-1
 320 448 l 1,50,-1
 384 448 l 1,51,-1
 384 384 l 1,44,-1
320 576 m 1,52,-1
 320 640 l 1,53,-1
 384 640 l 1,54,-1
 384 576 l 1,55,-1
 320 576 l 1,52,-1
EndSplineSet
Validated: 5
EndChar

StartChar: ocircumflex
Encoding: 244 244 180
Width: 576
Flags: W
LayerCount: 2
Fore
SplineSet
320 512 m 1,0,-1
 320 576 l 1,1,-1
 384 576 l 1,2,-1
 384 512 l 1,3,-1
 320 512 l 1,0,-1
192 512 m 1,4,-1
 192 576 l 1,5,-1
 256 576 l 1,6,-1
 256 512 l 1,7,-1
 192 512 l 1,4,-1
320 64 m 1,8,-1
 384 64 l 1,9,-1
 384 0 l 1,10,-1
 320 0 l 1,11,-1
 256 0 l 1,12,-1
 192 0 l 1,13,-1
 192 64 l 1,14,-1
 256 64 l 1,15,-1
 320 64 l 1,8,-1
384 64 m 1,16,-1
 384 128 l 1,17,-1
 448 128 l 1,18,-1
 448 64 l 1,19,-1
 384 64 l 1,16,-1
192 64 m 1,20,-1
 128 64 l 1,21,-1
 128 128 l 1,22,-1
 192 128 l 1,23,-1
 192 64 l 1,20,-1
448 128 m 1,24,-1
 448 192 l 1,25,-1
 448 256 l 1,26,-1
 448 320 l 1,27,-1
 512 320 l 1,28,-1
 512 256 l 1,29,-1
 512 192 l 1,30,-1
 512 128 l 1,31,-1
 448 128 l 1,24,-1
128 128 m 1,32,-1
 64 128 l 1,33,-1
 64 192 l 1,34,-1
 64 256 l 1,35,-1
 64 320 l 1,36,-1
 128 320 l 1,37,-1
 128 256 l 1,38,-1
 128 192 l 1,39,-1
 128 128 l 1,32,-1
448 320 m 1,40,-1
 384 320 l 1,41,-1
 384 384 l 1,42,-1
 448 384 l 1,43,-1
 448 320 l 1,40,-1
128 320 m 1,44,-1
 128 384 l 1,45,-1
 192 384 l 1,46,-1
 192 320 l 1,47,-1
 128 320 l 1,44,-1
384 384 m 1,48,-1
 320 384 l 1,49,-1
 256 384 l 1,50,-1
 192 384 l 1,51,-1
 192 448 l 1,52,-1
 256 448 l 1,53,-1
 320 448 l 1,54,-1
 384 448 l 1,55,-1
 384 384 l 1,48,-1
320 576 m 1,56,-1
 256 576 l 1,57,-1
 256 640 l 1,58,-1
 320 640 l 1,59,-1
 320 576 l 1,56,-1
EndSplineSet
Validated: 5
EndChar

StartChar: otilde
Encoding: 245 245 181
Width: 576
Flags: W
LayerCount: 2
Fore
SplineSet
256 512 m 1,0,-1
 256 576 l 1,1,-1
 320 576 l 1,2,-1
 320 512 l 1,3,-1
 256 512 l 1,0,-1
128 512 m 1,4,-1
 128 576 l 1,5,-1
 192 576 l 1,6,-1
 192 512 l 1,7,-1
 128 512 l 1,4,-1
320 64 m 1,8,-1
 384 64 l 1,9,-1
 384 0 l 1,10,-1
 320 0 l 1,11,-1
 256 0 l 1,12,-1
 192 0 l 1,13,-1
 192 64 l 1,14,-1
 256 64 l 1,15,-1
 320 64 l 1,8,-1
384 64 m 1,16,-1
 384 128 l 1,17,-1
 448 128 l 1,18,-1
 448 64 l 1,19,-1
 384 64 l 1,16,-1
192 64 m 1,20,-1
 128 64 l 1,21,-1
 128 128 l 1,22,-1
 192 128 l 1,23,-1
 192 64 l 1,20,-1
448 128 m 1,24,-1
 448 192 l 1,25,-1
 448 256 l 1,26,-1
 448 320 l 1,27,-1
 512 320 l 1,28,-1
 512 256 l 1,29,-1
 512 192 l 1,30,-1
 512 128 l 1,31,-1
 448 128 l 1,24,-1
128 128 m 1,32,-1
 64 128 l 1,33,-1
 64 192 l 1,34,-1
 64 256 l 1,35,-1
 64 320 l 1,36,-1
 128 320 l 1,37,-1
 128 256 l 1,38,-1
 128 192 l 1,39,-1
 128 128 l 1,32,-1
448 320 m 1,40,-1
 384 320 l 1,41,-1
 384 384 l 1,42,-1
 448 384 l 1,43,-1
 448 320 l 1,40,-1
128 320 m 1,44,-1
 128 384 l 1,45,-1
 192 384 l 1,46,-1
 192 320 l 1,47,-1
 128 320 l 1,44,-1
384 384 m 1,48,-1
 320 384 l 1,49,-1
 256 384 l 1,50,-1
 192 384 l 1,51,-1
 192 448 l 1,52,-1
 256 448 l 1,53,-1
 320 448 l 1,54,-1
 384 448 l 1,55,-1
 384 384 l 1,48,-1
320 576 m 1,56,-1
 320 640 l 1,57,-1
 384 640 l 1,58,-1
 384 576 l 1,59,-1
 320 576 l 1,56,-1
256 576 m 1,60,-1
 192 576 l 1,61,-1
 192 640 l 1,62,-1
 256 640 l 1,63,-1
 256 576 l 1,60,-1
EndSplineSet
Validated: 5
EndChar

StartChar: odieresis
Encoding: 246 246 182
Width: 576
Flags: W
LayerCount: 2
Fore
SplineSet
384 512 m 1,0,-1
 384 576 l 1,1,-1
 448 576 l 1,2,-1
 448 512 l 1,3,-1
 384 512 l 1,0,-1
128 512 m 1,4,-1
 128 576 l 1,5,-1
 192 576 l 1,6,-1
 192 512 l 1,7,-1
 128 512 l 1,4,-1
320 64 m 1,8,-1
 384 64 l 1,9,-1
 384 0 l 1,10,-1
 320 0 l 1,11,-1
 256 0 l 1,12,-1
 192 0 l 1,13,-1
 192 64 l 1,14,-1
 256 64 l 1,15,-1
 320 64 l 1,8,-1
384 64 m 1,16,-1
 384 128 l 1,17,-1
 448 128 l 1,18,-1
 448 64 l 1,19,-1
 384 64 l 1,16,-1
192 64 m 1,20,-1
 128 64 l 1,21,-1
 128 128 l 1,22,-1
 192 128 l 1,23,-1
 192 64 l 1,20,-1
448 128 m 1,24,-1
 448 192 l 1,25,-1
 448 256 l 1,26,-1
 448 320 l 1,27,-1
 512 320 l 1,28,-1
 512 256 l 1,29,-1
 512 192 l 1,30,-1
 512 128 l 1,31,-1
 448 128 l 1,24,-1
128 128 m 1,32,-1
 64 128 l 1,33,-1
 64 192 l 1,34,-1
 64 256 l 1,35,-1
 64 320 l 1,36,-1
 128 320 l 1,37,-1
 128 256 l 1,38,-1
 128 192 l 1,39,-1
 128 128 l 1,32,-1
448 320 m 1,40,-1
 384 320 l 1,41,-1
 384 384 l 1,42,-1
 448 384 l 1,43,-1
 448 320 l 1,40,-1
128 320 m 1,44,-1
 128 384 l 1,45,-1
 192 384 l 1,46,-1
 192 320 l 1,47,-1
 128 320 l 1,44,-1
384 384 m 1,48,-1
 320 384 l 1,49,-1
 256 384 l 1,50,-1
 192 384 l 1,51,-1
 192 448 l 1,52,-1
 256 448 l 1,53,-1
 320 448 l 1,54,-1
 384 448 l 1,55,-1
 384 384 l 1,48,-1
EndSplineSet
Validated: 5
EndChar

StartChar: divide
Encoding: 247 247 183
Width: 448
Flags: W
LayerCount: 2
Fore
SplineSet
192 192 m 1,0,-1
 192 256 l 1,1,-1
 256 256 l 1,2,-1
 256 192 l 1,3,-1
 192 192 l 1,0,-1
192 448 m 1,4,-1
 192 512 l 1,5,-1
 256 512 l 1,6,-1
 256 448 l 1,7,-1
 192 448 l 1,4,-1
320 384 m 1,8,-1
 384 384 l 1,9,-1
 384 320 l 1,10,-1
 320 320 l 1,11,-1
 256 320 l 1,12,-1
 192 320 l 1,13,-1
 128 320 l 1,14,-1
 64 320 l 1,15,-1
 64 384 l 1,16,-1
 128 384 l 1,17,-1
 192 384 l 1,18,-1
 256 384 l 1,19,-1
 320 384 l 1,8,-1
EndSplineSet
Validated: 1
EndChar

StartChar: oslash
Encoding: 248 248 184
Width: 576
Flags: W
LayerCount: 2
Fore
SplineSet
64 0 m 1,0,-1
 64 64 l 1,1,-1
 128 64 l 1,2,-1
 128 0 l 1,3,-1
 64 0 l 1,0,-1
320 64 m 1,4,-1
 384 64 l 1,5,-1
 384 0 l 1,6,-1
 320 0 l 1,7,-1
 256 0 l 1,8,-1
 192 0 l 1,9,-1
 192 64 l 1,10,-1
 256 64 l 1,11,-1
 320 64 l 1,4,-1
384 64 m 1,12,-1
 384 128 l 1,13,-1
 448 128 l 1,14,-1
 448 64 l 1,15,-1
 384 64 l 1,12,-1
192 64 m 1,16,-1
 128 64 l 1,17,-1
 128 128 l 1,18,-1
 192 128 l 1,19,-1
 192 64 l 1,16,-1
448 128 m 1,20,-1
 448 192 l 1,21,-1
 448 256 l 1,22,-1
 448 320 l 1,23,-1
 512 320 l 1,24,-1
 512 256 l 1,25,-1
 512 192 l 1,26,-1
 512 128 l 1,27,-1
 448 128 l 1,20,-1
192 128 m 1,28,-1
 192 192 l 1,29,-1
 256 192 l 1,30,-1
 256 128 l 1,31,-1
 192 128 l 1,28,-1
128 128 m 1,32,-1
 64 128 l 1,33,-1
 64 192 l 1,34,-1
 64 256 l 1,35,-1
 64 320 l 1,36,-1
 128 320 l 1,37,-1
 128 256 l 1,38,-1
 128 192 l 1,39,-1
 128 128 l 1,32,-1
256 192 m 1,40,-1
 256 256 l 1,41,-1
 320 256 l 1,42,-1
 320 192 l 1,43,-1
 256 192 l 1,40,-1
320 256 m 1,44,-1
 320 320 l 1,45,-1
 384 320 l 1,46,-1
 384 256 l 1,47,-1
 320 256 l 1,44,-1
448 320 m 1,48,-1
 384 320 l 1,49,-1
 384 384 l 1,50,-1
 448 384 l 1,51,-1
 448 320 l 1,48,-1
128 320 m 1,52,-1
 128 384 l 1,53,-1
 192 384 l 1,54,-1
 192 320 l 1,55,-1
 128 320 l 1,52,-1
448 384 m 1,56,-1
 448 448 l 1,57,-1
 512 448 l 1,58,-1
 512 384 l 1,59,-1
 448 384 l 1,56,-1
384 384 m 1,60,-1
 320 384 l 1,61,-1
 256 384 l 1,62,-1
 192 384 l 1,63,-1
 192 448 l 1,64,-1
 256 448 l 1,65,-1
 320 448 l 1,66,-1
 384 448 l 1,67,-1
 384 384 l 1,60,-1
EndSplineSet
Validated: 5
EndChar

StartChar: ugrave
Encoding: 249 249 185
Width: 576
Flags: W
LayerCount: 2
Fore
SplineSet
448 0 m 1,0,-1
 448 64 l 1,1,-1
 512 64 l 1,2,-1
 512 0 l 1,3,-1
 448 0 l 1,0,-1
192 512 m 1,4,-1
 192 576 l 1,5,-1
 256 576 l 1,6,-1
 256 512 l 1,7,-1
 192 512 l 1,4,-1
320 64 m 1,8,-1
 384 64 l 1,9,-1
 384 0 l 1,10,-1
 320 0 l 1,11,-1
 256 0 l 1,12,-1
 192 0 l 1,13,-1
 128 0 l 1,14,-1
 128 64 l 1,15,-1
 192 64 l 1,16,-1
 256 64 l 1,17,-1
 320 64 l 1,8,-1
448 64 m 1,18,-1
 384 64 l 1,19,-1
 384 128 l 1,20,-1
 384 192 l 1,21,-1
 384 256 l 1,22,-1
 384 320 l 1,23,-1
 384 384 l 1,24,-1
 384 448 l 1,25,-1
 448 448 l 1,26,-1
 448 384 l 1,27,-1
 448 320 l 1,28,-1
 448 256 l 1,29,-1
 448 192 l 1,30,-1
 448 128 l 1,31,-1
 448 64 l 1,18,-1
128 64 m 1,32,-1
 64 64 l 1,33,-1
 64 128 l 1,34,-1
 64 192 l 1,35,-1
 64 256 l 1,36,-1
 64 320 l 1,37,-1
 64 384 l 1,38,-1
 64 448 l 1,39,-1
 128 448 l 1,40,-1
 128 384 l 1,41,-1
 128 320 l 1,42,-1
 128 256 l 1,43,-1
 128 192 l 1,44,-1
 128 128 l 1,45,-1
 128 64 l 1,32,-1
192 576 m 1,46,-1
 128 576 l 1,47,-1
 128 640 l 1,48,-1
 192 640 l 1,49,-1
 192 576 l 1,46,-1
EndSplineSet
Validated: 5
EndChar

StartChar: uacute
Encoding: 250 250 186
Width: 576
Flags: W
LayerCount: 2
Fore
SplineSet
448 0 m 1,0,-1
 448 64 l 1,1,-1
 512 64 l 1,2,-1
 512 0 l 1,3,-1
 448 0 l 1,0,-1
192 512 m 1,4,-1
 192 576 l 1,5,-1
 256 576 l 1,6,-1
 256 512 l 1,7,-1
 192 512 l 1,4,-1
320 64 m 1,8,-1
 384 64 l 1,9,-1
 384 0 l 1,10,-1
 320 0 l 1,11,-1
 256 0 l 1,12,-1
 192 0 l 1,13,-1
 128 0 l 1,14,-1
 128 64 l 1,15,-1
 192 64 l 1,16,-1
 256 64 l 1,17,-1
 320 64 l 1,8,-1
448 64 m 1,18,-1
 384 64 l 1,19,-1
 384 128 l 1,20,-1
 384 192 l 1,21,-1
 384 256 l 1,22,-1
 384 320 l 1,23,-1
 384 384 l 1,24,-1
 384 448 l 1,25,-1
 448 448 l 1,26,-1
 448 384 l 1,27,-1
 448 320 l 1,28,-1
 448 256 l 1,29,-1
 448 192 l 1,30,-1
 448 128 l 1,31,-1
 448 64 l 1,18,-1
128 64 m 1,32,-1
 64 64 l 1,33,-1
 64 128 l 1,34,-1
 64 192 l 1,35,-1
 64 256 l 1,36,-1
 64 320 l 1,37,-1
 64 384 l 1,38,-1
 64 448 l 1,39,-1
 128 448 l 1,40,-1
 128 384 l 1,41,-1
 128 320 l 1,42,-1
 128 256 l 1,43,-1
 128 192 l 1,44,-1
 128 128 l 1,45,-1
 128 64 l 1,32,-1
256 576 m 1,46,-1
 256 640 l 1,47,-1
 320 640 l 1,48,-1
 320 576 l 1,49,-1
 256 576 l 1,46,-1
EndSplineSet
Validated: 5
EndChar

StartChar: ucircumflex
Encoding: 251 251 187
Width: 576
Flags: W
LayerCount: 2
Fore
SplineSet
448 0 m 1,0,-1
 448 64 l 1,1,-1
 512 64 l 1,2,-1
 512 0 l 1,3,-1
 448 0 l 1,0,-1
256 512 m 1,4,-1
 256 576 l 1,5,-1
 320 576 l 1,6,-1
 320 512 l 1,7,-1
 256 512 l 1,4,-1
128 512 m 1,8,-1
 128 576 l 1,9,-1
 192 576 l 1,10,-1
 192 512 l 1,11,-1
 128 512 l 1,8,-1
320 64 m 1,12,-1
 384 64 l 1,13,-1
 384 0 l 1,14,-1
 320 0 l 1,15,-1
 256 0 l 1,16,-1
 192 0 l 1,17,-1
 128 0 l 1,18,-1
 128 64 l 1,19,-1
 192 64 l 1,20,-1
 256 64 l 1,21,-1
 320 64 l 1,12,-1
448 64 m 1,22,-1
 384 64 l 1,23,-1
 384 128 l 1,24,-1
 384 192 l 1,25,-1
 384 256 l 1,26,-1
 384 320 l 1,27,-1
 384 384 l 1,28,-1
 384 448 l 1,29,-1
 448 448 l 1,30,-1
 448 384 l 1,31,-1
 448 320 l 1,32,-1
 448 256 l 1,33,-1
 448 192 l 1,34,-1
 448 128 l 1,35,-1
 448 64 l 1,22,-1
128 64 m 1,36,-1
 64 64 l 1,37,-1
 64 128 l 1,38,-1
 64 192 l 1,39,-1
 64 256 l 1,40,-1
 64 320 l 1,41,-1
 64 384 l 1,42,-1
 64 448 l 1,43,-1
 128 448 l 1,44,-1
 128 384 l 1,45,-1
 128 320 l 1,46,-1
 128 256 l 1,47,-1
 128 192 l 1,48,-1
 128 128 l 1,49,-1
 128 64 l 1,36,-1
256 576 m 1,50,-1
 192 576 l 1,51,-1
 192 640 l 1,52,-1
 256 640 l 1,53,-1
 256 576 l 1,50,-1
EndSplineSet
Validated: 5
EndChar

StartChar: udieresis
Encoding: 252 252 188
Width: 576
Flags: W
LayerCount: 2
Fore
SplineSet
448 0 m 1,0,-1
 448 64 l 1,1,-1
 512 64 l 1,2,-1
 512 0 l 1,3,-1
 448 0 l 1,0,-1
320 512 m 1,4,-1
 320 576 l 1,5,-1
 384 576 l 1,6,-1
 384 512 l 1,7,-1
 320 512 l 1,4,-1
128 512 m 1,8,-1
 128 576 l 1,9,-1
 192 576 l 1,10,-1
 192 512 l 1,11,-1
 128 512 l 1,8,-1
320 64 m 1,12,-1
 384 64 l 1,13,-1
 384 0 l 1,14,-1
 320 0 l 1,15,-1
 256 0 l 1,16,-1
 192 0 l 1,17,-1
 128 0 l 1,18,-1
 128 64 l 1,19,-1
 192 64 l 1,20,-1
 256 64 l 1,21,-1
 320 64 l 1,12,-1
448 64 m 1,22,-1
 384 64 l 1,23,-1
 384 128 l 1,24,-1
 384 192 l 1,25,-1
 384 256 l 1,26,-1
 384 320 l 1,27,-1
 384 384 l 1,28,-1
 384 448 l 1,29,-1
 448 448 l 1,30,-1
 448 384 l 1,31,-1
 448 320 l 1,32,-1
 448 256 l 1,33,-1
 448 192 l 1,34,-1
 448 128 l 1,35,-1
 448 64 l 1,22,-1
128 64 m 1,36,-1
 64 64 l 1,37,-1
 64 128 l 1,38,-1
 64 192 l 1,39,-1
 64 256 l 1,40,-1
 64 320 l 1,41,-1
 64 384 l 1,42,-1
 64 448 l 1,43,-1
 128 448 l 1,44,-1
 128 384 l 1,45,-1
 128 320 l 1,46,-1
 128 256 l 1,47,-1
 128 192 l 1,48,-1
 128 128 l 1,49,-1
 128 64 l 1,36,-1
EndSplineSet
Validated: 5
EndChar

